NotoSansKannada-Regular.ufo
<glyph name="exclam.knda" format="2">
  <advance width="269"/>
  <unicode hex="0021"/>
  <outline>
    <contour>
      <point x="163" y="196" type="line"/>
      <point x="188" y="696" type="line"/>
      <point x="81" y="696" type="line"/>
      <point x="106" y="196" type="line"/>
    </contour>
    <contour>
      <point x="72" y="56" type="curve" smooth="yes"/>
      <point x="72" y="8"/>
      <point x="99" y="-12"/>
      <point x="134" y="-12" type="curve" smooth="yes"/>
      <point x="167" y="-12"/>
      <point x="196" y="8"/>
      <point x="196" y="56" type="curve" smooth="yes"/>
      <point x="196" y="105"/>
      <point x="167" y="123"/>
      <point x="134" y="123" type="curve" smooth="yes"/>
      <point x="99" y="123"/>
      <point x="72" y="105"/>
    </contour>
  </outline>
</glyph>
<glyph name="numbersign.knda" format="2">
  <advance width="646"/>
  <unicode hex="0023"/>
  <outline>
    <contour>
      <point x="113" y="0" type="line"/>
      <point x="183" y="0" type="line"/>
      <point x="223" y="202" type="line"/>
      <point x="366" y="202" type="line"/>
      <point x="324" y="0" type="line"/>
      <point x="395" y="0" type="line"/>
      <point x="435" y="202" type="line"/>
      <point x="586" y="202" type="line"/>
      <point x="586" y="269" type="line"/>
      <point x="448" y="269" type="line"/>
      <point x="479" y="421" type="line"/>
      <point x="620" y="421" type="line"/>
      <point x="620" y="487" type="line"/>
      <point x="491" y="487" type="line"/>
      <point x="533" y="690" type="line"/>
      <point x="464" y="690" type="line"/>
      <point x="423" y="487" type="line"/>
      <point x="278" y="487" type="line"/>
      <point x="320" y="690" type="line"/>
      <point x="248" y="690" type="line"/>
      <point x="208" y="487" type="line"/>
      <point x="62" y="487" type="line"/>
      <point x="62" y="421" type="line"/>
      <point x="196" y="421" type="line"/>
      <point x="166" y="269" type="line"/>
      <point x="25" y="269" type="line"/>
      <point x="25" y="202" type="line"/>
      <point x="153" y="202" type="line"/>
    </contour>
    <contour>
      <point x="235" y="269" type="line"/>
      <point x="267" y="421" type="line"/>
      <point x="410" y="421" type="line"/>
      <point x="378" y="269" type="line"/>
    </contour>
  </outline>
</glyph>
<glyph name="percent.knda" format="2">
  <advance width="831"/>
  <unicode hex="0025"/>
  <outline>
    <contour>
      <point x="179" y="0" type="line"/>
      <point x="256" y="0" type="line"/>
      <point x="652" y="690" type="line"/>
      <point x="575" y="690" type="line"/>
    </contour>
    <contour>
      <point x="195" y="276" type="curve" smooth="yes"/>
      <point x="298" y="276"/>
      <point x="345" y="356"/>
      <point x="345" y="490" type="curve" smooth="yes"/>
      <point x="345" y="624"/>
      <point x="293" y="702"/>
      <point x="195" y="702" type="curve" smooth="yes"/>
      <point x="94" y="702"/>
      <point x="49" y="624"/>
      <point x="49" y="490" type="curve" smooth="yes"/>
      <point x="49" y="356"/>
      <point x="100" y="276"/>
    </contour>
    <contour>
      <point x="195" y="339" type="curve" smooth="yes"/>
      <point x="144" y="339"/>
      <point x="122" y="390"/>
      <point x="122" y="490" type="curve" smooth="yes"/>
      <point x="122" y="590"/>
      <point x="144" y="640"/>
      <point x="195" y="640" type="curve" smooth="yes"/>
      <point x="247" y="640"/>
      <point x="272" y="590"/>
      <point x="272" y="490" type="curve" smooth="yes"/>
      <point x="272" y="389"/>
      <point x="247" y="339"/>
    </contour>
    <contour>
      <point x="632" y="-12" type="curve" smooth="yes"/>
      <point x="735" y="-12"/>
      <point x="782" y="68"/>
      <point x="782" y="202" type="curve" smooth="yes"/>
      <point x="782" y="336"/>
      <point x="729" y="414"/>
      <point x="632" y="414" type="curve" smooth="yes"/>
      <point x="531" y="414"/>
      <point x="486" y="336"/>
      <point x="486" y="202" type="curve" smooth="yes"/>
      <point x="486" y="68"/>
      <point x="537" y="-12"/>
    </contour>
    <contour>
      <point x="632" y="51" type="curve" smooth="yes"/>
      <point x="581" y="51"/>
      <point x="559" y="101"/>
      <point x="559" y="202" type="curve" smooth="yes"/>
      <point x="559" y="301"/>
      <point x="581" y="351"/>
      <point x="632" y="351" type="curve" smooth="yes"/>
      <point x="684" y="351"/>
      <point x="709" y="301"/>
      <point x="709" y="202" type="curve" smooth="yes"/>
      <point x="709" y="101"/>
      <point x="684" y="51"/>
    </contour>
  </outline>
</glyph>
<glyph name="quotesingle.knda" format="2">
  <advance width="225"/>
  <unicode hex="0027"/>
  <outline>
    <contour>
      <point x="85" y="536" type="line"/>
      <point x="140" y="536" type="line"/>
      <point x="160" y="793" type="line"/>
      <point x="65" y="793" type="line"/>
    </contour>
  </outline>
</glyph>
<glyph name="parenleft.knda" format="2">
  <advance width="383"/>
  <unicode hex="0028"/>
  <outline>
    <contour>
      <point x="49" y="218" type="curve" smooth="yes"/>
      <point x="49" y="1"/>
      <point x="108" y="-208"/>
      <point x="232" y="-368" type="curve"/>
      <point x="318" y="-368" type="line"/>
      <point x="192" y="-181"/>
      <point x="138" y="6"/>
      <point x="138" y="217" type="curve" smooth="yes"/>
      <point x="138" y="422"/>
      <point x="195" y="611"/>
      <point x="317" y="793" type="curve"/>
      <point x="232" y="793" type="line"/>
      <point x="109" y="633"/>
      <point x="49" y="432"/>
    </contour>
  </outline>
</glyph>
<glyph name="parenright.knda" format="2">
  <advance width="383"/>
  <unicode hex="0029"/>
  <outline>
    <contour>
      <point x="334" y="207" type="curve" smooth="yes"/>
      <point x="334" y="424"/>
      <point x="274" y="633"/>
      <point x="150" y="793" type="curve"/>
      <point x="65" y="793" type="line"/>
      <point x="190" y="606"/>
      <point x="245" y="419"/>
      <point x="245" y="208" type="curve" smooth="yes"/>
      <point x="245" y="3"/>
      <point x="188" y="-186"/>
      <point x="66" y="-368" type="curve"/>
      <point x="150" y="-368" type="line"/>
      <point x="273" y="-208"/>
      <point x="334" y="-7"/>
    </contour>
  </outline>
</glyph>
<glyph name="asterisk.knda" format="2">
  <advance width="551"/>
  <unicode hex="002A"/>
  <outline>
    <contour>
      <point x="323" y="793" type="line"/>
      <point x="225" y="793" type="line"/>
      <point x="246" y="602" type="line"/>
      <point x="56" y="656" type="line"/>
      <point x="42" y="563" type="line"/>
      <point x="224" y="549" type="line"/>
      <point x="107" y="391" type="line"/>
      <point x="196" y="344" type="line"/>
      <point x="273" y="519" type="line"/>
      <point x="358" y="344" type="line"/>
      <point x="444" y="391" type="line"/>
      <point x="325" y="549" type="line"/>
      <point x="509" y="563" type="line"/>
      <point x="495" y="656" type="line"/>
      <point x="303" y="602" type="line"/>
    </contour>
  </outline>
</glyph>
<glyph name="plus.knda" format="2">
  <advance width="572"/>
  <unicode hex="002B"/>
  <outline>
    <contour>
      <point x="250" y="101" type="line"/>
      <point x="322" y="101" type="line"/>
      <point x="322" y="307" type="line"/>
      <point x="521" y="307" type="line"/>
      <point x="521" y="378" type="line"/>
      <point x="322" y="378" type="line"/>
      <point x="322" y="585" type="line"/>
      <point x="250" y="585" type="line"/>
      <point x="250" y="378" type="line"/>
      <point x="51" y="378" type="line"/>
      <point x="51" y="307" type="line"/>
      <point x="250" y="307" type="line"/>
    </contour>
  </outline>
</glyph>
<glyph name="comma.knda" format="2">
  <advance width="268"/>
  <unicode hex="002C"/>
  <outline>
    <contour>
      <point x="195" y="119" type="line"/>
      <point x="101" y="119" type="line"/>
      <point x="91" y="48"/>
      <point x="70" y="-51"/>
      <point x="51" y="-126" type="curve"/>
      <point x="116" y="-126" type="line"/>
      <point x="148" y="-55"/>
      <point x="184" y="37"/>
      <point x="202" y="107" type="curve"/>
    </contour>
  </outline>
</glyph>
<glyph name="hyphen.knda" format="2">
  <advance width="322"/>
  <unicode hex="002D"/>
  <outline>
    <contour>
      <point x="40" y="244" type="line"/>
      <point x="282" y="244" type="line"/>
      <point x="282" y="322" type="line"/>
      <point x="40" y="322" type="line"/>
    </contour>
  </outline>
</glyph>
<glyph name="period.knda" format="2">
  <advance width="268"/>
  <unicode hex="002E"/>
  <outline>
    <contour>
      <point x="72" y="57" type="curve" smooth="yes"/>
      <point x="72" y="8"/>
      <point x="99" y="-12"/>
      <point x="133" y="-12" type="curve" smooth="yes"/>
      <point x="167" y="-12"/>
      <point x="196" y="8"/>
      <point x="196" y="57" type="curve" smooth="yes"/>
      <point x="196" y="105"/>
      <point x="167" y="124"/>
      <point x="133" y="124" type="curve" smooth="yes"/>
      <point x="99" y="124"/>
      <point x="72" y="105"/>
    </contour>
  </outline>
</glyph>
<glyph name="slash.knda" format="2">
  <advance width="519"/>
  <unicode hex="002F"/>
  <outline>
    <contour>
      <point x="445" y="793" type="line"/>
      <point x="359" y="793" type="line"/>
      <point x="74" y="-368" type="line"/>
      <point x="160" y="-368" type="line"/>
    </contour>
  </outline>
</glyph>
<glyph name="zero.knda" format="2">
  <advance width="572"/>
  <unicode hex="0030"/>
  <outline>
    <contour>
      <point x="523" y="345" type="curve" smooth="yes"/>
      <point x="523" y="571"/>
      <point x="445" y="702"/>
      <point x="285" y="702" type="curve" smooth="yes"/>
      <point x="114" y="702"/>
      <point x="49" y="570"/>
      <point x="49" y="345" type="curve" smooth="yes"/>
      <point x="49" y="121"/>
      <point x="124" y="-12"/>
      <point x="285" y="-12" type="curve" smooth="yes"/>
      <point x="456" y="-12"/>
      <point x="523" y="121"/>
    </contour>
    <contour>
      <point x="137" y="345" type="curve" smooth="yes"/>
      <point x="137" y="534"/>
      <point x="177" y="627"/>
      <point x="285" y="627" type="curve" smooth="yes"/>
      <point x="392" y="627"/>
      <point x="434" y="534"/>
      <point x="434" y="345" type="curve" smooth="yes"/>
      <point x="434" y="156"/>
      <point x="392" y="63"/>
      <point x="285" y="63" type="curve" smooth="yes"/>
      <point x="177" y="63"/>
      <point x="137" y="157"/>
    </contour>
  </outline>
</glyph>
<glyph name="one.knda" format="2">
  <advance width="572"/>
  <unicode hex="0031"/>
  <outline>
    <contour>
      <point x="355" y="0" type="line"/>
      <point x="355" y="697" type="line"/>
      <point x="282" y="697" type="line"/>
      <point x="89" y="547" type="line"/>
      <point x="135" y="488" type="line"/>
      <point x="211" y="550" type="line" smooth="yes"/>
      <point x="237" y="572"/>
      <point x="252" y="583"/>
      <point x="273" y="605" type="curve"/>
      <point x="270" y="567"/>
      <point x="269" y="540"/>
      <point x="269" y="482" type="curve" smooth="yes"/>
      <point x="269" y="0" type="line"/>
    </contour>
  </outline>
</glyph>
<glyph name="two.knda" format="2">
  <advance width="572"/>
  <unicode hex="0032"/>
  <outline>
    <contour>
      <point x="520" y="0" type="line"/>
      <point x="520" y="80" type="line"/>
      <point x="172" y="80" type="line"/>
      <point x="172" y="84" type="line"/>
      <point x="327" y="233" type="line" smooth="yes"/>
      <point x="429" y="332"/>
      <point x="491" y="409"/>
      <point x="491" y="519" type="curve" smooth="yes"/>
      <point x="491" y="632"/>
      <point x="412" y="702"/>
      <point x="276" y="702" type="curve" smooth="yes"/>
      <point x="184" y="702"/>
      <point x="112" y="665"/>
      <point x="56" y="618" type="curve"/>
      <point x="103" y="559" type="line"/>
      <point x="158" y="602"/>
      <point x="205" y="627"/>
      <point x="275" y="627" type="curve" smooth="yes"/>
      <point x="354" y="627"/>
      <point x="401" y="587"/>
      <point x="401" y="511" type="curve" smooth="yes"/>
      <point x="401" y="424"/>
      <point x="342" y="359"/>
      <point x="213" y="234" type="curve" smooth="yes"/>
      <point x="48" y="73" type="line"/>
      <point x="48" y="0" type="line"/>
    </contour>
  </outline>
</glyph>
<glyph name="three.knda" format="2">
  <advance width="572"/>
  <unicode hex="0033"/>
  <outline>
    <contour>
      <point x="493" y="530" type="curve" smooth="yes"/>
      <point x="493" y="629"/>
      <point x="421" y="702"/>
      <point x="272" y="702" type="curve" smooth="yes"/>
      <point x="176" y="702"/>
      <point x="100" y="668"/>
      <point x="49" y="628" type="curve"/>
      <point x="93" y="568" type="line"/>
      <point x="146" y="603"/>
      <point x="196" y="628"/>
      <point x="273" y="628" type="curve" smooth="yes"/>
      <point x="353" y="628"/>
      <point x="403" y="590"/>
      <point x="403" y="523" type="curve" smooth="yes"/>
      <point x="403" y="445"/>
      <point x="341" y="394"/>
      <point x="224" y="394" type="curve" smooth="yes"/>
      <point x="154" y="394" type="line"/>
      <point x="154" y="319" type="line"/>
      <point x="223" y="319" type="line" smooth="yes"/>
      <point x="349" y="319"/>
      <point x="423" y="284"/>
      <point x="423" y="198" type="curve" smooth="yes"/>
      <point x="423" y="113"/>
      <point x="370" y="62"/>
      <point x="242" y="62" type="curve" smooth="yes"/>
      <point x="178" y="62"/>
      <point x="105" y="79"/>
      <point x="45" y="109" type="curve"/>
      <point x="45" y="27" type="line"/>
      <point x="104" y="-2"/>
      <point x="166" y="-12"/>
      <point x="241" y="-12" type="curve" smooth="yes"/>
      <point x="430" y="-12"/>
      <point x="515" y="74"/>
      <point x="515" y="196" type="curve" smooth="yes"/>
      <point x="515" y="287"/>
      <point x="459" y="347"/>
      <point x="345" y="361" type="curve"/>
      <point x="345" y="364" type="line"/>
      <point x="435" y="381"/>
      <point x="493" y="437"/>
    </contour>
  </outline>
</glyph>
<glyph name="four.knda" format="2">
  <advance width="572"/>
  <unicode hex="0034"/>
  <outline>
    <contour>
      <point x="552" y="157" type="line"/>
      <point x="552" y="236" type="line"/>
      <point x="448" y="236" type="line"/>
      <point x="448" y="695" type="line"/>
      <point x="357" y="695" type="line"/>
      <point x="21" y="231" type="line"/>
      <point x="21" y="157" type="line"/>
      <point x="363" y="157" type="line"/>
      <point x="363" y="0" type="line"/>
      <point x="448" y="0" type="line"/>
      <point x="448" y="157" type="line"/>
    </contour>
    <contour>
      <point x="363" y="236" type="line"/>
      <point x="107" y="236" type="line"/>
      <point x="317" y="524" type="line" smooth="yes"/>
      <point x="332" y="544"/>
      <point x="353" y="578"/>
      <point x="364" y="603" type="curve"/>
      <point x="368" y="603" type="line"/>
      <point x="366" y="559"/>
      <point x="363" y="513"/>
      <point x="363" y="443" type="curve" smooth="yes"/>
    </contour>
  </outline>
</glyph>
<glyph name="five.knda" format="2">
  <advance width="572"/>
  <unicode hex="0035"/>
  <outline>
    <contour>
      <point x="248" y="-12" type="curve" smooth="yes"/>
      <point x="416" y="-12"/>
      <point x="515" y="76"/>
      <point x="515" y="221" type="curve" smooth="yes"/>
      <point x="515" y="351"/>
      <point x="421" y="427"/>
      <point x="275" y="427" type="curve" smooth="yes"/>
      <point x="228" y="427"/>
      <point x="188" y="420"/>
      <point x="165" y="416" type="curve"/>
      <point x="182" y="610" type="line"/>
      <point x="465" y="610" type="line"/>
      <point x="465" y="690" type="line"/>
      <point x="106" y="690" type="line"/>
      <point x="80" y="366" type="line"/>
      <point x="124" y="338" type="line"/>
      <point x="153" y="345"/>
      <point x="208" y="353"/>
      <point x="246" y="353" type="curve" smooth="yes"/>
      <point x="370" y="353"/>
      <point x="425" y="302"/>
      <point x="425" y="212" type="curve" smooth="yes"/>
      <point x="425" y="110"/>
      <point x="354" y="63"/>
      <point x="249" y="63" type="curve" smooth="yes"/>
      <point x="186" y="63"/>
      <point x="111" y="81"/>
      <point x="63" y="110" type="curve"/>
      <point x="63" y="27" type="line"/>
      <point x="107" y="1"/>
      <point x="174" y="-12"/>
    </contour>
  </outline>
</glyph>
<glyph name="six.knda" format="2">
  <advance width="572"/>
  <unicode hex="0036"/>
  <outline>
    <contour>
      <point x="55" y="295" type="curve" smooth="yes"/>
      <point x="55" y="86"/>
      <point x="162" y="-11"/>
      <point x="298" y="-11" type="curve" smooth="yes"/>
      <point x="437" y="-11"/>
      <point x="525" y="78"/>
      <point x="525" y="224" type="curve" smooth="yes"/>
      <point x="525" y="360"/>
      <point x="442" y="437"/>
      <point x="318" y="437" type="curve" smooth="yes"/>
      <point x="232" y="437"/>
      <point x="179" y="400"/>
      <point x="149" y="353" type="curve"/>
      <point x="143" y="353" type="line"/>
      <point x="150" y="503"/>
      <point x="199" y="630"/>
      <point x="384" y="630" type="curve" smooth="yes"/>
      <point x="414" y="630"/>
      <point x="446" y="626"/>
      <point x="470" y="619" type="curve"/>
      <point x="470" y="693" type="line"/>
      <point x="448" y="699"/>
      <point x="410" y="702"/>
      <point x="382" y="702" type="curve" smooth="yes"/>
      <point x="113" y="702"/>
      <point x="55" y="494"/>
    </contour>
    <contour>
      <point x="297" y="63" type="curve" smooth="yes"/>
      <point x="196" y="63"/>
      <point x="144" y="156"/>
      <point x="144" y="241" type="curve" smooth="yes"/>
      <point x="144" y="302"/>
      <point x="206" y="368"/>
      <point x="300" y="368" type="curve" smooth="yes"/>
      <point x="392" y="368"/>
      <point x="438" y="313"/>
      <point x="438" y="224" type="curve" smooth="yes"/>
      <point x="438" y="114"/>
      <point x="381" y="63"/>
    </contour>
  </outline>
</glyph>
<glyph name="seven.knda" format="2">
  <advance width="572"/>
  <unicode hex="0037"/>
  <outline>
    <contour>
      <point x="142" y="0" type="line"/>
      <point x="238" y="0" type="line"/>
      <point x="523" y="623" type="line"/>
      <point x="523" y="690" type="line"/>
      <point x="44" y="690" type="line"/>
      <point x="44" y="610" type="line"/>
      <point x="429" y="610" type="line"/>
    </contour>
  </outline>
</glyph>
<glyph name="eight.knda" format="2">
  <advance width="572"/>
  <unicode hex="0038"/>
  <outline>
    <contour>
      <point x="285" y="702" type="curve" smooth="yes"/>
      <point x="163" y="702"/>
      <point x="72" y="643"/>
      <point x="72" y="537" type="curve" smooth="yes"/>
      <point x="72" y="451"/>
      <point x="127" y="400"/>
      <point x="197" y="361" type="curve"/>
      <point x="118" y="326"/>
      <point x="49" y="270"/>
      <point x="49" y="175" type="curve" smooth="yes"/>
      <point x="49" y="57"/>
      <point x="134" y="-12"/>
      <point x="288" y="-12" type="curve" smooth="yes"/>
      <point x="430" y="-12"/>
      <point x="522" y="61"/>
      <point x="522" y="178" type="curve" smooth="yes"/>
      <point x="522" y="273"/>
      <point x="451" y="324"/>
      <point x="363" y="366" type="curve"/>
      <point x="437" y="403"/>
      <point x="499" y="453"/>
      <point x="499" y="536" type="curve" smooth="yes"/>
      <point x="499" y="644"/>
      <point x="410" y="702"/>
    </contour>
    <contour>
      <point x="135" y="175" type="curve" smooth="yes"/>
      <point x="135" y="245"/>
      <point x="182" y="289"/>
      <point x="270" y="325" type="curve"/>
      <point x="286" y="319" type="line" smooth="yes"/>
      <point x="377" y="286"/>
      <point x="436" y="244"/>
      <point x="436" y="178" type="curve" smooth="yes"/>
      <point x="436" y="107"/>
      <point x="383" y="58"/>
      <point x="286" y="58" type="curve" smooth="yes"/>
      <point x="183" y="58"/>
      <point x="135" y="108"/>
    </contour>
    <contour>
      <point x="284" y="631" type="curve" smooth="yes"/>
      <point x="361" y="631"/>
      <point x="412" y="596"/>
      <point x="412" y="532" type="curve" smooth="yes"/>
      <point x="412" y="463"/>
      <point x="358" y="428"/>
      <point x="289" y="400" type="curve"/>
      <point x="216" y="430"/>
      <point x="158" y="461"/>
      <point x="158" y="532" type="curve" smooth="yes"/>
      <point x="158" y="596"/>
      <point x="210" y="631"/>
    </contour>
  </outline>
</glyph>
<glyph name="nine.knda" format="2">
  <advance width="572"/>
  <unicode hex="0039"/>
  <outline>
    <contour>
      <point x="520" y="396" type="curve" smooth="yes"/>
      <point x="520" y="603"/>
      <point x="414" y="702"/>
      <point x="278" y="702" type="curve" smooth="yes"/>
      <point x="140" y="702"/>
      <point x="50" y="611"/>
      <point x="50" y="465" type="curve" smooth="yes"/>
      <point x="50" y="330"/>
      <point x="132" y="253"/>
      <point x="255" y="253" type="curve" smooth="yes"/>
      <point x="342" y="253"/>
      <point x="395" y="291"/>
      <point x="425" y="336" type="curve"/>
      <point x="431" y="336" type="line"/>
      <point x="425" y="187"/>
      <point x="376" y="60"/>
      <point x="190" y="60" type="curve" smooth="yes"/>
      <point x="160" y="60"/>
      <point x="126" y="65"/>
      <point x="102" y="73" type="curve"/>
      <point x="102" y="-2" type="line"/>
      <point x="124" y="-9"/>
      <point x="165" y="-12"/>
      <point x="192" y="-12" type="curve" smooth="yes"/>
      <point x="462" y="-12"/>
      <point x="520" y="196"/>
    </contour>
    <contour>
      <point x="278" y="628" type="curve" smooth="yes"/>
      <point x="380" y="628"/>
      <point x="431" y="534"/>
      <point x="431" y="450" type="curve" smooth="yes"/>
      <point x="431" y="387"/>
      <point x="370" y="323"/>
      <point x="274" y="323" type="curve" smooth="yes"/>
      <point x="181" y="323"/>
      <point x="137" y="378"/>
      <point x="137" y="466" type="curve" smooth="yes"/>
      <point x="137" y="576"/>
      <point x="195" y="628"/>
    </contour>
  </outline>
</glyph>
<glyph name="colon.knda" format="2">
  <advance width="268"/>
  <unicode hex="003A"/>
  <outline>
    <contour>
      <point x="72" y="57" type="curve" smooth="yes"/>
      <point x="72" y="8"/>
      <point x="99" y="-12"/>
      <point x="133" y="-12" type="curve" smooth="yes"/>
      <point x="167" y="-12"/>
      <point x="196" y="8"/>
      <point x="196" y="57" type="curve" smooth="yes"/>
      <point x="196" y="105"/>
      <point x="167" y="124"/>
      <point x="133" y="124" type="curve" smooth="yes"/>
      <point x="99" y="124"/>
      <point x="72" y="105"/>
    </contour>
    <contour>
      <point x="72" y="384" type="curve" smooth="yes"/>
      <point x="72" y="336"/>
      <point x="99" y="316"/>
      <point x="133" y="316" type="curve" smooth="yes"/>
      <point x="167" y="316"/>
      <point x="196" y="336"/>
      <point x="196" y="384" type="curve" smooth="yes"/>
      <point x="196" y="435"/>
      <point x="167" y="452"/>
      <point x="133" y="452" type="curve" smooth="yes"/>
      <point x="99" y="452"/>
      <point x="72" y="435"/>
    </contour>
  </outline>
</glyph>
<glyph name="semicolon.knda" format="2">
  <advance width="280"/>
  <unicode hex="003B"/>
  <outline>
    <contour>
      <point x="196" y="119" type="line"/>
      <point x="102" y="119" type="line"/>
      <point x="92" y="48"/>
      <point x="70" y="-52"/>
      <point x="51" y="-126" type="curve"/>
      <point x="117" y="-126" type="line"/>
      <point x="149" y="-56"/>
      <point x="185" y="38"/>
      <point x="203" y="107" type="curve"/>
    </contour>
    <contour>
      <point x="90" y="384" type="curve" smooth="yes"/>
      <point x="90" y="336"/>
      <point x="117" y="316"/>
      <point x="151" y="316" type="curve" smooth="yes"/>
      <point x="186" y="316"/>
      <point x="214" y="336"/>
      <point x="214" y="384" type="curve" smooth="yes"/>
      <point x="214" y="435"/>
      <point x="186" y="452"/>
      <point x="151" y="452" type="curve" smooth="yes"/>
      <point x="117" y="452"/>
      <point x="90" y="435"/>
    </contour>
  </outline>
</glyph>
<glyph name="less.knda" format="2">
  <advance width="572"/>
  <unicode hex="003C"/>
  <outline>
    <contour>
      <point x="521" y="106" type="line"/>
      <point x="521" y="184" type="line"/>
      <point x="144" y="342" type="line"/>
      <point x="521" y="520" type="line"/>
      <point x="521" y="598" type="line"/>
      <point x="50" y="363" type="line"/>
      <point x="50" y="313" type="line"/>
    </contour>
  </outline>
</glyph>
<glyph name="equal.knda" format="2">
  <advance width="572"/>
  <unicode hex="003D"/>
  <outline>
    <contour>
      <point x="56" y="406" type="line"/>
      <point x="514" y="406" type="line"/>
      <point x="514" y="477" type="line"/>
      <point x="56" y="477" type="line"/>
    </contour>
    <contour>
      <point x="56" y="207" type="line"/>
      <point x="514" y="207" type="line"/>
      <point x="514" y="278" type="line"/>
      <point x="56" y="278" type="line"/>
    </contour>
  </outline>
</glyph>
<glyph name="greater.knda" format="2">
  <advance width="572"/>
  <unicode hex="003E"/>
  <outline>
    <contour>
      <point x="50" y="106" type="line"/>
      <point x="521" y="313" type="line"/>
      <point x="521" y="363" type="line"/>
      <point x="50" y="598" type="line"/>
      <point x="50" y="520" type="line"/>
      <point x="427" y="341" type="line"/>
      <point x="50" y="184" type="line"/>
    </contour>
  </outline>
</glyph>
<glyph name="question.knda" format="2">
  <advance width="458"/>
  <unicode hex="003F"/>
  <outline>
    <contour>
      <point x="216" y="702" type="curve" smooth="yes"/>
      <point x="153" y="702"/>
      <point x="90" y="680"/>
      <point x="38" y="653" type="curve"/>
      <point x="68" y="582" type="line"/>
      <point x="114" y="604"/>
      <point x="162" y="624"/>
      <point x="216" y="624" type="curve" smooth="yes"/>
      <point x="289" y="624"/>
      <point x="328" y="581"/>
      <point x="328" y="518" type="curve" smooth="yes"/>
      <point x="328" y="449"/>
      <point x="302" y="420"/>
      <point x="240" y="367" type="curve" smooth="yes"/>
      <point x="173" y="310"/>
      <point x="157" y="270"/>
      <point x="157" y="204" type="curve" smooth="yes"/>
      <point x="157" y="186" type="line"/>
      <point x="225" y="186" type="line"/>
      <point x="225" y="195" type="line" smooth="yes"/>
      <point x="225" y="244"/>
      <point x="240" y="269"/>
      <point x="304" y="324" type="curve" smooth="yes"/>
      <point x="377" y="388"/>
      <point x="413" y="432"/>
      <point x="413" y="519" type="curve" smooth="yes"/>
      <point x="413" y="634"/>
      <point x="337" y="702"/>
    </contour>
    <contour>
      <point x="195" y="-12" type="curve" smooth="yes"/>
      <point x="229" y="-12"/>
      <point x="257" y="8"/>
      <point x="257" y="56" type="curve" smooth="yes"/>
      <point x="257" y="106"/>
      <point x="229" y="124"/>
      <point x="195" y="124" type="curve" smooth="yes"/>
      <point x="161" y="124"/>
      <point x="133" y="106"/>
      <point x="133" y="56" type="curve" smooth="yes"/>
      <point x="133" y="8"/>
      <point x="161" y="-12"/>
    </contour>
  </outline>
</glyph>
<glyph name="backslash.knda" format="2">
  <advance width="519"/>
  <unicode hex="005C"/>
  <outline>
    <contour>
      <point x="160" y="793" type="line"/>
      <point x="74" y="793" type="line"/>
      <point x="358" y="-368" type="line"/>
      <point x="445" y="-368" type="line"/>
    </contour>
  </outline>
</glyph>
<glyph name="bracketright.knda" format="2">
  <advance width="383"/>
  <unicode hex="005D"/>
  <outline>
    <contour>
      <point x="79" y="-297" type="line"/>
      <point x="79" y="-369" type="line"/>
      <point x="303" y="-369" type="line"/>
      <point x="303" y="793" type="line"/>
      <point x="79" y="793" type="line"/>
      <point x="79" y="722" type="line"/>
      <point x="217" y="722" type="line"/>
      <point x="217" y="-297" type="line"/>
    </contour>
  </outline>
</glyph>
<glyph name="asciicircum.knda" format="2">
  <advance width="572"/>
  <unicode hex="005E"/>
  <outline>
    <contour>
      <point x="38" y="250" type="line"/>
      <point x="116" y="250" type="line"/>
      <point x="276" y="609" type="line"/>
      <point x="456" y="250" type="line"/>
      <point x="534" y="250" type="line"/>
      <point x="300" y="702" type="line"/>
      <point x="250" y="702" type="line"/>
    </contour>
  </outline>
</glyph>
<glyph name="braceleft.knda" format="2">
  <advance width="383"/>
  <unicode hex="007B"/>
  <outline>
    <contour>
      <point x="348" y="-368" type="curve"/>
      <point x="348" y="-296" type="line"/>
      <point x="277" y="-295"/>
      <point x="237" y="-268"/>
      <point x="237" y="-203" type="curve" smooth="yes"/>
      <point x="237" y="88" type="line" smooth="yes"/>
      <point x="237" y="156"/>
      <point x="202" y="197"/>
      <point x="128" y="210" type="curve"/>
      <point x="128" y="216" type="line"/>
      <point x="201" y="229"/>
      <point x="237" y="270"/>
      <point x="237" y="338" type="curve" smooth="yes"/>
      <point x="237" y="627" type="line" smooth="yes"/>
      <point x="237" y="692"/>
      <point x="279" y="720"/>
      <point x="348" y="722" type="curve"/>
      <point x="348" y="793" type="line"/>
      <point x="231" y="793"/>
      <point x="150" y="742"/>
      <point x="150" y="636" type="curve" smooth="yes"/>
      <point x="150" y="342" type="line" smooth="yes"/>
      <point x="150" y="275"/>
      <point x="107" y="250"/>
      <point x="28" y="249" type="curve"/>
      <point x="28" y="176" type="line"/>
      <point x="107" y="176"/>
      <point x="150" y="150"/>
      <point x="150" y="82" type="curve" smooth="yes"/>
      <point x="150" y="-209" type="line" smooth="yes"/>
      <point x="150" y="-316"/>
      <point x="225" y="-367"/>
    </contour>
  </outline>
</glyph>
<glyph name="bar.knda" format="2">
  <advance width="551"/>
  <unicode hex="007C"/>
  <outline>
    <contour>
      <point x="239" y="794" type="line"/>
      <point x="239" y="-368" type="line"/>
      <point x="312" y="-368" type="line"/>
      <point x="312" y="794" type="line"/>
    </contour>
  </outline>
</glyph>
<glyph name="braceright.knda" format="2">
  <advance width="382"/>
  <unicode hex="007D"/>
  <outline>
    <contour>
      <point x="35" y="793" type="curve"/>
      <point x="35" y="722" type="line"/>
      <point x="105" y="721"/>
      <point x="146" y="693"/>
      <point x="146" y="628" type="curve" smooth="yes"/>
      <point x="146" y="337" type="line" smooth="yes"/>
      <point x="146" y="269"/>
      <point x="181" y="228"/>
      <point x="254" y="215" type="curve"/>
      <point x="254" y="209" type="line"/>
      <point x="182" y="196"/>
      <point x="146" y="155"/>
      <point x="146" y="87" type="curve" smooth="yes"/>
      <point x="146" y="-202" type="line" smooth="yes"/>
      <point x="146" y="-267"/>
      <point x="104" y="-294"/>
      <point x="35" y="-296" type="curve"/>
      <point x="35" y="-368" type="line"/>
      <point x="151" y="-368"/>
      <point x="232" y="-316"/>
      <point x="232" y="-210" type="curve" smooth="yes"/>
      <point x="232" y="83" type="line" smooth="yes"/>
      <point x="232" y="150"/>
      <point x="275" y="175"/>
      <point x="354" y="176" type="curve"/>
      <point x="354" y="249" type="line"/>
      <point x="275" y="249"/>
      <point x="232" y="275"/>
      <point x="232" y="343" type="curve" smooth="yes"/>
      <point x="232" y="635" type="line" smooth="yes"/>
      <point x="232" y="742"/>
      <point x="157" y="792"/>
    </contour>
  </outline>
</glyph>
<glyph name="asciitilde.knda" format="2">
  <advance width="572"/>
  <unicode hex="007E"/>
  <outline>
    <contour>
      <point x="269" y="309" type="curve" smooth="yes"/>
      <point x="329" y="283"/>
      <point x="363" y="277"/>
      <point x="401" y="277" type="curve" smooth="yes"/>
      <point x="449" y="277"/>
      <point x="489" y="296"/>
      <point x="521" y="331" type="curve"/>
      <point x="521" y="408" type="line"/>
      <point x="489" y="375"/>
      <point x="445" y="349"/>
      <point x="406" y="349" type="curve" smooth="yes"/>
      <point x="378" y="349"/>
      <point x="350" y="355"/>
      <point x="302" y="376" type="curve" smooth="yes"/>
      <point x="241" y="402"/>
      <point x="208" y="408"/>
      <point x="170" y="408" type="curve" smooth="yes"/>
      <point x="122" y="408"/>
      <point x="82" y="390"/>
      <point x="50" y="355" type="curve"/>
      <point x="50" y="277" type="line"/>
      <point x="82" y="310"/>
      <point x="127" y="336"/>
      <point x="164" y="336" type="curve" smooth="yes"/>
      <point x="193" y="336"/>
      <point x="221" y="330"/>
    </contour>
  </outline>
</glyph>
<glyph name="multiply.knda" format="2">
  <advance width="572"/>
  <unicode hex="00D7"/>
  <outline>
    <contour>
      <point x="456" y="564" type="line"/>
      <point x="285" y="393" type="line"/>
      <point x="116" y="564" type="line"/>
      <point x="64" y="512" type="line"/>
      <point x="234" y="343" type="line"/>
      <point x="65" y="173" type="line"/>
      <point x="117" y="122" type="line"/>
      <point x="284" y="291" type="line"/>
      <point x="455" y="122" type="line"/>
      <point x="505" y="173" type="line"/>
      <point x="336" y="343" type="line"/>
      <point x="506" y="513" type="line"/>
    </contour>
  </outline>
</glyph>
<glyph name="divide.knda" format="2">
  <advance width="572"/>
  <unicode hex="00F7"/>
  <outline>
    <contour>
      <point x="50" y="307" type="line"/>
      <point x="521" y="307" type="line"/>
      <point x="521" y="378" type="line"/>
      <point x="50" y="378" type="line"/>
    </contour>
    <contour>
      <point x="285" y="111" type="curve" smooth="yes"/>
      <point x="315" y="111"/>
      <point x="340" y="129"/>
      <point x="340" y="172" type="curve" smooth="yes"/>
      <point x="340" y="217"/>
      <point x="315" y="232"/>
      <point x="285" y="232" type="curve" smooth="yes"/>
      <point x="254" y="232"/>
      <point x="229" y="217"/>
      <point x="229" y="172" type="curve" smooth="yes"/>
      <point x="229" y="129"/>
      <point x="254" y="111"/>
    </contour>
    <contour>
      <point x="285" y="452" type="curve" smooth="yes"/>
      <point x="315" y="452"/>
      <point x="340" y="470"/>
      <point x="340" y="513" type="curve" smooth="yes"/>
      <point x="340" y="558"/>
      <point x="315" y="573"/>
      <point x="285" y="573" type="curve" smooth="yes"/>
      <point x="254" y="573"/>
      <point x="229" y="558"/>
      <point x="229" y="513" type="curve" smooth="yes"/>
      <point x="229" y="470"/>
      <point x="254" y="452"/>
    </contour>
  </outline>
</glyph>
<glyph name="uni0951" format="2">
  <unicode hex="0951"/>
  <outline>
    <contour>
      <point x="-242" y="809" type="line"/>
      <point x="-314" y="809" type="line"/>
      <point x="-314" y="599" type="line"/>
      <point x="-242" y="599" type="line"/>
    </contour>
  </outline>
</glyph>
<glyph name="uni0952" format="2">
  <unicode hex="0952"/>
  <outline>
    <contour>
      <point x="-491" y="-182" type="line"/>
      <point x="-65" y="-182" type="line"/>
      <point x="-65" y="-111" type="line"/>
      <point x="-491" y="-111" type="line"/>
    </contour>
  </outline>
</glyph>
<glyph name="dandaknda" format="2">
  <advance width="379"/>
  <unicode hex="0964"/>
  <outline>
    <contour>
      <point x="194" y="-139" type="line"/>
      <point x="275" y="-139" type="line"/>
      <point x="275" y="702" type="line"/>
      <point x="194" y="702" type="line"/>
    </contour>
  </outline>
</glyph>
<glyph name="uni0C80" format="2">
  <advance width="556"/>
  <unicode hex="0C80"/>
  <outline>
    <contour>
      <point x="278" y="41" type="curve" smooth="yes"/>
      <point x="438" y="41"/>
      <point x="519" y="126"/>
      <point x="519" y="255" type="curve" smooth="yes"/>
      <point x="519" y="291"/>
      <point x="514" y="325"/>
      <point x="508" y="346" type="curve"/>
      <point x="429" y="331" type="line"/>
      <point x="434" y="310"/>
      <point x="437" y="283"/>
      <point x="437" y="258" type="curve" smooth="yes"/>
      <point x="437" y="153"/>
      <point x="372" y="116"/>
      <point x="278" y="116" type="curve" smooth="yes"/>
      <point x="186" y="116"/>
      <point x="119" y="153"/>
      <point x="119" y="258" type="curve" smooth="yes"/>
      <point x="119" y="283"/>
      <point x="122" y="310"/>
      <point x="127" y="331" type="curve"/>
      <point x="48" y="346" type="line"/>
      <point x="41" y="325"/>
      <point x="37" y="291"/>
      <point x="37" y="252" type="curve" smooth="yes"/>
      <point x="37" y="120"/>
      <point x="120" y="41"/>
    </contour>
    <contour>
      <point x="278" y="198" type="curve" smooth="yes"/>
      <point x="314" y="198"/>
      <point x="340" y="225"/>
      <point x="340" y="260" type="curve" smooth="yes"/>
      <point x="340" y="297"/>
      <point x="314" y="324"/>
      <point x="278" y="324" type="curve" smooth="yes"/>
      <point x="241" y="324"/>
      <point x="215" y="297"/>
      <point x="215" y="260" type="curve" smooth="yes"/>
      <point x="215" y="225"/>
      <point x="242" y="198"/>
    </contour>
  </outline>
</glyph>
<glyph name="candrabinduknda" format="2">
  <unicode hex="0C81"/>
  <outline>
    <contour>
      <point x="-278" y="598" type="curve" smooth="yes"/>
      <point x="-170" y="598"/>
      <point x="-104" y="656"/>
      <point x="-104" y="753" type="curve" smooth="yes"/>
      <point x="-104" y="770"/>
      <point x="-107" y="792"/>
      <point x="-111" y="808" type="curve"/>
      <point x="-180" y="794" type="line"/>
      <point x="-176" y="780"/>
      <point x="-175" y="767"/>
      <point x="-175" y="757" type="curve" smooth="yes"/>
      <point x="-175" y="687"/>
      <point x="-223" y="663"/>
      <point x="-278" y="663" type="curve" smooth="yes"/>
      <point x="-331" y="663"/>
      <point x="-381" y="683"/>
      <point x="-381" y="755" type="curve" smooth="yes"/>
      <point x="-381" y="766"/>
      <point x="-380" y="780"/>
      <point x="-376" y="794" type="curve"/>
      <point x="-444" y="808" type="line"/>
      <point x="-449" y="792"/>
      <point x="-452" y="772"/>
      <point x="-452" y="753" type="curve" smooth="yes"/>
      <point x="-452" y="654"/>
      <point x="-390" y="598"/>
    </contour>
    <contour>
      <point x="-279" y="705" type="curve" smooth="yes"/>
      <point x="-250" y="705"/>
      <point x="-228" y="725"/>
      <point x="-228" y="756" type="curve" smooth="yes"/>
      <point x="-228" y="784"/>
      <point x="-250" y="806"/>
      <point x="-279" y="806" type="curve" smooth="yes"/>
      <point x="-308" y="806"/>
      <point x="-329" y="784"/>
      <point x="-329" y="756" type="curve" smooth="yes"/>
      <point x="-329" y="725"/>
      <point x="-308" y="705"/>
    </contour>
  </outline>
</glyph>
<glyph name="anusvaraknda" format="2">
  <advance width="550"/>
  <unicode hex="0C82"/>
  <outline>
    <contour>
      <point x="271" y="-12" type="curve" smooth="yes"/>
      <point x="428" y="-12"/>
      <point x="513" y="95"/>
      <point x="513" y="244" type="curve" smooth="yes"/>
      <point x="513" y="389"/>
      <point x="439" y="500"/>
      <point x="276" y="500" type="curve" smooth="yes"/>
      <point x="125" y="500"/>
      <point x="37" y="395"/>
      <point x="37" y="243" type="curve" smooth="yes"/>
      <point x="37" y="81"/>
      <point x="129" y="-12"/>
    </contour>
    <contour>
      <point x="273" y="63" type="curve" smooth="yes"/>
      <point x="176" y="63"/>
      <point x="119" y="133"/>
      <point x="119" y="246" type="curve" smooth="yes"/>
      <point x="119" y="347"/>
      <point x="165" y="425"/>
      <point x="277" y="425" type="curve" smooth="yes"/>
      <point x="375" y="425"/>
      <point x="431" y="355"/>
      <point x="431" y="243" type="curve" smooth="yes"/>
      <point x="431" y="139"/>
      <point x="383" y="63"/>
    </contour>
  </outline>
</glyph>
<glyph name="visargaknda" format="2">
  <advance width="305"/>
  <unicode hex="0C83"/>
  <outline>
    <contour>
      <point x="33" y="383" type="curve" smooth="yes"/>
      <point x="33" y="317"/>
      <point x="80" y="267"/>
      <point x="152" y="267" type="curve" smooth="yes"/>
      <point x="226" y="267"/>
      <point x="272" y="317"/>
      <point x="272" y="383" type="curve" smooth="yes"/>
      <point x="272" y="450"/>
      <point x="225" y="500"/>
      <point x="152" y="500" type="curve" smooth="yes"/>
      <point x="81" y="500"/>
      <point x="33" y="450"/>
    </contour>
    <contour>
      <point x="97" y="384" type="curve" smooth="yes"/>
      <point x="97" y="415"/>
      <point x="117" y="438"/>
      <point x="152" y="438" type="curve" smooth="yes"/>
      <point x="188" y="438"/>
      <point x="208" y="415"/>
      <point x="208" y="384" type="curve" smooth="yes"/>
      <point x="208" y="353"/>
      <point x="189" y="329"/>
      <point x="152" y="329" type="curve" smooth="yes"/>
      <point x="116" y="329"/>
      <point x="97" y="353"/>
    </contour>
    <contour>
      <point x="33" y="105" type="curve" smooth="yes"/>
      <point x="33" y="39"/>
      <point x="80" y="-12"/>
      <point x="152" y="-12" type="curve" smooth="yes"/>
      <point x="226" y="-12"/>
      <point x="272" y="38"/>
      <point x="272" y="105" type="curve" smooth="yes"/>
      <point x="272" y="171"/>
      <point x="225" y="222"/>
      <point x="152" y="222" type="curve" smooth="yes"/>
      <point x="81" y="222"/>
      <point x="33" y="171"/>
    </contour>
    <contour>
      <point x="97" y="105" type="curve" smooth="yes"/>
      <point x="97" y="136"/>
      <point x="117" y="160"/>
      <point x="152" y="160" type="curve" smooth="yes"/>
      <point x="188" y="160"/>
      <point x="208" y="136"/>
      <point x="208" y="105" type="curve" smooth="yes"/>
      <point x="208" y="74"/>
      <point x="189" y="50"/>
      <point x="152" y="50" type="curve" smooth="yes"/>
      <point x="116" y="50"/>
      <point x="97" y="74"/>
    </contour>
  </outline>
</glyph>
<glyph name="uni0C84" format="2">
  <advance width="1044"/>
  <unicode hex="0C84"/>
  <outline>
    <contour>
      <point x="140" y="539" type="curve"/>
      <point x="61" y="543" type="line"/>
      <point x="50" y="483"/>
      <point x="44" y="425"/>
      <point x="44" y="369" type="curve" smooth="yes"/>
      <point x="44" y="35"/>
      <point x="229" y="-164"/>
      <point x="530" y="-164" type="curve" smooth="yes"/>
      <point x="801" y="-164"/>
      <point x="1000" y="-15"/>
      <point x="1000" y="298" type="curve" smooth="yes"/>
      <point x="1000" y="589"/>
      <point x="821" y="732"/>
      <point x="609" y="732" type="curve" smooth="yes"/>
      <point x="396" y="732"/>
      <point x="251" y="592"/>
      <point x="251" y="384" type="curve" smooth="yes"/>
      <point x="251" y="201"/>
      <point x="360" y="88"/>
      <point x="532" y="88" type="curve" smooth="yes"/>
      <point x="694" y="88"/>
      <point x="798" y="171"/>
      <point x="798" y="318" type="curve" smooth="yes"/>
      <point x="798" y="437"/>
      <point x="718" y="524"/>
      <point x="604" y="524" type="curve" smooth="yes"/>
      <point x="493" y="524"/>
      <point x="434" y="456"/>
      <point x="434" y="384" type="curve" smooth="yes"/>
      <point x="434" y="306"/>
      <point x="486" y="254"/>
      <point x="562" y="254" type="curve" smooth="yes"/>
      <point x="607" y="254"/>
      <point x="644" y="269"/>
      <point x="661" y="285" type="curve"/>
      <point x="624" y="344" type="line"/>
      <point x="607" y="331"/>
      <point x="593" y="325"/>
      <point x="565" y="325" type="curve" smooth="yes"/>
      <point x="532" y="325"/>
      <point x="512" y="347"/>
      <point x="512" y="384" type="curve" smooth="yes"/>
      <point x="512" y="430"/>
      <point x="545" y="456"/>
      <point x="601" y="456" type="curve" smooth="yes"/>
      <point x="677" y="456"/>
      <point x="718" y="404"/>
      <point x="718" y="318" type="curve" smooth="yes"/>
      <point x="718" y="214"/>
      <point x="653" y="157"/>
      <point x="532" y="157" type="curve" smooth="yes"/>
      <point x="408" y="157"/>
      <point x="331" y="239"/>
      <point x="331" y="383" type="curve" smooth="yes"/>
      <point x="331" y="577"/>
      <point x="457" y="661"/>
      <point x="609" y="661" type="curve" smooth="yes"/>
      <point x="801" y="661"/>
      <point x="917" y="522"/>
      <point x="917" y="298" type="curve" smooth="yes"/>
      <point x="917" y="52"/>
      <point x="777" y="-90"/>
      <point x="532" y="-90" type="curve" smooth="yes"/>
      <point x="272" y="-90"/>
      <point x="124" y="79"/>
      <point x="124" y="374" type="curve" smooth="yes"/>
      <point x="124" y="432"/>
      <point x="128" y="483"/>
    </contour>
  </outline>
</glyph>
<glyph name="aknda" format="2">
  <advance width="863"/>
  <unicode hex="0C85"/>
  <outline>
    <contour>
      <point x="421" y="69" type="curve" smooth="yes"/>
      <point x="202" y="69"/>
      <point x="117" y="188"/>
      <point x="117" y="311" type="curve" smooth="yes"/>
      <point x="117" y="315" type="line" smooth="yes"/>
      <point x="117" y="428"/>
      <point x="163" y="493"/>
      <point x="242" y="493" type="curve" smooth="yes"/>
      <point x="280" y="493"/>
      <point x="307" y="469"/>
      <point x="307" y="426" type="curve" smooth="yes"/>
      <point x="307" y="381"/>
      <point x="277" y="348"/>
      <point x="206" y="348" type="curve" smooth="yes"/>
      <point x="143" y="348"/>
      <point x="105" y="390"/>
      <point x="87" y="414" type="curve"/>
      <point x="63" y="348" type="line"/>
      <point x="90" y="316"/>
      <point x="139" y="278"/>
      <point x="212" y="278" type="curve" smooth="yes"/>
      <point x="325" y="278"/>
      <point x="385" y="343"/>
      <point x="385" y="429" type="curve" smooth="yes"/>
      <point x="385" y="512"/>
      <point x="329" y="563"/>
      <point x="242" y="563" type="curve" smooth="yes"/>
      <point x="126" y="563"/>
      <point x="37" y="473"/>
      <point x="37" y="311" type="curve" smooth="yes"/>
      <point x="37" y="122"/>
      <point x="167" y="-12"/>
      <point x="423" y="-12" type="curve" smooth="yes"/>
      <point x="675" y="-12"/>
      <point x="826" y="89"/>
      <point x="826" y="330" type="curve" smooth="yes"/>
      <point x="826" y="465"/>
      <point x="756" y="563"/>
      <point x="634" y="563" type="curve" smooth="yes"/>
      <point x="539" y="563"/>
      <point x="493" y="500"/>
      <point x="493" y="438" type="curve" smooth="yes"/>
      <point x="493" y="384"/>
      <point x="516" y="347"/>
      <point x="552" y="317" type="curve"/>
      <point x="373" y="317" type="line"/>
      <point x="373" y="241" type="line"/>
      <point x="679" y="241" type="line"/>
      <point x="679" y="312" type="line"/>
      <point x="617" y="331"/>
      <point x="571" y="369"/>
      <point x="571" y="419" type="curve" smooth="yes"/>
      <point x="571" y="468"/>
      <point x="604" y="489"/>
      <point x="635" y="489" type="curve" smooth="yes"/>
      <point x="709" y="489"/>
      <point x="744" y="417"/>
      <point x="744" y="328" type="curve" smooth="yes"/>
      <point x="744" y="148"/>
      <point x="639" y="69"/>
    </contour>
  </outline>
</glyph>
<glyph name="aaknda" format="2">
  <advance width="841"/>
  <unicode hex="0C86"/>
  <outline>
    <contour>
      <point x="435" y="-12" type="curve" smooth="yes"/>
      <point x="711" y="-12"/>
      <point x="788" y="92"/>
      <point x="788" y="196" type="curve" smooth="yes"/>
      <point x="788" y="248"/>
      <point x="765" y="284"/>
      <point x="730" y="308" type="curve"/>
      <point x="713" y="321"/>
      <point x="688" y="329"/>
      <point x="669" y="337" type="curve" smooth="yes"/>
      <point x="608" y="364"/>
      <point x="572" y="389"/>
      <point x="572" y="432" type="curve" smooth="yes"/>
      <point x="572" y="468"/>
      <point x="599" y="494"/>
      <point x="646" y="494" type="curve" smooth="yes"/>
      <point x="702" y="494"/>
      <point x="730" y="461"/>
      <point x="730" y="421" type="curve" smooth="yes"/>
      <point x="730" y="366"/>
      <point x="675" y="325"/>
      <point x="626" y="317" type="curve"/>
      <point x="349" y="317" type="line"/>
      <point x="349" y="241" type="line"/>
      <point x="551" y="241" type="line" smooth="yes"/>
      <point x="639" y="241"/>
      <point x="684" y="254"/>
      <point x="727" y="283" type="curve" smooth="yes"/>
      <point x="774" y="314"/>
      <point x="811" y="360"/>
      <point x="811" y="421" type="curve" smooth="yes"/>
      <point x="811" y="494"/>
      <point x="763" y="563"/>
      <point x="647" y="563" type="curve" smooth="yes"/>
      <point x="557" y="563"/>
      <point x="493" y="518"/>
      <point x="493" y="441" type="curve" smooth="yes"/>
      <point x="493" y="364"/>
      <point x="549" y="324"/>
      <point x="630" y="292" type="curve" smooth="yes"/>
      <point x="636" y="290"/>
      <point x="644" y="278"/>
      <point x="649" y="275" type="curve"/>
      <point x="686" y="261"/>
      <point x="707" y="241"/>
      <point x="707" y="203" type="curve" smooth="yes"/>
      <point x="707" y="129"/>
      <point x="629" y="69"/>
      <point x="441" y="69" type="curve" smooth="yes"/>
      <point x="201" y="69"/>
      <point x="117" y="188"/>
      <point x="117" y="311" type="curve" smooth="yes"/>
      <point x="117" y="315" type="line" smooth="yes"/>
      <point x="117" y="428"/>
      <point x="163" y="493"/>
      <point x="242" y="493" type="curve" smooth="yes"/>
      <point x="280" y="493"/>
      <point x="307" y="469"/>
      <point x="307" y="426" type="curve" smooth="yes"/>
      <point x="307" y="381"/>
      <point x="277" y="348"/>
      <point x="206" y="348" type="curve" smooth="yes"/>
      <point x="143" y="348"/>
      <point x="105" y="390"/>
      <point x="87" y="414" type="curve"/>
      <point x="63" y="348" type="line"/>
      <point x="90" y="316"/>
      <point x="139" y="278"/>
      <point x="212" y="278" type="curve" smooth="yes"/>
      <point x="325" y="278"/>
      <point x="385" y="343"/>
      <point x="385" y="429" type="curve" smooth="yes"/>
      <point x="385" y="512"/>
      <point x="329" y="563"/>
      <point x="242" y="563" type="curve" smooth="yes"/>
      <point x="126" y="563"/>
      <point x="37" y="473"/>
      <point x="37" y="311" type="curve" smooth="yes"/>
      <point x="37" y="122"/>
      <point x="168" y="-12"/>
    </contour>
  </outline>
</glyph>
<glyph name="iknda" format="2">
  <advance width="711"/>
  <unicode hex="0C87"/>
  <outline>
    <contour>
      <point x="321" y="-12" type="curve" smooth="yes"/>
      <point x="428" y="-12"/>
      <point x="504" y="23"/>
      <point x="559" y="69" type="curve"/>
      <point x="580" y="84" type="line"/>
      <point x="650" y="153"/>
      <point x="674" y="247"/>
      <point x="674" y="324" type="curve" smooth="yes"/>
      <point x="674" y="442"/>
      <point x="622" y="563"/>
      <point x="488" y="563" type="curve" smooth="yes"/>
      <point x="427" y="563"/>
      <point x="361" y="543"/>
      <point x="318" y="441" type="curve"/>
      <point x="349" y="446" type="line"/>
      <point x="306" y="530"/>
      <point x="259" y="563"/>
      <point x="180" y="563" type="curve" smooth="yes"/>
      <point x="95" y="563"/>
      <point x="26" y="507"/>
      <point x="26" y="419" type="curve" smooth="yes"/>
      <point x="26" y="376"/>
      <point x="37" y="344"/>
      <point x="49" y="319" type="curve"/>
      <point x="125" y="343" type="line"/>
      <point x="117" y="359"/>
      <point x="108" y="387"/>
      <point x="108" y="413" type="curve" smooth="yes"/>
      <point x="108" y="455"/>
      <point x="132" y="484"/>
      <point x="186" y="484" type="curve" smooth="yes"/>
      <point x="242" y="484"/>
      <point x="284" y="444"/>
      <point x="294" y="368" type="curve"/>
      <point x="373" y="368" type="line"/>
      <point x="382" y="438"/>
      <point x="421" y="484"/>
      <point x="480" y="484" type="curve" smooth="yes"/>
      <point x="549" y="484"/>
      <point x="592" y="436"/>
      <point x="592" y="324" type="curve" smooth="yes"/>
      <point x="592" y="186"/>
      <point x="522" y="63"/>
      <point x="326" y="63" type="curve" smooth="yes"/>
      <point x="244" y="63"/>
      <point x="210" y="93"/>
      <point x="210" y="141" type="curve" smooth="yes"/>
      <point x="210" y="183"/>
      <point x="247" y="209"/>
      <point x="315" y="209" type="curve" smooth="yes"/>
      <point x="461" y="209"/>
      <point x="541" y="95"/>
      <point x="570" y="-55" type="curve"/>
      <point x="653" y="-39" type="line"/>
      <point x="639" y="28"/>
      <point x="615" y="90"/>
      <point x="574" y="145" type="curve"/>
      <point x="513" y="231"/>
      <point x="430" y="282"/>
      <point x="315" y="282" type="curve" smooth="yes"/>
      <point x="196" y="282"/>
      <point x="129" y="227"/>
      <point x="129" y="140" type="curve" smooth="yes"/>
      <point x="129" y="51"/>
      <point x="190" y="-12"/>
    </contour>
  </outline>
</glyph>
<glyph name="iiknda" format="2">
  <advance width="1010"/>
  <unicode hex="0C88"/>
  <outline>
    <contour>
      <point x="356" y="-12" type="curve" smooth="yes"/>
      <point x="533" y="-12"/>
      <point x="639" y="100"/>
      <point x="639" y="255" type="curve" smooth="yes"/>
      <point x="639" y="371"/>
      <point x="595" y="439"/>
      <point x="520" y="488" type="curve"/>
      <point x="525" y="480" type="line"/>
      <point x="557" y="487"/>
      <point x="580" y="500"/>
      <point x="598" y="516" type="curve" smooth="yes"/>
      <point x="631" y="544"/>
      <point x="639" y="586"/>
      <point x="639" y="612" type="curve" smooth="yes"/>
      <point x="639" y="669"/>
      <point x="620" y="720"/>
      <point x="558" y="790" type="curve"/>
      <point x="493" y="747" type="line"/>
      <point x="537" y="703"/>
      <point x="558" y="662"/>
      <point x="558" y="618" type="curve" smooth="yes"/>
      <point x="558" y="599"/>
      <point x="553" y="582"/>
      <point x="536" y="569" type="curve" smooth="yes"/>
      <point x="521" y="558"/>
      <point x="499" y="551"/>
      <point x="427" y="551" type="curve" smooth="yes"/>
      <point x="71" y="551" type="line"/>
      <point x="71" y="474" type="line"/>
      <point x="215" y="474" type="line"/>
      <point x="197" y="488" type="line"/>
      <point x="119" y="444"/>
      <point x="71" y="367"/>
      <point x="71" y="255" type="curve" smooth="yes"/>
      <point x="71" y="84"/>
      <point x="193" y="-12"/>
    </contour>
    <contour>
      <point x="356" y="67" type="curve" smooth="yes"/>
      <point x="232" y="67"/>
      <point x="151" y="141"/>
      <point x="151" y="270" type="curve" smooth="yes"/>
      <point x="151" y="281"/>
      <point x="151" y="292"/>
      <point x="153" y="302" type="curve"/>
      <point x="166" y="409"/>
      <point x="243" y="476"/>
      <point x="357" y="476" type="curve" smooth="yes"/>
      <point x="462" y="476"/>
      <point x="541" y="414"/>
      <point x="557" y="304" type="curve"/>
      <point x="558" y="294"/>
      <point x="559" y="281"/>
      <point x="559" y="270" type="curve" smooth="yes"/>
      <point x="559" y="158"/>
      <point x="493" y="67"/>
    </contour>
    <contour>
      <point x="802" y="78" type="curve"/>
      <point x="810" y="0" type="line"/>
      <point x="924" y="7"/>
      <point x="964" y="58"/>
      <point x="964" y="118" type="curve" smooth="yes"/>
      <point x="964" y="177"/>
      <point x="936" y="220"/>
      <point x="867" y="289" type="curve"/>
      <point x="853" y="301" type="line"/>
      <point x="823" y="327"/>
      <point x="791" y="361"/>
      <point x="791" y="400" type="curve" smooth="yes"/>
      <point x="791" y="435"/>
      <point x="815" y="456"/>
      <point x="853" y="456" type="curve" smooth="yes"/>
      <point x="890" y="456"/>
      <point x="916" y="434"/>
      <point x="916" y="394" type="curve" smooth="yes"/>
      <point x="916" y="323"/>
      <point x="841" y="312"/>
      <point x="769" y="312" type="curve" smooth="yes"/>
      <point x="20" y="312" type="line"/>
      <point x="20" y="242" type="line"/>
      <point x="744" y="242" type="line" smooth="yes"/>
      <point x="872" y="242"/>
      <point x="991" y="266"/>
      <point x="991" y="397" type="curve" smooth="yes"/>
      <point x="991" y="468"/>
      <point x="942" y="524"/>
      <point x="853" y="524" type="curve" smooth="yes"/>
      <point x="757" y="524"/>
      <point x="717" y="467"/>
      <point x="717" y="409" type="curve" smooth="yes"/>
      <point x="717" y="361"/>
      <point x="747" y="318"/>
      <point x="779" y="283" type="curve"/>
      <point x="812" y="250" type="line"/>
      <point x="867" y="196"/>
      <point x="885" y="171"/>
      <point x="885" y="133" type="curve" smooth="yes"/>
      <point x="885" y="103"/>
      <point x="860" y="80"/>
    </contour>
  </outline>
</glyph>
<glyph name="uknda" format="2">
  <advance width="1222"/>
  <unicode hex="0C89"/>
  <outline>
    <contour>
      <point x="966" y="-12" type="curve" smooth="yes"/>
      <point x="1104" y="-12"/>
      <point x="1185" y="77"/>
      <point x="1185" y="221" type="curve" smooth="yes"/>
      <point x="1185" y="358"/>
      <point x="1128" y="467"/>
      <point x="1001" y="565" type="curve"/>
      <point x="944" y="498" type="line"/>
      <point x="1050" y="423"/>
      <point x="1103" y="336"/>
      <point x="1103" y="222" type="curve" smooth="yes"/>
      <point x="1103" y="115"/>
      <point x="1052" y="67"/>
      <point x="966" y="67" type="curve" smooth="yes"/>
      <point x="922" y="67"/>
      <point x="890" y="78"/>
      <point x="867" y="100" type="curve" smooth="yes"/>
      <point x="837" y="129"/>
      <point x="823" y="171"/>
      <point x="823" y="254" type="curve" smooth="yes"/>
      <point x="823" y="336" type="line" smooth="yes"/>
      <point x="823" y="440"/>
      <point x="804" y="489"/>
      <point x="765" y="524" type="curve" smooth="yes"/>
      <point x="736" y="550"/>
      <point x="699" y="563"/>
      <point x="650" y="563" type="curve" smooth="yes"/>
      <point x="536" y="563"/>
      <point x="467" y="495"/>
      <point x="467" y="375" type="curve" smooth="yes"/>
      <point x="467" y="323"/>
      <point x="477" y="277"/>
      <point x="477" y="216" type="curve" smooth="yes"/>
      <point x="477" y="137"/>
      <point x="444" y="67"/>
      <point x="318" y="67" type="curve" smooth="yes"/>
      <point x="173" y="67"/>
      <point x="115" y="178"/>
      <point x="115" y="311" type="curve" smooth="yes"/>
      <point x="115" y="315" type="line" smooth="yes"/>
      <point x="115" y="427"/>
      <point x="163" y="493"/>
      <point x="242" y="493" type="curve" smooth="yes"/>
      <point x="280" y="493"/>
      <point x="307" y="469"/>
      <point x="307" y="426" type="curve" smooth="yes"/>
      <point x="307" y="381"/>
      <point x="277" y="348"/>
      <point x="206" y="348" type="curve" smooth="yes"/>
      <point x="143" y="348"/>
      <point x="105" y="390"/>
      <point x="87" y="414" type="curve"/>
      <point x="63" y="348" type="line"/>
      <point x="90" y="316"/>
      <point x="139" y="278"/>
      <point x="212" y="278" type="curve" smooth="yes"/>
      <point x="325" y="278"/>
      <point x="385" y="343"/>
      <point x="385" y="429" type="curve" smooth="yes"/>
      <point x="385" y="512"/>
      <point x="329" y="563"/>
      <point x="242" y="563" type="curve" smooth="yes"/>
      <point x="125" y="563"/>
      <point x="37" y="471"/>
      <point x="37" y="311" type="curve" smooth="yes"/>
      <point x="37" y="119"/>
      <point x="139" y="-12"/>
      <point x="316" y="-12" type="curve" smooth="yes"/>
      <point x="463" y="-12"/>
      <point x="559" y="67"/>
      <point x="559" y="209" type="curve" smooth="yes"/>
      <point x="559" y="271"/>
      <point x="549" y="299"/>
      <point x="549" y="371" type="curve" smooth="yes"/>
      <point x="549" y="441"/>
      <point x="575" y="486"/>
      <point x="647" y="486" type="curve" smooth="yes"/>
      <point x="676" y="486"/>
      <point x="698" y="477"/>
      <point x="713" y="460" type="curve" smooth="yes"/>
      <point x="733" y="438"/>
      <point x="742" y="400"/>
      <point x="742" y="336" type="curve" smooth="yes"/>
      <point x="742" y="261" type="line" smooth="yes"/>
      <point x="742" y="141"/>
      <point x="761" y="91"/>
      <point x="801" y="47" type="curve" smooth="yes"/>
      <point x="837" y="8"/>
      <point x="897" y="-12"/>
    </contour>
  </outline>
</glyph>
<glyph name="uuknda" format="2">
  <advance width="1597"/>
  <unicode hex="0C8A"/>
  <outline>
    <contour>
      <point x="924" y="-12" type="curve" smooth="yes"/>
      <point x="1047" y="-12"/>
      <point x="1106" y="63"/>
      <point x="1106" y="180" type="curve" smooth="yes"/>
      <point x="1106" y="229"/>
      <point x="1099" y="266"/>
      <point x="1099" y="314" type="curve" smooth="yes"/>
      <point x="1099" y="423"/>
      <point x="1163" y="485"/>
      <point x="1270" y="485" type="curve" smooth="yes"/>
      <point x="1414" y="485"/>
      <point x="1477" y="367"/>
      <point x="1477" y="236" type="curve" smooth="yes"/>
      <point x="1477" y="125"/>
      <point x="1428" y="62"/>
      <point x="1348" y="62" type="curve" smooth="yes"/>
      <point x="1275" y="62"/>
      <point x="1248" y="107"/>
      <point x="1248" y="155" type="curve" smooth="yes"/>
      <point x="1248" y="176"/>
      <point x="1251" y="192"/>
      <point x="1260" y="212" type="curve"/>
      <point x="1252" y="210" type="line"/>
      <point x="1252" y="170"/>
      <point x="1272" y="150"/>
      <point x="1308" y="150" type="curve" smooth="yes"/>
      <point x="1340" y="150"/>
      <point x="1363" y="174"/>
      <point x="1363" y="212" type="curve" smooth="yes"/>
      <point x="1363" y="252"/>
      <point x="1336" y="279"/>
      <point x="1287" y="279" type="curve" smooth="yes"/>
      <point x="1226" y="279"/>
      <point x="1176" y="235"/>
      <point x="1176" y="148" type="curve" smooth="yes"/>
      <point x="1176" y="60"/>
      <point x="1236" y="-12"/>
      <point x="1348" y="-12" type="curve" smooth="yes"/>
      <point x="1483" y="-12"/>
      <point x="1559" y="85"/>
      <point x="1559" y="238" type="curve" smooth="yes"/>
      <point x="1559" y="417"/>
      <point x="1465" y="563"/>
      <point x="1269" y="563" type="curve" smooth="yes"/>
      <point x="1123" y="563"/>
      <point x="1017" y="473"/>
      <point x="1017" y="324" type="curve" smooth="yes"/>
      <point x="1017" y="289"/>
      <point x="1024" y="233"/>
      <point x="1024" y="190" type="curve" smooth="yes"/>
      <point x="1024" y="100"/>
      <point x="989" y="65"/>
      <point x="927" y="65" type="curve" smooth="yes"/>
      <point x="900" y="65"/>
      <point x="878" y="71"/>
      <point x="862" y="84" type="curve" smooth="yes"/>
      <point x="839" y="102"/>
      <point x="823" y="131"/>
      <point x="823" y="220" type="curve" smooth="yes"/>
      <point x="823" y="336" type="line" smooth="yes"/>
      <point x="823" y="440"/>
      <point x="804" y="489"/>
      <point x="765" y="524" type="curve" smooth="yes"/>
      <point x="736" y="550"/>
      <point x="699" y="563"/>
      <point x="650" y="563" type="curve" smooth="yes"/>
      <point x="536" y="563"/>
      <point x="467" y="495"/>
      <point x="467" y="375" type="curve" smooth="yes"/>
      <point x="467" y="323"/>
      <point x="477" y="277"/>
      <point x="477" y="216" type="curve" smooth="yes"/>
      <point x="477" y="137"/>
      <point x="444" y="67"/>
      <point x="318" y="67" type="curve" smooth="yes"/>
      <point x="173" y="67"/>
      <point x="115" y="178"/>
      <point x="115" y="311" type="curve" smooth="yes"/>
      <point x="115" y="315" type="line" smooth="yes"/>
      <point x="115" y="427"/>
      <point x="163" y="493"/>
      <point x="242" y="493" type="curve" smooth="yes"/>
      <point x="280" y="493"/>
      <point x="307" y="469"/>
      <point x="307" y="426" type="curve" smooth="yes"/>
      <point x="307" y="381"/>
      <point x="277" y="348"/>
      <point x="206" y="348" type="curve" smooth="yes"/>
      <point x="143" y="348"/>
      <point x="105" y="390"/>
      <point x="87" y="414" type="curve"/>
      <point x="63" y="348" type="line"/>
      <point x="90" y="316"/>
      <point x="139" y="278"/>
      <point x="212" y="278" type="curve" smooth="yes"/>
      <point x="325" y="278"/>
      <point x="385" y="343"/>
      <point x="385" y="429" type="curve" smooth="yes"/>
      <point x="385" y="512"/>
      <point x="329" y="563"/>
      <point x="242" y="563" type="curve" smooth="yes"/>
      <point x="125" y="563"/>
      <point x="37" y="471"/>
      <point x="37" y="311" type="curve" smooth="yes"/>
      <point x="37" y="119"/>
      <point x="139" y="-12"/>
      <point x="316" y="-12" type="curve" smooth="yes"/>
      <point x="463" y="-12"/>
      <point x="559" y="67"/>
      <point x="559" y="209" type="curve" smooth="yes"/>
      <point x="559" y="271"/>
      <point x="549" y="299"/>
      <point x="549" y="371" type="curve" smooth="yes"/>
      <point x="549" y="441"/>
      <point x="575" y="486"/>
      <point x="647" y="486" type="curve" smooth="yes"/>
      <point x="676" y="486"/>
      <point x="698" y="477"/>
      <point x="713" y="460" type="curve" smooth="yes"/>
      <point x="733" y="438"/>
      <point x="742" y="400"/>
      <point x="742" y="336" type="curve" smooth="yes"/>
      <point x="742" y="204" type="line" smooth="yes"/>
      <point x="742" y="117"/>
      <point x="762" y="72"/>
      <point x="793" y="39" type="curve" smooth="yes"/>
      <point x="828" y="2"/>
      <point x="871" y="-12"/>
    </contour>
  </outline>
</glyph>
<glyph name="lvocalicknda" format="2">
  <advance width="846"/>
  <unicode hex="0C8C"/>
  <outline>
    <contour>
      <point x="451" y="-12" type="curve" smooth="yes"/>
      <point x="669" y="-12"/>
      <point x="807" y="99"/>
      <point x="807" y="289" type="curve" smooth="yes"/>
      <point x="807" y="375"/>
      <point x="784" y="463"/>
      <point x="706" y="563" type="curve"/>
      <point x="635" y="519" type="line"/>
      <point x="696" y="453"/>
      <point x="725" y="373"/>
      <point x="725" y="287" type="curve" smooth="yes"/>
      <point x="725" y="144"/>
      <point x="621" y="67"/>
      <point x="456" y="67" type="curve" smooth="yes"/>
      <point x="341" y="67"/>
      <point x="299" y="102"/>
      <point x="299" y="156" type="curve" smooth="yes"/>
      <point x="299" y="204"/>
      <point x="343" y="220"/>
      <point x="426" y="242" type="curve" smooth="yes"/>
      <point x="539" y="271"/>
      <point x="604" y="312"/>
      <point x="604" y="414" type="curve" smooth="yes"/>
      <point x="604" y="500"/>
      <point x="554" y="563"/>
      <point x="459" y="563" type="curve" smooth="yes"/>
      <point x="389" y="563"/>
      <point x="335" y="528"/>
      <point x="298" y="448" type="curve"/>
      <point x="326" y="448" type="line"/>
      <point x="293" y="526"/>
      <point x="239" y="563"/>
      <point x="173" y="563" type="curve" smooth="yes"/>
      <point x="89" y="563"/>
      <point x="26" y="506"/>
      <point x="26" y="423" type="curve" smooth="yes"/>
      <point x="26" y="380"/>
      <point x="37" y="349"/>
      <point x="49" y="324" type="curve"/>
      <point x="125" y="349" type="line"/>
      <point x="117" y="364"/>
      <point x="108" y="391"/>
      <point x="108" y="416" type="curve" smooth="yes"/>
      <point x="108" y="454"/>
      <point x="130" y="484"/>
      <point x="178" y="484" type="curve" smooth="yes"/>
      <point x="224" y="484"/>
      <point x="258" y="444"/>
      <point x="274" y="377" type="curve"/>
      <point x="353" y="377" type="line"/>
      <point x="366" y="439"/>
      <point x="398" y="484"/>
      <point x="453" y="484" type="curve" smooth="yes"/>
      <point x="494" y="484"/>
      <point x="522" y="461"/>
      <point x="522" y="414" type="curve" smooth="yes"/>
      <point x="522" y="346"/>
      <point x="475" y="329"/>
      <point x="384" y="306" type="curve" smooth="yes"/>
      <point x="285" y="281"/>
      <point x="218" y="244"/>
      <point x="218" y="154" type="curve" smooth="yes"/>
      <point x="218" y="43"/>
      <point x="310" y="-12"/>
    </contour>
  </outline>
</glyph>
<glyph name="eeknda" format="2">
  <advance width="787"/>
  <unicode hex="0C8F"/>
  <outline>
    <contour>
      <point x="575" y="-12" type="curve" smooth="yes"/>
      <point x="667" y="-12"/>
      <point x="750" y="52"/>
      <point x="750" y="207" type="curve" smooth="yes"/>
      <point x="750" y="372"/>
      <point x="657" y="537"/>
      <point x="373" y="583" type="curve"/>
      <point x="359" y="492"/>
      <point x="323" y="458"/>
      <point x="267" y="458" type="curve" smooth="yes"/>
      <point x="214" y="458"/>
      <point x="181" y="485"/>
      <point x="175" y="583" type="curve"/>
      <point x="98" y="575" type="line"/>
      <point x="100" y="422"/>
      <point x="193" y="383"/>
      <point x="267" y="383" type="curve" smooth="yes"/>
      <point x="336" y="383"/>
      <point x="396" y="414"/>
      <point x="431" y="493" type="curve"/>
      <point x="420" y="491" type="line"/>
      <point x="542" y="456"/>
      <point x="668" y="384"/>
      <point x="668" y="206" type="curve" smooth="yes"/>
      <point x="668" y="123"/>
      <point x="640" y="67"/>
      <point x="568" y="67" type="curve" smooth="yes"/>
      <point x="504" y="67"/>
      <point x="453" y="106"/>
      <point x="446" y="195" type="curve"/>
      <point x="370" y="195" type="line"/>
      <point x="363" y="118"/>
      <point x="324" y="67"/>
      <point x="232" y="67" type="curve" smooth="yes"/>
      <point x="146" y="67"/>
      <point x="106" y="110"/>
      <point x="106" y="170" type="curve" smooth="yes"/>
      <point x="106" y="225"/>
      <point x="136" y="254"/>
      <point x="178" y="254" type="curve" smooth="yes"/>
      <point x="206" y="254"/>
      <point x="223" y="239"/>
      <point x="223" y="210" type="curve" smooth="yes"/>
      <point x="223" y="200"/>
      <point x="220" y="188"/>
      <point x="217" y="178" type="curve"/>
      <point x="285" y="172" type="line"/>
      <point x="294" y="186"/>
      <point x="298" y="210"/>
      <point x="298" y="231" type="curve" smooth="yes"/>
      <point x="298" y="288"/>
      <point x="251" y="324"/>
      <point x="181" y="324" type="curve" smooth="yes"/>
      <point x="84" y="324"/>
      <point x="29" y="254"/>
      <point x="29" y="167" type="curve" smooth="yes"/>
      <point x="29" y="58"/>
      <point x="111" y="-12"/>
      <point x="224" y="-12" type="curve" smooth="yes"/>
      <point x="313" y="-12"/>
      <point x="372" y="9"/>
      <point x="425" y="105" type="curve"/>
      <point x="394" y="101" type="line"/>
      <point x="438" y="28"/>
      <point x="472" y="-12"/>
    </contour>
  </outline>
</glyph>
<glyph name="aiknda" format="2">
  <advance width="807"/>
  <unicode hex="0C90"/>
  <outline>
    <contour>
      <point x="574" y="-12" type="curve" smooth="yes"/>
      <point x="678" y="-12"/>
      <point x="765" y="59"/>
      <point x="765" y="252" type="curve" smooth="yes"/>
      <point x="765" y="455"/>
      <point x="671" y="563"/>
      <point x="543" y="563" type="curve" smooth="yes"/>
      <point x="481" y="563"/>
      <point x="420" y="535"/>
      <point x="376" y="463" type="curve"/>
      <point x="385" y="464" type="line"/>
      <point x="343" y="532"/>
      <point x="285" y="563"/>
      <point x="210" y="563" type="curve" smooth="yes"/>
      <point x="108" y="563"/>
      <point x="49" y="506"/>
      <point x="49" y="425" type="curve" smooth="yes"/>
      <point x="49" y="398"/>
      <point x="54" y="375"/>
      <point x="61" y="356" type="curve"/>
      <point x="139" y="375" type="line"/>
      <point x="134" y="388"/>
      <point x="131" y="403"/>
      <point x="131" y="421" type="curve" smooth="yes"/>
      <point x="131" y="457"/>
      <point x="151" y="484"/>
      <point x="211" y="484" type="curve" smooth="yes"/>
      <point x="281" y="484"/>
      <point x="326" y="441"/>
      <point x="339" y="372" type="curve"/>
      <point x="417" y="372" type="line"/>
      <point x="428" y="433"/>
      <point x="467" y="484"/>
      <point x="537" y="484" type="curve" smooth="yes"/>
      <point x="633" y="484"/>
      <point x="683" y="391"/>
      <point x="683" y="251" type="curve" smooth="yes"/>
      <point x="683" y="132"/>
      <point x="651" y="67"/>
      <point x="566" y="67" type="curve" smooth="yes"/>
      <point x="512" y="67"/>
      <point x="458" y="106"/>
      <point x="451" y="195" type="curve"/>
      <point x="375" y="195" type="line"/>
      <point x="368" y="118"/>
      <point x="329" y="67"/>
      <point x="237" y="67" type="curve" smooth="yes"/>
      <point x="151" y="67"/>
      <point x="111" y="110"/>
      <point x="111" y="170" type="curve" smooth="yes"/>
      <point x="111" y="225"/>
      <point x="141" y="254"/>
      <point x="183" y="254" type="curve" smooth="yes"/>
      <point x="211" y="254"/>
      <point x="228" y="239"/>
      <point x="228" y="210" type="curve" smooth="yes"/>
      <point x="228" y="200"/>
      <point x="225" y="186"/>
      <point x="222" y="178" type="curve"/>
      <point x="290" y="172" type="line"/>
      <point x="299" y="186"/>
      <point x="303" y="210"/>
      <point x="303" y="231" type="curve" smooth="yes"/>
      <point x="303" y="288"/>
      <point x="256" y="324"/>
      <point x="186" y="324" type="curve" smooth="yes"/>
      <point x="90" y="324"/>
      <point x="34" y="254"/>
      <point x="34" y="167" type="curve" smooth="yes"/>
      <point x="34" y="58"/>
      <point x="116" y="-12"/>
      <point x="229" y="-12" type="curve" smooth="yes"/>
      <point x="318" y="-12"/>
      <point x="377" y="9"/>
      <point x="430" y="105" type="curve"/>
      <point x="398" y="102" type="line"/>
      <point x="441" y="29"/>
      <point x="479" y="-12"/>
    </contour>
  </outline>
</glyph>
<glyph name="oknda" format="2">
  <advance width="775"/>
  <unicode hex="0C92"/>
  <outline>
    <contour>
      <point x="561" y="-12" type="curve" smooth="yes"/>
      <point x="688" y="-12"/>
      <point x="745" y="58"/>
      <point x="745" y="160" type="curve" smooth="yes"/>
      <point x="745" y="221"/>
      <point x="725" y="269"/>
      <point x="691" y="313" type="curve"/>
      <point x="620" y="267" type="line"/>
      <point x="647" y="236"/>
      <point x="663" y="199"/>
      <point x="663" y="158" type="curve" smooth="yes"/>
      <point x="663" y="110"/>
      <point x="634" y="67"/>
      <point x="561" y="67" type="curve" smooth="yes"/>
      <point x="496" y="67"/>
      <point x="440" y="106"/>
      <point x="434" y="195" type="curve"/>
      <point x="358" y="195" type="line"/>
      <point x="352" y="118"/>
      <point x="312" y="67"/>
      <point x="223" y="67" type="curve" smooth="yes"/>
      <point x="169" y="67"/>
      <point x="131" y="89"/>
      <point x="131" y="141" type="curve" smooth="yes"/>
      <point x="131" y="190"/>
      <point x="162" y="214"/>
      <point x="224" y="254" type="curve" smooth="yes"/>
      <point x="304" y="306"/>
      <point x="352" y="350"/>
      <point x="352" y="423" type="curve" smooth="yes"/>
      <point x="352" y="488"/>
      <point x="315" y="563"/>
      <point x="191" y="563" type="curve" smooth="yes"/>
      <point x="79" y="563"/>
      <point x="26" y="500"/>
      <point x="26" y="431" type="curve" smooth="yes"/>
      <point x="26" y="397"/>
      <point x="36" y="365"/>
      <point x="57" y="332" type="curve"/>
      <point x="127" y="363" type="line"/>
      <point x="114" y="382"/>
      <point x="107" y="401"/>
      <point x="107" y="422" type="curve" smooth="yes"/>
      <point x="107" y="463"/>
      <point x="133" y="490"/>
      <point x="190" y="490" type="curve" smooth="yes"/>
      <point x="249" y="490"/>
      <point x="271" y="464"/>
      <point x="271" y="422" type="curve" smooth="yes"/>
      <point x="271" y="379"/>
      <point x="238" y="354"/>
      <point x="187" y="321" type="curve" smooth="yes"/>
      <point x="100" y="266"/>
      <point x="49" y="222"/>
      <point x="49" y="136" type="curve" smooth="yes"/>
      <point x="49" y="62"/>
      <point x="105" y="-12"/>
      <point x="218" y="-12" type="curve" smooth="yes"/>
      <point x="309" y="-12"/>
      <point x="364" y="15"/>
      <point x="411" y="104" type="curve"/>
      <point x="380" y="104" type="line"/>
      <point x="426" y="20"/>
      <point x="479" y="-12"/>
    </contour>
  </outline>
</glyph>
<glyph name="ooknda" format="2">
  <advance width="775"/>
  <unicode hex="0C93"/>
  <outline>
    <contour>
      <point x="145" y="531" type="curve"/>
      <point x="217" y="558" type="line"/>
      <point x="173" y="584"/>
      <point x="145" y="613"/>
      <point x="145" y="649" type="curve" smooth="yes"/>
      <point x="145" y="686"/>
      <point x="172" y="705"/>
      <point x="237" y="707" type="curve"/>
      <point x="229" y="785" type="line"/>
      <point x="108" y="781"/>
      <point x="66" y="725"/>
      <point x="66" y="658" type="curve" smooth="yes"/>
      <point x="66" y="608"/>
      <point x="97" y="567"/>
    </contour>
    <component base="oknda"/>
  </outline>
</glyph>
<glyph name="auknda" format="2">
  <advance width="778"/>
  <unicode hex="0C94"/>
  <outline>
    <contour>
      <point x="561" y="-12" type="curve" smooth="yes"/>
      <point x="688" y="-12"/>
      <point x="745" y="58"/>
      <point x="745" y="160" type="curve" smooth="yes"/>
      <point x="745" y="221"/>
      <point x="725" y="269"/>
      <point x="691" y="313" type="curve"/>
      <point x="620" y="267" type="line"/>
      <point x="647" y="236"/>
      <point x="663" y="199"/>
      <point x="663" y="158" type="curve" smooth="yes"/>
      <point x="663" y="110"/>
      <point x="634" y="67"/>
      <point x="561" y="67" type="curve" smooth="yes"/>
      <point x="497" y="67"/>
      <point x="440" y="106"/>
      <point x="434" y="195" type="curve"/>
      <point x="358" y="195" type="line"/>
      <point x="352" y="118"/>
      <point x="312" y="67"/>
      <point x="223" y="67" type="curve" smooth="yes"/>
      <point x="170" y="67"/>
      <point x="131" y="89"/>
      <point x="131" y="141" type="curve" smooth="yes"/>
      <point x="131" y="190"/>
      <point x="162" y="214"/>
      <point x="224" y="254" type="curve" smooth="yes"/>
      <point x="304" y="306"/>
      <point x="352" y="350"/>
      <point x="352" y="423" type="curve" smooth="yes"/>
      <point x="352" y="488"/>
      <point x="311" y="563"/>
      <point x="191" y="563" type="curve" smooth="yes"/>
      <point x="80" y="563"/>
      <point x="26" y="500"/>
      <point x="26" y="431" type="curve" smooth="yes"/>
      <point x="26" y="397"/>
      <point x="36" y="365"/>
      <point x="57" y="332" type="curve"/>
      <point x="127" y="363" type="line"/>
      <point x="114" y="382"/>
      <point x="107" y="401"/>
      <point x="107" y="422" type="curve" smooth="yes"/>
      <point x="107" y="463"/>
      <point x="133" y="490"/>
      <point x="190" y="490" type="curve" smooth="yes"/>
      <point x="249" y="490"/>
      <point x="271" y="464"/>
      <point x="271" y="422" type="curve" smooth="yes"/>
      <point x="271" y="379"/>
      <point x="238" y="354"/>
      <point x="187" y="321" type="curve" smooth="yes"/>
      <point x="101" y="266"/>
      <point x="49" y="222"/>
      <point x="49" y="136" type="curve" smooth="yes"/>
      <point x="49" y="62"/>
      <point x="105" y="-12"/>
      <point x="218" y="-12" type="curve" smooth="yes"/>
      <point x="310" y="-12"/>
      <point x="364" y="15"/>
      <point x="411" y="104" type="curve"/>
      <point x="380" y="104" type="line"/>
      <point x="426" y="20"/>
      <point x="480" y="-12"/>
    </contour>
    <contour>
      <point x="72" y="498" type="line"/>
      <point x="168" y="498" type="line" smooth="yes"/>
      <point x="222" y="498"/>
      <point x="258" y="503"/>
      <point x="285" y="516" type="curve" smooth="yes"/>
      <point x="338" y="541"/>
      <point x="357" y="575"/>
      <point x="357" y="621" type="curve" smooth="yes"/>
      <point x="357" y="662"/>
      <point x="341" y="692"/>
      <point x="323" y="716" type="curve"/>
      <point x="239" y="709" type="line"/>
      <point x="264" y="681"/>
      <point x="276" y="654"/>
      <point x="276" y="625" type="curve" smooth="yes"/>
      <point x="276" y="607"/>
      <point x="272" y="591"/>
      <point x="255" y="579" type="curve" smooth="yes"/>
      <point x="240" y="569"/>
      <point x="220" y="563"/>
      <point x="166" y="563" type="curve" smooth="yes"/>
      <point x="72" y="563" type="line"/>
    </contour>
    <contour>
      <point x="547" y="326" type="curve" smooth="yes"/>
      <point x="663" y="326"/>
      <point x="738" y="402"/>
      <point x="738" y="531" type="curve" smooth="yes"/>
      <point x="738" y="608"/>
      <point x="715" y="668"/>
      <point x="675" y="708" type="curve" smooth="yes"/>
      <point x="626" y="757"/>
      <point x="557" y="782"/>
      <point x="436" y="782" type="curve" smooth="yes"/>
      <point x="41" y="782" type="line"/>
      <point x="41" y="705" type="line"/>
      <point x="424" y="705" type="line" smooth="yes"/>
      <point x="532" y="705"/>
      <point x="573" y="688"/>
      <point x="608" y="656" type="curve" smooth="yes"/>
      <point x="640" y="627"/>
      <point x="657" y="585"/>
      <point x="657" y="531" type="curve" smooth="yes"/>
      <point x="657" y="439"/>
      <point x="614" y="396"/>
      <point x="546" y="396" type="curve" smooth="yes"/>
      <point x="484" y="396"/>
      <point x="461" y="436"/>
      <point x="461" y="483" type="curve" smooth="yes"/>
      <point x="461" y="502"/>
      <point x="465" y="516"/>
      <point x="474" y="540" type="curve"/>
      <point x="466" y="530" type="line"/>
      <point x="466" y="495"/>
      <point x="485" y="475"/>
      <point x="522" y="475" type="curve" smooth="yes"/>
      <point x="552" y="475"/>
      <point x="574" y="499"/>
      <point x="574" y="535" type="curve" smooth="yes"/>
      <point x="574" y="575"/>
      <point x="547" y="600"/>
      <point x="499" y="600" type="curve" smooth="yes"/>
      <point x="440" y="600"/>
      <point x="393" y="559"/>
      <point x="393" y="476" type="curve" smooth="yes"/>
      <point x="393" y="393"/>
      <point x="450" y="326"/>
    </contour>
  </outline>
</glyph>
<glyph name="kaknda" format="2">
  <advance width="574"/>
  <unicode hex="0C95"/>
  <outline>
    <contour>
      <point x="283" y="-12" type="curve" smooth="yes"/>
      <point x="438" y="-12"/>
      <point x="516" y="63"/>
      <point x="516" y="174" type="curve" smooth="yes"/>
      <point x="516" y="242"/>
      <point x="477" y="295"/>
      <point x="420" y="318" type="curve"/>
      <point x="405" y="308" type="line"/>
      <point x="539" y="306" type="line"/>
      <point x="539" y="375" type="line"/>
      <point x="336" y="375" type="line"/>
      <point x="344" y="387"/>
      <point x="349" y="402"/>
      <point x="349" y="423" type="curve" smooth="yes"/>
      <point x="349" y="438"/>
      <point x="343" y="457"/>
      <point x="333" y="475" type="curve"/>
      <point x="298" y="487" type="line"/>
      <point x="253" y="475" type="line"/>
      <point x="263" y="460"/>
      <point x="270" y="443"/>
      <point x="270" y="424" type="curve" smooth="yes"/>
      <point x="270" y="403"/>
      <point x="259" y="386"/>
      <point x="244" y="375" type="curve"/>
      <point x="36" y="375" type="line"/>
      <point x="36" y="306" type="line"/>
      <point x="166" y="307" type="line"/>
      <point x="152" y="321" type="line"/>
      <point x="90" y="289"/>
      <point x="58" y="236"/>
      <point x="58" y="172" type="curve" smooth="yes"/>
      <point x="58" y="62"/>
      <point x="142" y="-12"/>
    </contour>
    <contour>
      <point x="287" y="66" type="curve" smooth="yes"/>
      <point x="187" y="66"/>
      <point x="138" y="113"/>
      <point x="138" y="184" type="curve" smooth="yes"/>
      <point x="138" y="255"/>
      <point x="186" y="306"/>
      <point x="287" y="306" type="curve" smooth="yes"/>
      <point x="385" y="306"/>
      <point x="436" y="258"/>
      <point x="436" y="184" type="curve" smooth="yes"/>
      <point x="436" y="119"/>
      <point x="394" y="66"/>
    </contour>
    <contour>
      <point x="36" y="474" type="line"/>
      <point x="352" y="474" type="line"/>
      <point x="429" y="474"/>
      <point x="470" y="486"/>
      <point x="504" y="516" type="curve" smooth="yes"/>
      <point x="538" y="545"/>
      <point x="545" y="586"/>
      <point x="545" y="612" type="curve" smooth="yes"/>
      <point x="545" y="669"/>
      <point x="526" y="720"/>
      <point x="464" y="790" type="curve"/>
      <point x="399" y="747" type="line"/>
      <point x="443" y="703"/>
      <point x="464" y="662"/>
      <point x="464" y="618" type="curve" smooth="yes"/>
      <point x="464" y="599"/>
      <point x="459" y="582"/>
      <point x="442" y="569" type="curve" smooth="yes"/>
      <point x="428" y="558"/>
      <point x="406" y="551"/>
      <point x="334" y="551" type="curve" smooth="yes"/>
      <point x="36" y="551" type="line"/>
    </contour>
  </outline>
</glyph>
<glyph name="khaknda" format="2">
  <advance width="849"/>
  <unicode hex="0C96"/>
  <outline>
    <contour>
      <point x="594" y="-12" type="curve" smooth="yes"/>
      <point x="743" y="-12"/>
      <point x="812" y="94"/>
      <point x="812" y="235" type="curve" smooth="yes"/>
      <point x="812" y="425"/>
      <point x="686" y="556"/>
      <point x="513" y="629" type="curve"/>
      <point x="470" y="551" type="line"/>
      <point x="624" y="492"/>
      <point x="730" y="388"/>
      <point x="730" y="234" type="curve" smooth="yes"/>
      <point x="730" y="131"/>
      <point x="684" y="67"/>
      <point x="596" y="67" type="curve" smooth="yes"/>
      <point x="529" y="67"/>
      <point x="484" y="100"/>
      <point x="400" y="166" type="curve" smooth="yes"/>
      <point x="381" y="180" type="line" smooth="yes"/>
      <point x="326" y="221"/>
      <point x="265" y="257"/>
      <point x="180" y="257" type="curve" smooth="yes"/>
      <point x="72" y="257"/>
      <point x="24" y="193"/>
      <point x="24" y="130" type="curve" smooth="yes"/>
      <point x="24" y="38"/>
      <point x="89" y="-12"/>
      <point x="189" y="-12" type="curve" smooth="yes"/>
      <point x="282" y="-12"/>
      <point x="362" y="26"/>
      <point x="416" y="110" type="curve"/>
      <point x="450" y="160"/>
      <point x="468" y="226"/>
      <point x="468" y="305" type="curve" smooth="yes"/>
      <point x="468" y="449"/>
      <point x="395" y="563"/>
      <point x="247" y="563" type="curve" smooth="yes"/>
      <point x="159" y="563"/>
      <point x="86" y="510"/>
      <point x="86" y="416" type="curve" smooth="yes"/>
      <point x="86" y="340"/>
      <point x="135" y="300"/>
      <point x="194" y="300" type="curve" smooth="yes"/>
      <point x="243" y="300"/>
      <point x="269" y="327"/>
      <point x="269" y="365" type="curve" smooth="yes"/>
      <point x="269" y="402"/>
      <point x="247" y="424"/>
      <point x="216" y="424" type="curve" smooth="yes"/>
      <point x="180" y="424"/>
      <point x="160" y="402"/>
      <point x="160" y="354" type="curve"/>
      <point x="182" y="364" type="line"/>
      <point x="162" y="375"/>
      <point x="158" y="400"/>
      <point x="158" y="415" type="curve" smooth="yes"/>
      <point x="158" y="469"/>
      <point x="198" y="491"/>
      <point x="248" y="491" type="curve" smooth="yes"/>
      <point x="332" y="491"/>
      <point x="386" y="419"/>
      <point x="386" y="300" type="curve" smooth="yes"/>
      <point x="386" y="169"/>
      <point x="334" y="63"/>
      <point x="190" y="63" type="curve" smooth="yes"/>
      <point x="125" y="63"/>
      <point x="104" y="96"/>
      <point x="104" y="128" type="curve" smooth="yes"/>
      <point x="104" y="158"/>
      <point x="125" y="187"/>
      <point x="180" y="187" type="curve" smooth="yes"/>
      <point x="250" y="187"/>
      <point x="302" y="147"/>
      <point x="355" y="104" type="curve" smooth="yes"/>
      <point x="360" y="100"/>
      <point x="365" y="96"/>
      <point x="371" y="91" type="curve" smooth="yes"/>
      <point x="429" y="43"/>
      <point x="502" y="-12"/>
    </contour>
  </outline>
</glyph>
<glyph name="gaknda" format="2">
  <advance width="648"/>
  <unicode hex="0C97"/>
  <outline>
    <contour>
      <point x="326" y="476" type="curve" smooth="yes"/>
      <point x="404" y="476"/>
      <point x="448" y="422"/>
      <point x="480" y="336" type="curve" smooth="yes"/>
      <point x="499" y="285"/>
      <point x="507" y="209"/>
      <point x="507" y="110" type="curve" smooth="yes"/>
      <point x="507" y="0" type="line"/>
      <point x="598" y="0" type="line"/>
      <point x="598" y="130" type="line" smooth="yes"/>
      <point x="598" y="268"/>
      <point x="580" y="396"/>
      <point x="467" y="481" type="curve"/>
      <point x="461" y="477" type="line"/>
      <point x="540" y="484"/>
      <point x="598" y="533"/>
      <point x="598" y="612" type="curve" smooth="yes"/>
      <point x="598" y="669"/>
      <point x="579" y="720"/>
      <point x="517" y="790" type="curve"/>
      <point x="452" y="747" type="line"/>
      <point x="496" y="703"/>
      <point x="517" y="662"/>
      <point x="517" y="618" type="curve" smooth="yes"/>
      <point x="517" y="599"/>
      <point x="512" y="582"/>
      <point x="495" y="569" type="curve" smooth="yes"/>
      <point x="480" y="558"/>
      <point x="458" y="551"/>
      <point x="386" y="551" type="curve" smooth="yes"/>
      <point x="47" y="551" type="line"/>
      <point x="47" y="474" type="line"/>
      <point x="215" y="474" type="line"/>
      <point x="198" y="489" type="line"/>
      <point x="80" y="422"/>
      <point x="50" y="284"/>
      <point x="50" y="127" type="curve" smooth="yes"/>
      <point x="50" y="0" type="line"/>
      <point x="141" y="0" type="line"/>
      <point x="141" y="110" type="line" smooth="yes"/>
      <point x="141" y="207"/>
      <point x="148" y="274"/>
      <point x="164" y="324" type="curve" smooth="yes"/>
      <point x="192" y="409"/>
      <point x="237" y="476"/>
    </contour>
  </outline>
</glyph>
<glyph name="ghaknda" format="2">
  <advance width="996"/>
  <unicode hex="0C98"/>
  <outline>
    <contour>
      <point x="226" y="-12" type="curve" smooth="yes"/>
      <point x="315" y="-12"/>
      <point x="374" y="9"/>
      <point x="427" y="105" type="curve"/>
      <point x="396" y="101" type="line"/>
      <point x="440" y="28"/>
      <point x="474" y="-12"/>
      <point x="577" y="-12" type="curve" smooth="yes"/>
      <point x="669" y="-12"/>
      <point x="751" y="53"/>
      <point x="751" y="170" type="curve" smooth="yes"/>
      <point x="751" y="230"/>
      <point x="714" y="271"/>
      <point x="653" y="327" type="curve"/>
      <point x="661" y="381" type="line"/>
      <point x="591" y="334" type="line"/>
      <point x="647" y="278"/>
      <point x="670" y="228"/>
      <point x="670" y="167" type="curve" smooth="yes"/>
      <point x="670" y="120"/>
      <point x="642" y="67"/>
      <point x="570" y="67" type="curve" smooth="yes"/>
      <point x="506" y="67"/>
      <point x="455" y="106"/>
      <point x="448" y="195" type="curve"/>
      <point x="372" y="195" type="line"/>
      <point x="365" y="118"/>
      <point x="326" y="67"/>
      <point x="234" y="67" type="curve" smooth="yes"/>
      <point x="148" y="67"/>
      <point x="108" y="110"/>
      <point x="108" y="170" type="curve" smooth="yes"/>
      <point x="108" y="225"/>
      <point x="138" y="254"/>
      <point x="180" y="254" type="curve" smooth="yes"/>
      <point x="208" y="254"/>
      <point x="225" y="239"/>
      <point x="225" y="210" type="curve" smooth="yes"/>
      <point x="225" y="200"/>
      <point x="222" y="188"/>
      <point x="219" y="178" type="curve"/>
      <point x="287" y="172" type="line"/>
      <point x="296" y="186"/>
      <point x="300" y="210"/>
      <point x="300" y="231" type="curve" smooth="yes"/>
      <point x="300" y="288"/>
      <point x="253" y="324"/>
      <point x="183" y="324" type="curve" smooth="yes"/>
      <point x="87" y="324"/>
      <point x="31" y="254"/>
      <point x="31" y="167" type="curve" smooth="yes"/>
      <point x="31" y="58"/>
      <point x="113" y="-12"/>
    </contour>
    <contour>
      <point x="364" y="-144" type="line"/>
      <point x="457" y="-144" type="line"/>
      <point x="449" y="15" type="line"/>
      <point x="372" y="15" type="line"/>
    </contour>
    <contour>
      <point x="401" y="297" type="curve" smooth="yes"/>
      <point x="434" y="297"/>
      <point x="460" y="323"/>
      <point x="460" y="355" type="curve" smooth="yes"/>
      <point x="460" y="389"/>
      <point x="434" y="415"/>
      <point x="401" y="415" type="curve" smooth="yes"/>
      <point x="369" y="415"/>
      <point x="344" y="389"/>
      <point x="344" y="355" type="curve" smooth="yes"/>
      <point x="344" y="323"/>
      <point x="369" y="297"/>
    </contour>
    <contour>
      <point x="31" y="474" type="line"/>
      <point x="583" y="474" type="line" smooth="yes"/>
      <point x="660" y="474"/>
      <point x="701" y="486"/>
      <point x="736" y="516" type="curve" smooth="yes"/>
      <point x="769" y="545"/>
      <point x="777" y="586"/>
      <point x="777" y="612" type="curve" smooth="yes"/>
      <point x="777" y="669"/>
      <point x="758" y="720"/>
      <point x="696" y="790" type="curve"/>
      <point x="631" y="747" type="line"/>
      <point x="675" y="703"/>
      <point x="696" y="662"/>
      <point x="696" y="618" type="curve" smooth="yes"/>
      <point x="696" y="599"/>
      <point x="691" y="582"/>
      <point x="674" y="569" type="curve" smooth="yes"/>
      <point x="659" y="558"/>
      <point x="637" y="551"/>
      <point x="565" y="551" type="curve" smooth="yes"/>
      <point x="31" y="551" type="line"/>
    </contour>
    <contour>
      <point x="817" y="206" type="curve" smooth="yes"/>
      <point x="897" y="206"/>
      <point x="969" y="250"/>
      <point x="969" y="354" type="curve" smooth="yes"/>
      <point x="969" y="443"/>
      <point x="919" y="514"/>
      <point x="853" y="564" type="curve"/>
      <point x="799" y="501" type="line"/>
      <point x="854" y="463"/>
      <point x="888" y="413"/>
      <point x="888" y="353" type="curve" smooth="yes"/>
      <point x="888" y="312"/>
      <point x="866" y="276"/>
      <point x="809" y="276" type="curve" smooth="yes"/>
      <point x="745" y="276"/>
      <point x="712" y="310"/>
      <point x="661" y="381" type="curve"/>
      <point x="646" y="315" type="line"/>
      <point x="711" y="234"/>
      <point x="750" y="206"/>
    </contour>
  </outline>
</glyph>
<glyph name="chaknda" format="2">
  <advance width="843"/>
  <unicode hex="0C9B"/>
  <outline>
    <contour>
      <point x="252" y="-12" type="curve" smooth="yes"/>
      <point x="344" y="-12"/>
      <point x="398" y="15"/>
      <point x="450" y="104" type="curve"/>
      <point x="417" y="105" type="line"/>
      <point x="464" y="20"/>
      <point x="518" y="-12"/>
      <point x="595" y="-12" type="curve" smooth="yes"/>
      <point x="726" y="-12"/>
      <point x="802" y="79"/>
      <point x="802" y="215" type="curve" smooth="yes"/>
      <point x="802" y="337"/>
      <point x="747" y="421"/>
      <point x="652" y="481" type="curve"/>
      <point x="514" y="477" type="line"/>
      <point x="638" y="440"/>
      <point x="720" y="341"/>
      <point x="720" y="210" type="curve" smooth="yes"/>
      <point x="720" y="123"/>
      <point x="672" y="67"/>
      <point x="599" y="67" type="curve" smooth="yes"/>
      <point x="534" y="67"/>
      <point x="478" y="106"/>
      <point x="472" y="195" type="curve"/>
      <point x="396" y="195" type="line"/>
      <point x="387" y="126"/>
      <point x="342" y="67"/>
      <point x="251" y="67" type="curve" smooth="yes"/>
      <point x="187" y="67"/>
      <point x="124" y="111"/>
      <point x="124" y="252" type="curve" smooth="yes"/>
      <point x="124" y="435"/>
      <point x="199" y="493"/>
      <point x="261" y="493" type="curve" smooth="yes"/>
      <point x="300" y="493"/>
      <point x="327" y="469"/>
      <point x="327" y="426" type="curve" smooth="yes"/>
      <point x="327" y="381"/>
      <point x="296" y="348"/>
      <point x="226" y="348" type="curve" smooth="yes"/>
      <point x="162" y="348"/>
      <point x="125" y="390"/>
      <point x="106" y="414" type="curve"/>
      <point x="82" y="348" type="line"/>
      <point x="109" y="316"/>
      <point x="158" y="278"/>
      <point x="232" y="278" type="curve" smooth="yes"/>
      <point x="345" y="278"/>
      <point x="405" y="343"/>
      <point x="405" y="429" type="curve" smooth="yes"/>
      <point x="405" y="512"/>
      <point x="351" y="563"/>
      <point x="263" y="563" type="curve" smooth="yes"/>
      <point x="140" y="563"/>
      <point x="42" y="453"/>
      <point x="42" y="255" type="curve" smooth="yes"/>
      <point x="42" y="78"/>
      <point x="130" y="-12"/>
    </contour>
    <contour>
      <point x="388" y="-144" type="line"/>
      <point x="481" y="-144" type="line"/>
      <point x="473" y="15" type="line"/>
      <point x="396" y="15" type="line"/>
    </contour>
    <contour>
      <point x="469" y="474" type="line"/>
      <point x="600" y="474" type="line" smooth="yes"/>
      <point x="676" y="474"/>
      <point x="717" y="486"/>
      <point x="752" y="516" type="curve" smooth="yes"/>
      <point x="785" y="545"/>
      <point x="793" y="586"/>
      <point x="793" y="612" type="curve" smooth="yes"/>
      <point x="793" y="669"/>
      <point x="774" y="720"/>
      <point x="712" y="790" type="curve"/>
      <point x="647" y="747" type="line"/>
      <point x="691" y="703"/>
      <point x="712" y="662"/>
      <point x="712" y="618" type="curve" smooth="yes"/>
      <point x="712" y="599"/>
      <point x="707" y="582"/>
      <point x="690" y="569" type="curve" smooth="yes"/>
      <point x="675" y="558"/>
      <point x="653" y="551"/>
      <point x="582" y="551" type="curve" smooth="yes"/>
      <point x="469" y="551" type="line"/>
    </contour>
  </outline>
</glyph>
<glyph name="jaknda" format="2">
  <advance width="775"/>
  <unicode hex="0C9C"/>
  <outline>
    <contour>
      <point x="561" y="-12" type="curve" smooth="yes"/>
      <point x="688" y="-12"/>
      <point x="745" y="56"/>
      <point x="745" y="151" type="curve" smooth="yes"/>
      <point x="745" y="210"/>
      <point x="723" y="263"/>
      <point x="691" y="303" type="curve"/>
      <point x="620" y="257" type="line"/>
      <point x="647" y="228"/>
      <point x="663" y="193"/>
      <point x="663" y="155" type="curve" smooth="yes"/>
      <point x="663" y="108"/>
      <point x="636" y="67"/>
      <point x="561" y="67" type="curve" smooth="yes"/>
      <point x="495" y="67"/>
      <point x="440" y="106"/>
      <point x="434" y="195" type="curve"/>
      <point x="358" y="195" type="line"/>
      <point x="352" y="118"/>
      <point x="312" y="67"/>
      <point x="223" y="67" type="curve" smooth="yes"/>
      <point x="169" y="67"/>
      <point x="131" y="89"/>
      <point x="131" y="141" type="curve" smooth="yes"/>
      <point x="131" y="190"/>
      <point x="162" y="214"/>
      <point x="224" y="254" type="curve" smooth="yes"/>
      <point x="304" y="306"/>
      <point x="351" y="351"/>
      <point x="351" y="423" type="curve" smooth="yes"/>
      <point x="351" y="491"/>
      <point x="315" y="563"/>
      <point x="191" y="563" type="curve" smooth="yes"/>
      <point x="79" y="563"/>
      <point x="26" y="500"/>
      <point x="26" y="431" type="curve" smooth="yes"/>
      <point x="26" y="397"/>
      <point x="36" y="365"/>
      <point x="57" y="332" type="curve"/>
      <point x="127" y="363" type="line"/>
      <point x="114" y="382"/>
      <point x="107" y="401"/>
      <point x="107" y="422" type="curve" smooth="yes"/>
      <point x="107" y="463"/>
      <point x="133" y="490"/>
      <point x="190" y="490" type="curve" smooth="yes"/>
      <point x="249" y="490"/>
      <point x="271" y="464"/>
      <point x="271" y="422" type="curve" smooth="yes"/>
      <point x="271" y="379"/>
      <point x="238" y="354"/>
      <point x="187" y="321" type="curve" smooth="yes"/>
      <point x="100" y="266"/>
      <point x="49" y="222"/>
      <point x="49" y="136" type="curve" smooth="yes"/>
      <point x="49" y="62"/>
      <point x="105" y="-12"/>
      <point x="218" y="-12" type="curve" smooth="yes"/>
      <point x="309" y="-12"/>
      <point x="364" y="15"/>
      <point x="411" y="104" type="curve"/>
      <point x="380" y="104" type="line"/>
      <point x="426" y="20"/>
      <point x="479" y="-12"/>
    </contour>
    <contour>
      <point x="517" y="311" type="curve" smooth="yes"/>
      <point x="626" y="311"/>
      <point x="687" y="369"/>
      <point x="687" y="468" type="curve" smooth="yes"/>
      <point x="687" y="501"/>
      <point x="677" y="542"/>
      <point x="665" y="563" type="curve"/>
      <point x="587" y="540" type="line"/>
      <point x="596" y="524"/>
      <point x="605" y="493"/>
      <point x="605" y="464" type="curve" smooth="yes"/>
      <point x="605" y="409"/>
      <point x="568" y="385"/>
      <point x="510" y="385" type="curve" smooth="yes"/>
      <point x="451" y="385"/>
      <point x="385" y="414"/>
      <point x="316" y="511" type="curve"/>
      <point x="278" y="469" type="line"/>
      <point x="296" y="438" type="line"/>
      <point x="332" y="376"/>
      <point x="400" y="311"/>
    </contour>
  </outline>
</glyph>
<glyph name="jhaknda" format="2">
  <advance width="1379"/>
  <unicode hex="0C9D"/>
  <outline>
    <contour>
      <point x="326" y="-12" type="curve" smooth="yes"/>
      <point x="503" y="-12"/>
      <point x="610" y="99"/>
      <point x="610" y="255" type="curve" smooth="yes"/>
      <point x="610" y="370"/>
      <point x="566" y="439"/>
      <point x="491" y="488" type="curve"/>
      <point x="496" y="480" type="line"/>
      <point x="528" y="487"/>
      <point x="551" y="500"/>
      <point x="569" y="516" type="curve" smooth="yes"/>
      <point x="602" y="545"/>
      <point x="610" y="586"/>
      <point x="610" y="612" type="curve" smooth="yes"/>
      <point x="610" y="669"/>
      <point x="591" y="720"/>
      <point x="529" y="790" type="curve"/>
      <point x="464" y="747" type="line"/>
      <point x="508" y="703"/>
      <point x="529" y="662"/>
      <point x="529" y="618" type="curve" smooth="yes"/>
      <point x="529" y="599"/>
      <point x="524" y="582"/>
      <point x="507" y="569" type="curve" smooth="yes"/>
      <point x="492" y="558"/>
      <point x="470" y="551"/>
      <point x="398" y="551" type="curve" smooth="yes"/>
      <point x="42" y="551" type="line"/>
      <point x="42" y="474" type="line"/>
      <point x="186" y="474" type="line"/>
      <point x="168" y="488" type="line"/>
      <point x="90" y="444"/>
      <point x="42" y="368"/>
      <point x="42" y="255" type="curve" smooth="yes"/>
      <point x="42" y="83"/>
      <point x="163" y="-12"/>
    </contour>
    <contour>
      <point x="327" y="69" type="curve" smooth="yes"/>
      <point x="204" y="69"/>
      <point x="124" y="143"/>
      <point x="124" y="272" type="curve" smooth="yes"/>
      <point x="124" y="395"/>
      <point x="204" y="476"/>
      <point x="328" y="476" type="curve" smooth="yes"/>
      <point x="441" y="476"/>
      <point x="528" y="401"/>
      <point x="528" y="272" type="curve" smooth="yes"/>
      <point x="528" y="160"/>
      <point x="462" y="69"/>
    </contour>
    <contour>
      <point x="902" y="-144" type="line"/>
      <point x="995" y="-144" type="line"/>
      <point x="987" y="15" type="line"/>
      <point x="910" y="15" type="line"/>
    </contour>
    <contour>
      <point x="767" y="-12" type="curve" smooth="yes"/>
      <point x="910" y="-12"/>
      <point x="978" y="84"/>
      <point x="978" y="215" type="curve" smooth="yes"/>
      <point x="978" y="381"/>
      <point x="879" y="499"/>
      <point x="743" y="565" type="curve"/>
      <point x="700" y="488" type="line"/>
      <point x="816" y="437"/>
      <point x="896" y="350"/>
      <point x="896" y="210" type="curve" smooth="yes"/>
      <point x="896" y="123"/>
      <point x="850" y="67"/>
      <point x="771" y="67" type="curve" smooth="yes"/>
      <point x="693" y="67"/>
      <point x="639" y="106"/>
      <point x="583" y="177" type="curve"/>
      <point x="532" y="123" type="line"/>
      <point x="593" y="46"/>
      <point x="665" y="-12"/>
    </contour>
    <contour>
      <point x="1131" y="-12" type="curve" smooth="yes"/>
      <point x="1273" y="-12"/>
      <point x="1342" y="84"/>
      <point x="1342" y="215" type="curve" smooth="yes"/>
      <point x="1342" y="381"/>
      <point x="1243" y="499"/>
      <point x="1107" y="565" type="curve"/>
      <point x="1064" y="488" type="line"/>
      <point x="1180" y="437"/>
      <point x="1260" y="350"/>
      <point x="1260" y="210" type="curve" smooth="yes"/>
      <point x="1260" y="123"/>
      <point x="1214" y="67"/>
      <point x="1134" y="67" type="curve" smooth="yes"/>
      <point x="1058" y="67"/>
      <point x="1003" y="106"/>
      <point x="947" y="177" type="curve"/>
      <point x="896" y="123" type="line"/>
      <point x="957" y="46"/>
      <point x="1029" y="-12"/>
    </contour>
  </outline>
</glyph>
<glyph name="nyaknda" format="2">
  <advance width="966"/>
  <unicode hex="0C9E"/>
  <outline>
    <contour>
      <point x="321" y="-12" type="curve" smooth="yes"/>
      <point x="428" y="-12"/>
      <point x="504" y="23"/>
      <point x="559" y="69" type="curve"/>
      <point x="580" y="84" type="line"/>
      <point x="650" y="153"/>
      <point x="674" y="247"/>
      <point x="674" y="324" type="curve" smooth="yes"/>
      <point x="674" y="364"/>
      <point x="667" y="404"/>
      <point x="655" y="438" type="curve" smooth="yes"/>
      <point x="653" y="444"/>
      <point x="647" y="450"/>
      <point x="645" y="456" type="curve" smooth="yes"/>
      <point x="615" y="528"/>
      <point x="559" y="563"/>
      <point x="488" y="563" type="curve" smooth="yes"/>
      <point x="427" y="563"/>
      <point x="361" y="543"/>
      <point x="318" y="441" type="curve"/>
      <point x="349" y="446" type="line"/>
      <point x="306" y="530"/>
      <point x="259" y="563"/>
      <point x="180" y="563" type="curve" smooth="yes"/>
      <point x="95" y="563"/>
      <point x="26" y="507"/>
      <point x="26" y="419" type="curve" smooth="yes"/>
      <point x="26" y="376"/>
      <point x="37" y="344"/>
      <point x="49" y="319" type="curve"/>
      <point x="125" y="343" type="line"/>
      <point x="117" y="359"/>
      <point x="108" y="387"/>
      <point x="108" y="413" type="curve" smooth="yes"/>
      <point x="108" y="455"/>
      <point x="132" y="484"/>
      <point x="186" y="484" type="curve" smooth="yes"/>
      <point x="242" y="484"/>
      <point x="284" y="444"/>
      <point x="294" y="368" type="curve"/>
      <point x="373" y="368" type="line"/>
      <point x="382" y="438"/>
      <point x="421" y="484"/>
      <point x="480" y="484" type="curve" smooth="yes"/>
      <point x="549" y="484"/>
      <point x="592" y="436"/>
      <point x="592" y="324" type="curve" smooth="yes"/>
      <point x="592" y="186"/>
      <point x="522" y="63"/>
      <point x="326" y="63" type="curve" smooth="yes"/>
      <point x="244" y="63"/>
      <point x="210" y="93"/>
      <point x="210" y="141" type="curve" smooth="yes"/>
      <point x="210" y="183"/>
      <point x="247" y="209"/>
      <point x="315" y="209" type="curve" smooth="yes"/>
      <point x="461" y="209"/>
      <point x="541" y="95"/>
      <point x="570" y="-55" type="curve"/>
      <point x="653" y="-39" type="line"/>
      <point x="639" y="28"/>
      <point x="615" y="90"/>
      <point x="574" y="145" type="curve"/>
      <point x="513" y="231"/>
      <point x="430" y="282"/>
      <point x="315" y="282" type="curve" smooth="yes"/>
      <point x="196" y="282"/>
      <point x="129" y="227"/>
      <point x="129" y="140" type="curve" smooth="yes"/>
      <point x="129" y="51"/>
      <point x="190" y="-12"/>
    </contour>
    <contour>
      <point x="786" y="563" type="curve" smooth="yes"/>
      <point x="716" y="563"/>
      <point x="671" y="537"/>
      <point x="632" y="472" type="curve"/>
      <point x="672" y="356" type="line"/>
      <point x="674" y="440"/>
      <point x="723" y="484"/>
      <point x="780" y="484" type="curve" smooth="yes"/>
      <point x="833" y="484"/>
      <point x="857" y="455"/>
      <point x="857" y="413" type="curve" smooth="yes"/>
      <point x="857" y="387"/>
      <point x="848" y="359"/>
      <point x="840" y="343" type="curve"/>
      <point x="916" y="319" type="line"/>
      <point x="928" y="344"/>
      <point x="939" y="376"/>
      <point x="939" y="419" type="curve" smooth="yes"/>
      <point x="939" y="507"/>
      <point x="871" y="563"/>
    </contour>
  </outline>
</glyph>
<glyph name="ttaknda" format="2">
  <advance width="815"/>
  <unicode hex="0C9F"/>
  <outline>
    <contour>
      <point x="243" y="-12" type="curve" smooth="yes"/>
      <point x="337" y="-12"/>
      <point x="390" y="16"/>
      <point x="450" y="103" type="curve"/>
      <point x="417" y="102" type="line"/>
      <point x="463" y="24"/>
      <point x="516" y="-12"/>
      <point x="602" y="-12" type="curve" smooth="yes"/>
      <point x="725" y="-12"/>
      <point x="781" y="58"/>
      <point x="781" y="156" type="curve" smooth="yes"/>
      <point x="781" y="244"/>
      <point x="733" y="312"/>
      <point x="634" y="352" type="curve"/>
      <point x="566" y="307" type="line"/>
      <point x="637" y="293"/>
      <point x="699" y="240"/>
      <point x="699" y="162" type="curve" smooth="yes"/>
      <point x="699" y="110"/>
      <point x="670" y="67"/>
      <point x="597" y="67" type="curve" smooth="yes"/>
      <point x="533" y="67"/>
      <point x="479" y="106"/>
      <point x="471" y="195" type="curve"/>
      <point x="394" y="195" type="line"/>
      <point x="382" y="122"/>
      <point x="342" y="67"/>
      <point x="253" y="67" type="curve" smooth="yes"/>
      <point x="180" y="67"/>
      <point x="120" y="99"/>
      <point x="120" y="205" type="curve" smooth="yes"/>
      <point x="120" y="215" type="line" smooth="yes"/>
      <point x="120" y="309"/>
      <point x="157" y="394"/>
      <point x="241" y="394" type="curve" smooth="yes"/>
      <point x="276" y="394"/>
      <point x="301" y="374"/>
      <point x="301" y="338" type="curve" smooth="yes"/>
      <point x="301" y="302"/>
      <point x="273" y="279"/>
      <point x="208" y="279" type="curve" smooth="yes"/>
      <point x="148" y="279"/>
      <point x="111" y="316"/>
      <point x="94" y="340" type="curve"/>
      <point x="74" y="274" type="line"/>
      <point x="99" y="243"/>
      <point x="145" y="209"/>
      <point x="215" y="209" type="curve" smooth="yes"/>
      <point x="322" y="209"/>
      <point x="379" y="264"/>
      <point x="379" y="342" type="curve" smooth="yes"/>
      <point x="379" y="417"/>
      <point x="325" y="464"/>
      <point x="243" y="464" type="curve" smooth="yes"/>
      <point x="119" y="464"/>
      <point x="40" y="360"/>
      <point x="40" y="216" type="curve" smooth="yes"/>
      <point x="40" y="67"/>
      <point x="123" y="-12"/>
    </contour>
    <contour>
      <point x="189" y="412" type="curve"/>
      <point x="246" y="458" type="line"/>
      <point x="191" y="471"/>
      <point x="164" y="494"/>
      <point x="164" y="525" type="curve" smooth="yes"/>
      <point x="164" y="557"/>
      <point x="190" y="573"/>
      <point x="256" y="575" type="curve"/>
      <point x="248" y="653" type="line"/>
      <point x="127" y="649"/>
      <point x="85" y="597"/>
      <point x="85" y="536" type="curve" smooth="yes"/>
      <point x="85" y="489"/>
      <point x="117" y="435"/>
    </contour>
    <contour>
      <point x="498" y="306" type="line"/>
      <point x="577" y="306" type="line"/>
      <point x="616" y="306"/>
      <point x="626" y="311"/>
      <point x="653" y="320" type="curve" smooth="yes"/>
      <point x="731" y="348"/>
      <point x="762" y="410"/>
      <point x="762" y="469" type="curve" smooth="yes"/>
      <point x="762" y="547"/>
      <point x="708" y="612"/>
      <point x="598" y="636" type="curve"/>
      <point x="570" y="560" type="line"/>
      <point x="659" y="542"/>
      <point x="680" y="504"/>
      <point x="680" y="460" type="curve" smooth="yes"/>
      <point x="680" y="439"/>
      <point x="674" y="420"/>
      <point x="659" y="406" type="curve" smooth="yes"/>
      <point x="641" y="389"/>
      <point x="612" y="381"/>
      <point x="555" y="381" type="curve" smooth="yes"/>
      <point x="498" y="381" type="line"/>
    </contour>
  </outline>
</glyph>
<glyph name="tthaknda" format="2">
  <advance width="651"/>
  <unicode hex="0CA0"/>
  <outline>
    <contour>
      <point x="326" y="-12" type="curve" smooth="yes"/>
      <point x="503" y="-12"/>
      <point x="610" y="99"/>
      <point x="610" y="255" type="curve" smooth="yes"/>
      <point x="610" y="370"/>
      <point x="566" y="439"/>
      <point x="491" y="488" type="curve"/>
      <point x="496" y="480" type="line"/>
      <point x="528" y="487"/>
      <point x="551" y="500"/>
      <point x="569" y="516" type="curve" smooth="yes"/>
      <point x="602" y="545"/>
      <point x="610" y="586"/>
      <point x="610" y="612" type="curve" smooth="yes"/>
      <point x="610" y="669"/>
      <point x="591" y="720"/>
      <point x="529" y="790" type="curve"/>
      <point x="464" y="747" type="line"/>
      <point x="508" y="703"/>
      <point x="529" y="662"/>
      <point x="529" y="618" type="curve" smooth="yes"/>
      <point x="529" y="599"/>
      <point x="524" y="582"/>
      <point x="507" y="569" type="curve" smooth="yes"/>
      <point x="492" y="558"/>
      <point x="470" y="551"/>
      <point x="398" y="551" type="curve" smooth="yes"/>
      <point x="42" y="551" type="line"/>
      <point x="42" y="474" type="line"/>
      <point x="186" y="474" type="line"/>
      <point x="168" y="488" type="line"/>
      <point x="90" y="444"/>
      <point x="42" y="368"/>
      <point x="42" y="255" type="curve" smooth="yes"/>
      <point x="42" y="83"/>
      <point x="163" y="-12"/>
    </contour>
    <contour>
      <point x="327" y="69" type="curve" smooth="yes"/>
      <point x="204" y="69"/>
      <point x="124" y="143"/>
      <point x="124" y="272" type="curve" smooth="yes"/>
      <point x="124" y="395"/>
      <point x="204" y="476"/>
      <point x="328" y="476" type="curve" smooth="yes"/>
      <point x="441" y="476"/>
      <point x="528" y="401"/>
      <point x="528" y="272" type="curve" smooth="yes"/>
      <point x="528" y="159"/>
      <point x="462" y="69"/>
    </contour>
    <contour>
      <point x="326" y="217" type="curve" smooth="yes"/>
      <point x="359" y="217"/>
      <point x="384" y="243"/>
      <point x="384" y="276" type="curve" smooth="yes"/>
      <point x="384" y="309"/>
      <point x="359" y="335"/>
      <point x="326" y="335" type="curve" smooth="yes"/>
      <point x="294" y="335"/>
      <point x="268" y="309"/>
      <point x="268" y="276" type="curve" smooth="yes"/>
      <point x="268" y="243"/>
      <point x="294" y="217"/>
    </contour>
  </outline>
</glyph>
<glyph name="thaknda" format="2">
  <advance width="765"/>
  <unicode hex="0CA5"/>
  <outline>
    <contour>
      <point x="216" y="-12" type="curve" smooth="yes"/>
      <point x="288" y="-12"/>
      <point x="352" y="7"/>
      <point x="398" y="109" type="curve"/>
      <point x="366" y="104" type="line"/>
      <point x="412" y="21"/>
      <point x="460" y="-12"/>
      <point x="545" y="-12" type="curve" smooth="yes"/>
      <point x="653" y="-12"/>
      <point x="723" y="65"/>
      <point x="723" y="220" type="curve" smooth="yes"/>
      <point x="723" y="340"/>
      <point x="670" y="436"/>
      <point x="584" y="483" type="curve"/>
      <point x="583" y="477" type="line"/>
      <point x="630" y="482"/>
      <point x="661" y="497"/>
      <point x="682" y="516" type="curve" smooth="yes"/>
      <point x="715" y="545"/>
      <point x="723" y="586"/>
      <point x="723" y="612" type="curve" smooth="yes"/>
      <point x="723" y="669"/>
      <point x="704" y="720"/>
      <point x="642" y="790" type="curve"/>
      <point x="577" y="747" type="line"/>
      <point x="621" y="703"/>
      <point x="642" y="662"/>
      <point x="642" y="618" type="curve" smooth="yes"/>
      <point x="642" y="599"/>
      <point x="638" y="582"/>
      <point x="620" y="569" type="curve"/>
      <point x="606" y="558"/>
      <point x="583" y="551"/>
      <point x="512" y="551" type="curve" smooth="yes"/>
      <point x="42" y="551" type="line"/>
      <point x="42" y="474" type="line"/>
      <point x="212" y="474" type="line"/>
      <point x="197" y="487" type="line"/>
      <point x="96" y="443"/>
      <point x="42" y="343"/>
      <point x="42" y="220" type="curve" smooth="yes"/>
      <point x="42" y="65"/>
      <point x="112" y="-12"/>
    </contour>
    <contour>
      <point x="227" y="67" type="curve" smooth="yes"/>
      <point x="162" y="67"/>
      <point x="124" y="109"/>
      <point x="124" y="219" type="curve" smooth="yes"/>
      <point x="124" y="367"/>
      <point x="211" y="476"/>
      <point x="376" y="476" type="curve" smooth="yes"/>
      <point x="393" y="476" type="line" smooth="yes"/>
      <point x="559" y="476"/>
      <point x="641" y="356"/>
      <point x="641" y="217" type="curve" smooth="yes"/>
      <point x="641" y="108"/>
      <point x="601" y="67"/>
      <point x="537" y="67" type="curve" smooth="yes"/>
      <point x="482" y="67"/>
      <point x="433" y="103"/>
      <point x="420" y="184" type="curve"/>
      <point x="344" y="184" type="line"/>
      <point x="332" y="117"/>
      <point x="293" y="67"/>
    </contour>
    <contour>
      <point x="382" y="247" type="curve" smooth="yes"/>
      <point x="415" y="247"/>
      <point x="440" y="273"/>
      <point x="440" y="306" type="curve" smooth="yes"/>
      <point x="440" y="339"/>
      <point x="415" y="365"/>
      <point x="382" y="365" type="curve" smooth="yes"/>
      <point x="350" y="365"/>
      <point x="324" y="339"/>
      <point x="324" y="306" type="curve" smooth="yes"/>
      <point x="324" y="273"/>
      <point x="350" y="247"/>
    </contour>
    <contour>
      <point x="336" y="-144" type="line"/>
      <point x="429" y="-144" type="line"/>
      <point x="421" y="15" type="line"/>
      <point x="344" y="15" type="line"/>
    </contour>
  </outline>
</glyph>
<glyph name="naknda" format="2">
  <advance width="711"/>
  <unicode hex="0CA8"/>
  <outline>
    <contour>
      <point x="483" y="-12" type="curve" smooth="yes"/>
      <point x="602" y="-12"/>
      <point x="669" y="67"/>
      <point x="669" y="198" type="curve" smooth="yes"/>
      <point x="669" y="318"/>
      <point x="610" y="418"/>
      <point x="508" y="483" type="curve"/>
      <point x="451" y="474" type="line"/>
      <point x="475" y="474" type="line"/>
      <point x="552" y="474"/>
      <point x="595" y="487"/>
      <point x="628" y="516" type="curve" smooth="yes"/>
      <point x="661" y="545"/>
      <point x="669" y="586"/>
      <point x="669" y="612" type="curve" smooth="yes"/>
      <point x="669" y="669"/>
      <point x="650" y="720"/>
      <point x="588" y="790" type="curve"/>
      <point x="523" y="747" type="line"/>
      <point x="567" y="703"/>
      <point x="588" y="662"/>
      <point x="588" y="618" type="curve" smooth="yes"/>
      <point x="588" y="599"/>
      <point x="583" y="582"/>
      <point x="566" y="569" type="curve" smooth="yes"/>
      <point x="551" y="558"/>
      <point x="530" y="551"/>
      <point x="458" y="551" type="curve" smooth="yes"/>
      <point x="33" y="551" type="line"/>
      <point x="33" y="474" type="line"/>
      <point x="367" y="474" type="line"/>
      <point x="490" y="448"/>
      <point x="587" y="330"/>
      <point x="587" y="190" type="curve" smooth="yes"/>
      <point x="587" y="123"/>
      <point x="561" y="67"/>
      <point x="492" y="67" type="curve" smooth="yes"/>
      <point x="422" y="67"/>
      <point x="395" y="108"/>
      <point x="349" y="187" type="curve" smooth="yes"/>
      <point x="303" y="267"/>
      <point x="264" y="305"/>
      <point x="181" y="305" type="curve" smooth="yes"/>
      <point x="97" y="305"/>
      <point x="31" y="238"/>
      <point x="31" y="145" type="curve" smooth="yes"/>
      <point x="31" y="87"/>
      <point x="53" y="28"/>
      <point x="84" y="-14" type="curve"/>
      <point x="162" y="17" type="line"/>
      <point x="131" y="59"/>
      <point x="111" y="105"/>
      <point x="111" y="148" type="curve" smooth="yes"/>
      <point x="111" y="198"/>
      <point x="137" y="229"/>
      <point x="182" y="229" type="curve" smooth="yes"/>
      <point x="221" y="229"/>
      <point x="243" y="212"/>
      <point x="294" y="125" type="curve" smooth="yes"/>
      <point x="334" y="57"/>
      <point x="377" y="-12"/>
    </contour>
  </outline>
</glyph>
<glyph name="baknda" format="2">
  <advance width="800"/>
  <unicode hex="0CAC"/>
  <outline>
    <contour>
      <point x="557" y="-12" type="curve" smooth="yes"/>
      <point x="688" y="-12"/>
      <point x="763" y="79"/>
      <point x="763" y="215" type="curve" smooth="yes"/>
      <point x="763" y="381"/>
      <point x="664" y="499"/>
      <point x="528" y="565" type="curve"/>
      <point x="485" y="488" type="line"/>
      <point x="602" y="437"/>
      <point x="681" y="350"/>
      <point x="681" y="210" type="curve" smooth="yes"/>
      <point x="681" y="123"/>
      <point x="634" y="67"/>
      <point x="561" y="67" type="curve" smooth="yes"/>
      <point x="496" y="67"/>
      <point x="440" y="106"/>
      <point x="434" y="195" type="curve"/>
      <point x="358" y="195" type="line"/>
      <point x="352" y="118"/>
      <point x="312" y="67"/>
      <point x="223" y="67" type="curve" smooth="yes"/>
      <point x="169" y="67"/>
      <point x="131" y="89"/>
      <point x="131" y="141" type="curve" smooth="yes"/>
      <point x="131" y="190"/>
      <point x="162" y="214"/>
      <point x="224" y="254" type="curve" smooth="yes"/>
      <point x="304" y="306"/>
      <point x="352" y="350"/>
      <point x="352" y="423" type="curve" smooth="yes"/>
      <point x="352" y="488"/>
      <point x="315" y="563"/>
      <point x="191" y="563" type="curve" smooth="yes"/>
      <point x="79" y="563"/>
      <point x="26" y="500"/>
      <point x="26" y="431" type="curve" smooth="yes"/>
      <point x="26" y="397"/>
      <point x="36" y="365"/>
      <point x="57" y="332" type="curve"/>
      <point x="127" y="363" type="line"/>
      <point x="114" y="382"/>
      <point x="107" y="401"/>
      <point x="107" y="422" type="curve" smooth="yes"/>
      <point x="107" y="463"/>
      <point x="133" y="490"/>
      <point x="190" y="490" type="curve" smooth="yes"/>
      <point x="249" y="490"/>
      <point x="271" y="464"/>
      <point x="271" y="422" type="curve" smooth="yes"/>
      <point x="271" y="379"/>
      <point x="238" y="354"/>
      <point x="187" y="321" type="curve" smooth="yes"/>
      <point x="100" y="266"/>
      <point x="49" y="222"/>
      <point x="49" y="136" type="curve" smooth="yes"/>
      <point x="49" y="62"/>
      <point x="105" y="-12"/>
      <point x="218" y="-12" type="curve" smooth="yes"/>
      <point x="309" y="-12"/>
      <point x="364" y="15"/>
      <point x="411" y="104" type="curve"/>
      <point x="379" y="105" type="line"/>
      <point x="426" y="20"/>
      <point x="479" y="-12"/>
    </contour>
  </outline>
</glyph>
<glyph name="bhaknda" format="2">
  <advance width="805"/>
  <unicode hex="0CAD"/>
  <outline>
    <contour>
      <point x="218" y="-12" type="curve" smooth="yes"/>
      <point x="309" y="-12"/>
      <point x="364" y="15"/>
      <point x="411" y="104" type="curve"/>
      <point x="379" y="105" type="line"/>
      <point x="426" y="20"/>
      <point x="479" y="-12"/>
      <point x="557" y="-12" type="curve" smooth="yes"/>
      <point x="688" y="-12"/>
      <point x="764" y="79"/>
      <point x="764" y="215" type="curve" smooth="yes"/>
      <point x="764" y="337"/>
      <point x="708" y="422"/>
      <point x="614" y="483" type="curve"/>
      <point x="476" y="477" type="line"/>
      <point x="600" y="440"/>
      <point x="682" y="341"/>
      <point x="682" y="210" type="curve" smooth="yes"/>
      <point x="682" y="123"/>
      <point x="634" y="67"/>
      <point x="561" y="67" type="curve" smooth="yes"/>
      <point x="496" y="67"/>
      <point x="440" y="106"/>
      <point x="434" y="195" type="curve"/>
      <point x="357" y="195" type="line"/>
      <point x="351" y="118"/>
      <point x="312" y="67"/>
      <point x="223" y="67" type="curve" smooth="yes"/>
      <point x="169" y="67"/>
      <point x="131" y="89"/>
      <point x="131" y="141" type="curve" smooth="yes"/>
      <point x="131" y="190"/>
      <point x="162" y="214"/>
      <point x="224" y="254" type="curve" smooth="yes"/>
      <point x="304" y="306"/>
      <point x="352" y="350"/>
      <point x="352" y="423" type="curve" smooth="yes"/>
      <point x="352" y="488"/>
      <point x="315" y="563"/>
      <point x="191" y="563" type="curve" smooth="yes"/>
      <point x="79" y="563"/>
      <point x="26" y="500"/>
      <point x="26" y="431" type="curve" smooth="yes"/>
      <point x="26" y="397"/>
      <point x="36" y="365"/>
      <point x="57" y="332" type="curve"/>
      <point x="127" y="363" type="line"/>
      <point x="114" y="382"/>
      <point x="107" y="401"/>
      <point x="107" y="422" type="curve" smooth="yes"/>
      <point x="107" y="463"/>
      <point x="133" y="490"/>
      <point x="190" y="490" type="curve" smooth="yes"/>
      <point x="249" y="490"/>
      <point x="271" y="464"/>
      <point x="271" y="422" type="curve" smooth="yes"/>
      <point x="271" y="379"/>
      <point x="238" y="354"/>
      <point x="187" y="321" type="curve" smooth="yes"/>
      <point x="100" y="266"/>
      <point x="49" y="222"/>
      <point x="49" y="136" type="curve" smooth="yes"/>
      <point x="49" y="62"/>
      <point x="105" y="-12"/>
    </contour>
    <contour>
      <point x="349" y="-144" type="line"/>
      <point x="442" y="-144" type="line"/>
      <point x="434" y="15" type="line"/>
      <point x="357" y="15" type="line"/>
    </contour>
    <contour>
      <point x="431" y="474" type="line"/>
      <point x="562" y="474" type="line" smooth="yes"/>
      <point x="638" y="474"/>
      <point x="679" y="486"/>
      <point x="714" y="516" type="curve" smooth="yes"/>
      <point x="747" y="545"/>
      <point x="755" y="586"/>
      <point x="755" y="612" type="curve" smooth="yes"/>
      <point x="755" y="669"/>
      <point x="736" y="720"/>
      <point x="674" y="790" type="curve"/>
      <point x="609" y="747" type="line"/>
      <point x="653" y="703"/>
      <point x="674" y="662"/>
      <point x="674" y="618" type="curve" smooth="yes"/>
      <point x="674" y="599"/>
      <point x="669" y="582"/>
      <point x="652" y="569" type="curve" smooth="yes"/>
      <point x="637" y="558"/>
      <point x="615" y="551"/>
      <point x="543" y="551" type="curve" smooth="yes"/>
      <point x="431" y="551" type="line"/>
    </contour>
  </outline>
</glyph>
<glyph name="yaknda" format="2">
  <advance width="1336"/>
  <unicode hex="0CAF"/>
  <outline>
    <contour>
      <point x="308" y="-12" type="curve" smooth="yes"/>
      <point x="467" y="-12"/>
      <point x="572" y="106"/>
      <point x="572" y="276" type="curve" smooth="yes"/>
      <point x="572" y="402"/>
      <point x="506" y="563"/>
      <point x="306" y="563" type="curve" smooth="yes"/>
      <point x="145" y="563"/>
      <point x="40" y="441"/>
      <point x="40" y="279" type="curve" smooth="yes"/>
      <point x="40" y="144"/>
      <point x="111" y="-12"/>
    </contour>
    <contour>
      <point x="306" y="67" type="curve" smooth="yes"/>
      <point x="191" y="67"/>
      <point x="122" y="141"/>
      <point x="122" y="277" type="curve" smooth="yes"/>
      <point x="122" y="415"/>
      <point x="201" y="484"/>
      <point x="305" y="484" type="curve" smooth="yes"/>
      <point x="427" y="484"/>
      <point x="490" y="401"/>
      <point x="490" y="279" type="curve" smooth="yes"/>
      <point x="490" y="143"/>
      <point x="417" y="67"/>
    </contour>
    <contour>
      <point x="721" y="-12" type="curve" smooth="yes"/>
      <point x="882" y="-12"/>
      <point x="932" y="107"/>
      <point x="932" y="215" type="curve" smooth="yes"/>
      <point x="932" y="337"/>
      <point x="877" y="421"/>
      <point x="782" y="481" type="curve"/>
      <point x="644" y="477" type="line"/>
      <point x="768" y="440"/>
      <point x="850" y="341"/>
      <point x="850" y="210" type="curve" smooth="yes"/>
      <point x="850" y="123"/>
      <point x="804" y="67"/>
      <point x="722" y="67" type="curve" smooth="yes"/>
      <point x="648" y="67"/>
      <point x="593" y="106"/>
      <point x="538" y="177" type="curve"/>
      <point x="486" y="123" type="line"/>
      <point x="546" y="46"/>
      <point x="619" y="-12"/>
    </contour>
    <contour>
      <point x="1088" y="-12" type="curve" smooth="yes"/>
      <point x="1231" y="-12"/>
      <point x="1299" y="84"/>
      <point x="1299" y="215" type="curve" smooth="yes"/>
      <point x="1299" y="381"/>
      <point x="1200" y="499"/>
      <point x="1064" y="565" type="curve"/>
      <point x="1021" y="488" type="line"/>
      <point x="1137" y="437"/>
      <point x="1217" y="350"/>
      <point x="1217" y="210" type="curve" smooth="yes"/>
      <point x="1217" y="123"/>
      <point x="1171" y="67"/>
      <point x="1091" y="67" type="curve" smooth="yes"/>
      <point x="1015" y="67"/>
      <point x="960" y="106"/>
      <point x="904" y="177" type="curve"/>
      <point x="853" y="123" type="line"/>
      <point x="914" y="46"/>
      <point x="986" y="-12"/>
    </contour>
    <contour>
      <point x="923" y="612" type="curve" smooth="yes"/>
      <point x="923" y="669"/>
      <point x="904" y="720"/>
      <point x="842" y="790" type="curve"/>
      <point x="777" y="747" type="line"/>
      <point x="821" y="703"/>
      <point x="842" y="662"/>
      <point x="842" y="618" type="curve" smooth="yes"/>
      <point x="842" y="599"/>
      <point x="837" y="582"/>
      <point x="820" y="569" type="curve" smooth="yes"/>
      <point x="806" y="558"/>
      <point x="784" y="551"/>
      <point x="712" y="551" type="curve" smooth="yes"/>
      <point x="600" y="551" type="line"/>
      <point x="600" y="474" type="line"/>
      <point x="730" y="474" type="line" smooth="yes"/>
      <point x="807" y="474"/>
      <point x="848" y="486"/>
      <point x="882" y="516" type="curve" smooth="yes"/>
      <point x="916" y="545"/>
      <point x="923" y="586"/>
    </contour>
  </outline>
</glyph>
<glyph name="rraknda" format="2">
  <advance width="893"/>
  <unicode hex="0CB1"/>
  <outline>
    <contour>
      <point x="259" y="-12" type="curve" smooth="yes"/>
      <point x="354" y="-12"/>
      <point x="409" y="15"/>
      <point x="463" y="103" type="curve"/>
      <point x="430" y="103" type="line"/>
      <point x="483" y="15"/>
      <point x="539" y="-12"/>
      <point x="634" y="-12" type="curve" smooth="yes"/>
      <point x="759" y="-12"/>
      <point x="851" y="78"/>
      <point x="851" y="255" type="curve" smooth="yes"/>
      <point x="851" y="453"/>
      <point x="752" y="563"/>
      <point x="630" y="563" type="curve" smooth="yes"/>
      <point x="543" y="563"/>
      <point x="488" y="510"/>
      <point x="488" y="429" type="curve" smooth="yes"/>
      <point x="488" y="384"/>
      <point x="508" y="345"/>
      <point x="542" y="317" type="curve" smooth="yes"/>
      <point x="572" y="293"/>
      <point x="604" y="278"/>
      <point x="651" y="278" type="curve" smooth="yes"/>
      <point x="734" y="278"/>
      <point x="784" y="316"/>
      <point x="811" y="348" type="curve"/>
      <point x="786" y="414" type="line"/>
      <point x="768" y="390"/>
      <point x="731" y="348"/>
      <point x="667" y="348" type="curve" smooth="yes"/>
      <point x="593" y="348"/>
      <point x="566" y="381"/>
      <point x="566" y="426" type="curve" smooth="yes"/>
      <point x="566" y="469"/>
      <point x="593" y="493"/>
      <point x="631" y="493" type="curve" smooth="yes"/>
      <point x="693" y="493"/>
      <point x="769" y="435"/>
      <point x="769" y="252" type="curve" smooth="yes"/>
      <point x="769" y="111"/>
      <point x="703" y="67"/>
      <point x="635" y="67" type="curve" smooth="yes"/>
      <point x="537" y="67"/>
      <point x="494" y="124"/>
      <point x="485" y="195" type="curve"/>
      <point x="408" y="195" type="line"/>
      <point x="399" y="124"/>
      <point x="356" y="67"/>
      <point x="258" y="67" type="curve" smooth="yes"/>
      <point x="190" y="67"/>
      <point x="124" y="111"/>
      <point x="124" y="252" type="curve" smooth="yes"/>
      <point x="124" y="435"/>
      <point x="200" y="493"/>
      <point x="262" y="493" type="curve" smooth="yes"/>
      <point x="300" y="493"/>
      <point x="327" y="469"/>
      <point x="327" y="426" type="curve" smooth="yes"/>
      <point x="327" y="381"/>
      <point x="300" y="348"/>
      <point x="226" y="348" type="curve" smooth="yes"/>
      <point x="163" y="348"/>
      <point x="125" y="390"/>
      <point x="107" y="414" type="curve"/>
      <point x="83" y="348" type="line"/>
      <point x="109" y="316"/>
      <point x="157" y="278"/>
      <point x="242" y="278" type="curve" smooth="yes"/>
      <point x="293" y="278"/>
      <point x="327" y="295"/>
      <point x="358" y="324" type="curve" smooth="yes"/>
      <point x="388" y="351"/>
      <point x="405" y="387"/>
      <point x="405" y="429" type="curve" smooth="yes"/>
      <point x="405" y="512"/>
      <point x="350" y="563"/>
      <point x="264" y="563" type="curve" smooth="yes"/>
      <point x="141" y="563"/>
      <point x="42" y="453"/>
      <point x="42" y="255" type="curve" smooth="yes"/>
      <point x="42" y="78"/>
      <point x="134" y="-12"/>
    </contour>
    <contour>
      <point x="242" y="278" type="line"/>
      <point x="651" y="278" type="line"/>
      <point x="584" y="345" type="line"/>
      <point x="553" y="351"/>
      <point x="513" y="354"/>
      <point x="481" y="354" type="curve" smooth="yes"/>
      <point x="412" y="354" type="line" smooth="yes"/>
      <point x="377" y="354"/>
      <point x="334" y="351"/>
      <point x="306" y="348" type="curve"/>
    </contour>
  </outline>
</glyph>
<glyph name="laknda" format="2">
  <advance width="759"/>
  <unicode hex="0CB2"/>
  <outline>
    <contour>
      <point x="375" y="-12" type="curve" smooth="yes"/>
      <point x="621" y="-12"/>
      <point x="722" y="121"/>
      <point x="722" y="281" type="curve" smooth="yes"/>
      <point x="722" y="410"/>
      <point x="654" y="502"/>
      <point x="538" y="565" type="curve"/>
      <point x="492" y="491" type="line"/>
      <point x="583" y="443"/>
      <point x="640" y="376"/>
      <point x="640" y="281" type="curve" smooth="yes"/>
      <point x="640" y="147"/>
      <point x="545" y="69"/>
      <point x="378" y="69" type="curve" smooth="yes"/>
      <point x="206" y="69"/>
      <point x="115" y="176"/>
      <point x="115" y="306" type="curve" smooth="yes"/>
      <point x="115" y="444"/>
      <point x="175" y="493"/>
      <point x="242" y="493" type="curve" smooth="yes"/>
      <point x="280" y="493"/>
      <point x="307" y="470"/>
      <point x="307" y="427" type="curve" smooth="yes"/>
      <point x="307" y="382"/>
      <point x="277" y="348"/>
      <point x="206" y="348" type="curve" smooth="yes"/>
      <point x="168" y="348"/>
      <point x="138" y="365"/>
      <point x="118" y="380" type="curve"/>
      <point x="108" y="309" type="line"/>
      <point x="133" y="292"/>
      <point x="167" y="278"/>
      <point x="212" y="278" type="curve" smooth="yes"/>
      <point x="325" y="278"/>
      <point x="385" y="343"/>
      <point x="385" y="429" type="curve" smooth="yes"/>
      <point x="385" y="512"/>
      <point x="332" y="563"/>
      <point x="242" y="563" type="curve" smooth="yes"/>
      <point x="119" y="563"/>
      <point x="37" y="465"/>
      <point x="37" y="308" type="curve" smooth="yes"/>
      <point x="37" y="122"/>
      <point x="159" y="-12"/>
    </contour>
  </outline>
</glyph>
<glyph name="llaknda" format="2">
  <advance width="710"/>
  <unicode hex="0CB3"/>
  <outline>
    <contour>
      <point x="362" y="-12" type="curve" smooth="yes"/>
      <point x="465" y="-12"/>
      <point x="519" y="35"/>
      <point x="519" y="105" type="curve" smooth="yes"/>
      <point x="519" y="146"/>
      <point x="502" y="172"/>
      <point x="469" y="194" type="curve"/>
      <point x="477" y="168" type="line"/>
      <point x="566" y="184"/>
      <point x="673" y="238"/>
      <point x="673" y="365" type="curve" smooth="yes"/>
      <point x="673" y="437"/>
      <point x="633" y="481"/>
      <point x="571" y="516" type="curve"/>
      <point x="585" y="487" type="line"/>
      <point x="641" y="505"/>
      <point x="677" y="551"/>
      <point x="677" y="612" type="curve" smooth="yes"/>
      <point x="677" y="669"/>
      <point x="658" y="720"/>
      <point x="596" y="790" type="curve"/>
      <point x="531" y="747" type="line"/>
      <point x="575" y="703"/>
      <point x="596" y="662"/>
      <point x="596" y="618" type="curve" smooth="yes"/>
      <point x="596" y="599"/>
      <point x="591" y="582"/>
      <point x="574" y="569" type="curve" smooth="yes"/>
      <point x="559" y="558"/>
      <point x="537" y="551"/>
      <point x="465" y="551" type="curve" smooth="yes"/>
      <point x="416" y="551" type="line"/>
      <point x="416" y="474" type="line"/>
      <point x="512" y="474" type="line"/>
      <point x="553" y="458"/>
      <point x="592" y="424"/>
      <point x="592" y="366" type="curve" smooth="yes"/>
      <point x="592" y="285"/>
      <point x="518" y="237"/>
      <point x="365" y="233" type="curve"/>
      <point x="166" y="241"/>
      <point x="103" y="305"/>
      <point x="103" y="394" type="curve" smooth="yes"/>
      <point x="103" y="452"/>
      <point x="140" y="493"/>
      <point x="200" y="493" type="curve" smooth="yes"/>
      <point x="238" y="493"/>
      <point x="266" y="474"/>
      <point x="266" y="440" type="curve" smooth="yes"/>
      <point x="266" y="406"/>
      <point x="240" y="379"/>
      <point x="169" y="379" type="curve" smooth="yes"/>
      <point x="141" y="379"/>
      <point x="112" y="385"/>
      <point x="85" y="400" type="curve"/>
      <point x="78" y="337" type="line"/>
      <point x="103" y="322"/>
      <point x="147" y="311"/>
      <point x="178" y="311" type="curve" smooth="yes"/>
      <point x="301" y="311"/>
      <point x="344" y="373"/>
      <point x="344" y="443" type="curve" smooth="yes"/>
      <point x="344" y="522"/>
      <point x="283" y="563"/>
      <point x="206" y="563" type="curve" smooth="yes"/>
      <point x="95" y="563"/>
      <point x="30" y="490"/>
      <point x="30" y="385" type="curve" smooth="yes"/>
      <point x="30" y="271"/>
      <point x="123" y="189"/>
      <point x="254" y="169" type="curve"/>
      <point x="260" y="189" type="line"/>
      <point x="226" y="169"/>
      <point x="208" y="136"/>
      <point x="208" y="104" type="curve" smooth="yes"/>
      <point x="208" y="21"/>
      <point x="285" y="-12"/>
    </contour>
    <contour>
      <point x="364" y="59" type="curve" smooth="yes"/>
      <point x="311" y="59"/>
      <point x="285" y="81"/>
      <point x="285" y="112" type="curve" smooth="yes"/>
      <point x="285" y="146"/>
      <point x="311" y="169"/>
      <point x="363" y="172" type="curve" smooth="yes"/>
      <point x="410" y="171"/>
      <point x="442" y="148"/>
      <point x="442" y="112" type="curve" smooth="yes"/>
      <point x="442" y="75"/>
      <point x="412" y="59"/>
    </contour>
  </outline>
</glyph>
<glyph name="shaknda" format="2">
  <advance width="630"/>
  <unicode hex="0CB6"/>
  <outline>
    <contour>
      <point x="269" y="-12" type="curve" smooth="yes"/>
      <point x="476" y="-12"/>
      <point x="591" y="91"/>
      <point x="591" y="265" type="curve" smooth="yes"/>
      <point x="591" y="358"/>
      <point x="550" y="444"/>
      <point x="459" y="501" type="curve"/>
      <point x="393" y="501" type="line"/>
      <point x="389" y="479" type="line"/>
      <point x="439" y="450"/>
      <point x="509" y="389"/>
      <point x="509" y="266" type="curve" smooth="yes"/>
      <point x="509" y="135"/>
      <point x="418" y="67"/>
      <point x="269" y="67" type="curve" smooth="yes"/>
      <point x="154" y="67"/>
      <point x="113" y="104"/>
      <point x="113" y="158" type="curve" smooth="yes"/>
      <point x="113" y="211"/>
      <point x="155" y="230"/>
      <point x="250" y="242" type="curve" smooth="yes"/>
      <point x="352" y="254"/>
      <point x="422" y="294"/>
      <point x="422" y="393" type="curve" smooth="yes"/>
      <point x="422" y="474"/>
      <point x="347" y="523"/>
      <point x="267" y="523" type="curve" smooth="yes"/>
      <point x="134" y="523"/>
      <point x="83" y="471"/>
      <point x="83" y="417" type="curve" smooth="yes"/>
      <point x="83" y="388"/>
      <point x="89" y="367"/>
      <point x="105" y="336" type="curve"/>
      <point x="180" y="367" type="line"/>
      <point x="171" y="380"/>
      <point x="167" y="398"/>
      <point x="167" y="411" type="curve" smooth="yes"/>
      <point x="167" y="449"/>
      <point x="190" y="476"/>
      <point x="260" y="476" type="curve" smooth="yes"/>
      <point x="311" y="476"/>
      <point x="350" y="455"/>
      <point x="350" y="404" type="curve" smooth="yes"/>
      <point x="350" y="339"/>
      <point x="316" y="325"/>
      <point x="222" y="312" type="curve" smooth="yes"/>
      <point x="117" y="298"/>
      <point x="31" y="266"/>
      <point x="31" y="158" type="curve" smooth="yes"/>
      <point x="31" y="44"/>
      <point x="123" y="-12"/>
    </contour>
    <contour>
      <point x="31" y="474" type="line"/>
      <point x="150" y="474" type="line"/>
      <point x="249" y="487" type="line"/>
      <point x="358" y="474" type="line"/>
      <point x="390" y="474" type="line"/>
      <point x="490" y="474"/>
      <point x="524" y="494"/>
      <point x="550" y="516" type="curve" smooth="yes"/>
      <point x="583" y="544"/>
      <point x="591" y="586"/>
      <point x="591" y="612" type="curve" smooth="yes"/>
      <point x="591" y="669"/>
      <point x="572" y="720"/>
      <point x="510" y="790" type="curve"/>
      <point x="445" y="747" type="line"/>
      <point x="489" y="703"/>
      <point x="510" y="662"/>
      <point x="510" y="618" type="curve" smooth="yes"/>
      <point x="510" y="599"/>
      <point x="505" y="582"/>
      <point x="488" y="569" type="curve" smooth="yes"/>
      <point x="473" y="558"/>
      <point x="455" y="551"/>
      <point x="383" y="551" type="curve" smooth="yes"/>
      <point x="31" y="551" type="line"/>
    </contour>
  </outline>
</glyph>
<glyph name="saknda" format="2">
  <advance width="709"/>
  <unicode hex="0CB8"/>
  <outline>
    <contour>
      <point x="483" y="-12" type="curve" smooth="yes"/>
      <point x="602" y="-12"/>
      <point x="670" y="67"/>
      <point x="670" y="203" type="curve" smooth="yes"/>
      <point x="670" y="292"/>
      <point x="635" y="367"/>
      <point x="572" y="435" type="curve"/>
      <point x="504" y="387" type="line"/>
      <point x="568" y="315"/>
      <point x="588" y="254"/>
      <point x="588" y="194" type="curve" smooth="yes"/>
      <point x="588" y="120"/>
      <point x="556" y="67"/>
      <point x="490" y="67" type="curve" smooth="yes"/>
      <point x="423" y="67"/>
      <point x="395" y="108"/>
      <point x="349" y="187" type="curve" smooth="yes"/>
      <point x="303" y="267"/>
      <point x="265" y="305"/>
      <point x="181" y="305" type="curve" smooth="yes"/>
      <point x="97" y="305"/>
      <point x="31" y="238"/>
      <point x="31" y="146" type="curve" smooth="yes"/>
      <point x="31" y="88"/>
      <point x="53" y="28"/>
      <point x="84" y="-14" type="curve"/>
      <point x="162" y="17" type="line"/>
      <point x="131" y="59"/>
      <point x="111" y="105"/>
      <point x="111" y="148" type="curve" smooth="yes"/>
      <point x="111" y="198"/>
      <point x="137" y="229"/>
      <point x="182" y="229" type="curve" smooth="yes"/>
      <point x="221" y="229"/>
      <point x="243" y="212"/>
      <point x="294" y="125" type="curve" smooth="yes"/>
      <point x="334" y="57"/>
      <point x="377" y="-12"/>
    </contour>
    <contour>
      <point x="341" y="315" type="curve" smooth="yes"/>
      <point x="374" y="315"/>
      <point x="399" y="341"/>
      <point x="399" y="374" type="curve" smooth="yes"/>
      <point x="399" y="407"/>
      <point x="374" y="433"/>
      <point x="341" y="433" type="curve" smooth="yes"/>
      <point x="309" y="433"/>
      <point x="283" y="407"/>
      <point x="283" y="374" type="curve" smooth="yes"/>
      <point x="283" y="341"/>
      <point x="309" y="315"/>
    </contour>
    <contour>
      <point x="32" y="474" type="line"/>
      <point x="477" y="474" type="line"/>
      <point x="553" y="474"/>
      <point x="594" y="486"/>
      <point x="629" y="516" type="curve" smooth="yes"/>
      <point x="662" y="545"/>
      <point x="670" y="586"/>
      <point x="670" y="612" type="curve" smooth="yes"/>
      <point x="670" y="669"/>
      <point x="651" y="720"/>
      <point x="589" y="790" type="curve"/>
      <point x="524" y="747" type="line"/>
      <point x="568" y="703"/>
      <point x="589" y="662"/>
      <point x="589" y="618" type="curve" smooth="yes"/>
      <point x="589" y="599"/>
      <point x="584" y="582"/>
      <point x="567" y="569" type="curve" smooth="yes"/>
      <point x="552" y="558"/>
      <point x="530" y="551"/>
      <point x="458" y="551" type="curve" smooth="yes"/>
      <point x="32" y="551" type="line"/>
    </contour>
  </outline>
</glyph>
<glyph name="haknda" format="2">
  <advance width="801"/>
  <unicode hex="0CB9"/>
  <outline>
    <contour>
      <point x="231" y="-12" type="curve" smooth="yes"/>
      <point x="323" y="-12"/>
      <point x="383" y="34"/>
      <point x="409" y="101" type="curve"/>
      <point x="390" y="102" type="line"/>
      <point x="415" y="31"/>
      <point x="476" y="-12"/>
      <point x="566" y="-12" type="curve" smooth="yes"/>
      <point x="695" y="-12"/>
      <point x="768" y="69"/>
      <point x="768" y="181" type="curve" smooth="yes"/>
      <point x="768" y="293"/>
      <point x="701" y="375"/>
      <point x="576" y="375" type="curve" smooth="yes"/>
      <point x="514" y="375"/>
      <point x="469" y="354"/>
      <point x="436" y="316" type="curve"/>
      <point x="438" y="315" type="line"/>
      <point x="439" y="320"/>
      <point x="441" y="333"/>
      <point x="441" y="343" type="curve" smooth="yes"/>
      <point x="441" y="415"/>
      <point x="406" y="461"/>
      <point x="361" y="486" type="curve"/>
      <point x="207" y="481" type="line"/>
      <point x="295" y="474"/>
      <point x="365" y="413"/>
      <point x="365" y="335" type="curve" smooth="yes"/>
      <point x="365" y="331"/>
      <point x="364" y="318"/>
      <point x="363" y="315" type="curve"/>
      <point x="367" y="316" type="line"/>
      <point x="338" y="353"/>
      <point x="294" y="375"/>
      <point x="236" y="375" type="curve" smooth="yes"/>
      <point x="106" y="375"/>
      <point x="33" y="295"/>
      <point x="33" y="181" type="curve" smooth="yes"/>
      <point x="33" y="59"/>
      <point x="109" y="-12"/>
    </contour>
    <contour>
      <point x="237" y="63" type="curve" smooth="yes"/>
      <point x="162" y="63"/>
      <point x="115" y="109"/>
      <point x="115" y="183" type="curve" smooth="yes"/>
      <point x="115" y="249"/>
      <point x="153" y="300"/>
      <point x="241" y="300" type="curve" smooth="yes"/>
      <point x="317" y="300"/>
      <point x="362" y="254"/>
      <point x="362" y="181" type="curve" smooth="yes"/>
      <point x="362" y="113"/>
      <point x="323" y="63"/>
    </contour>
    <contour>
      <point x="561" y="63" type="curve" smooth="yes"/>
      <point x="485" y="63"/>
      <point x="439" y="109"/>
      <point x="439" y="183" type="curve" smooth="yes"/>
      <point x="439" y="249"/>
      <point x="480" y="300"/>
      <point x="564" y="300" type="curve" smooth="yes"/>
      <point x="641" y="300"/>
      <point x="686" y="254"/>
      <point x="686" y="181" type="curve" smooth="yes"/>
      <point x="686" y="113"/>
      <point x="646" y="63"/>
    </contour>
    <contour>
      <point x="34" y="474" type="line"/>
      <point x="575" y="474" type="line" smooth="yes"/>
      <point x="651" y="474"/>
      <point x="692" y="486"/>
      <point x="727" y="516" type="curve" smooth="yes"/>
      <point x="760" y="545"/>
      <point x="768" y="586"/>
      <point x="768" y="612" type="curve" smooth="yes"/>
      <point x="768" y="669"/>
      <point x="749" y="720"/>
      <point x="687" y="790" type="curve"/>
      <point x="622" y="747" type="line"/>
      <point x="666" y="703"/>
      <point x="687" y="662"/>
      <point x="687" y="618" type="curve" smooth="yes"/>
      <point x="687" y="599"/>
      <point x="682" y="582"/>
      <point x="665" y="569" type="curve" smooth="yes"/>
      <point x="650" y="558"/>
      <point x="628" y="551"/>
      <point x="557" y="551" type="curve" smooth="yes"/>
      <point x="34" y="551" type="line"/>
    </contour>
  </outline>
</glyph>
<glyph name="nuktaknda" format="2">
  <unicode hex="0CBC"/>
  <outline>
    <contour>
      <point x="-169" y="-182" type="curve" smooth="yes"/>
      <point x="-136" y="-182"/>
      <point x="-110" y="-155"/>
      <point x="-110" y="-123" type="curve" smooth="yes"/>
      <point x="-110" y="-90"/>
      <point x="-136" y="-64"/>
      <point x="-169" y="-64" type="curve" smooth="yes"/>
      <point x="-201" y="-64"/>
      <point x="-226" y="-90"/>
      <point x="-226" y="-123" type="curve" smooth="yes"/>
      <point x="-226" y="-155"/>
      <point x="-201" y="-182"/>
    </contour>
    <contour>
      <point x="-391" y="-182" type="curve" smooth="yes"/>
      <point x="-358" y="-182"/>
      <point x="-332" y="-155"/>
      <point x="-332" y="-123" type="curve" smooth="yes"/>
      <point x="-332" y="-90"/>
      <point x="-358" y="-64"/>
      <point x="-391" y="-64" type="curve" smooth="yes"/>
      <point x="-423" y="-64"/>
      <point x="-448" y="-90"/>
      <point x="-448" y="-123" type="curve" smooth="yes"/>
      <point x="-448" y="-155"/>
      <point x="-423" y="-182"/>
    </contour>
  </outline>
</glyph>
<glyph name="avagrahaknda" format="2">
  <advance width="446"/>
  <unicode hex="0CBD"/>
  <outline>
    <contour>
      <point x="229" y="-12" type="curve" smooth="yes"/>
      <point x="351" y="-12"/>
      <point x="414" y="56"/>
      <point x="414" y="144" type="curve" smooth="yes"/>
      <point x="414" y="247"/>
      <point x="344" y="287"/>
      <point x="252" y="326" type="curve" smooth="yes"/>
      <point x="147" y="371"/>
      <point x="118" y="393"/>
      <point x="118" y="429" type="curve" smooth="yes"/>
      <point x="118" y="466"/>
      <point x="150" y="474"/>
      <point x="206" y="474" type="curve" smooth="yes"/>
      <point x="389" y="474" type="line"/>
      <point x="389" y="551" type="line"/>
      <point x="212" y="551" type="line" smooth="yes"/>
      <point x="137" y="551"/>
      <point x="100" y="538"/>
      <point x="73" y="514" type="curve" smooth="yes"/>
      <point x="50" y="493"/>
      <point x="36" y="465"/>
      <point x="36" y="430" type="curve" smooth="yes"/>
      <point x="36" y="369"/>
      <point x="66" y="319"/>
      <point x="187" y="267" type="curve" smooth="yes"/>
      <point x="288" y="223"/>
      <point x="332" y="201"/>
      <point x="332" y="144" type="curve" smooth="yes"/>
      <point x="332" y="100"/>
      <point x="302" y="67"/>
      <point x="229" y="67" type="curve" smooth="yes"/>
      <point x="160" y="67"/>
      <point x="105" y="106"/>
      <point x="99" y="195" type="curve"/>
      <point x="16" y="189" type="line"/>
      <point x="31" y="62"/>
      <point x="110" y="-12"/>
    </contour>
  </outline>
</glyph>
<glyph name="aavowelsignknda" format="2">
  <advance width="449"/>
  <unicode hex="0CBE"/>
  <outline>
    <contour>
      <point x="407" y="241" type="curve" smooth="yes"/>
      <point x="407" y="335"/>
      <point x="382" y="410"/>
      <point x="337" y="460" type="curve" smooth="yes"/>
      <point x="285" y="520"/>
      <point x="212" y="551"/>
      <point x="79" y="551" type="curve" smooth="yes"/>
      <point x="-250" y="551" type="line"/>
      <point x="-250" y="474" type="line"/>
      <point x="60" y="474" type="line" smooth="yes"/>
      <point x="182" y="474"/>
      <point x="229" y="453"/>
      <point x="269" y="410" type="curve" smooth="yes"/>
      <point x="306" y="371"/>
      <point x="325" y="316"/>
      <point x="325" y="241" type="curve" smooth="yes"/>
      <point x="325" y="120"/>
      <point x="275" y="62"/>
      <point x="196" y="62" type="curve" smooth="yes"/>
      <point x="123" y="62"/>
      <point x="96" y="107"/>
      <point x="96" y="155" type="curve" smooth="yes"/>
      <point x="96" y="176"/>
      <point x="99" y="192"/>
      <point x="108" y="212" type="curve"/>
      <point x="100" y="210" type="line"/>
      <point x="100" y="170"/>
      <point x="120" y="150"/>
      <point x="156" y="150" type="curve" smooth="yes"/>
      <point x="188" y="150"/>
      <point x="211" y="174"/>
      <point x="211" y="212" type="curve" smooth="yes"/>
      <point x="211" y="252"/>
      <point x="184" y="279"/>
      <point x="135" y="279" type="curve" smooth="yes"/>
      <point x="74" y="279"/>
      <point x="24" y="235"/>
      <point x="24" y="148" type="curve" smooth="yes"/>
      <point x="24" y="60"/>
      <point x="84" y="-12"/>
      <point x="195" y="-12" type="curve" smooth="yes"/>
      <point x="331" y="-12"/>
      <point x="407" y="80"/>
    </contour>
  </outline>
</glyph>
<glyph name="ivowelsignknda" format="2">
  <advance width="327"/>
  <unicode hex="0CBF"/>
  <outline>
    <contour>
      <point x="119" y="311" type="curve" smooth="yes"/>
      <point x="230" y="311"/>
      <point x="305" y="369"/>
      <point x="305" y="504" type="curve" smooth="yes"/>
      <point x="305" y="623"/>
      <point x="229" y="712"/>
      <point x="117" y="712" type="curve" smooth="yes"/>
      <point x="29" y="712"/>
      <point x="-26" y="658"/>
      <point x="-26" y="590" type="curve" smooth="yes"/>
      <point x="-26" y="512"/>
      <point x="39" y="478"/>
      <point x="108" y="478" type="curve" smooth="yes"/>
      <point x="194" y="478"/>
      <point x="238" y="530"/>
      <point x="264" y="569" type="curve"/>
      <point x="233" y="615" type="line"/>
      <point x="204" y="572"/>
      <point x="169" y="545"/>
      <point x="108" y="545" type="curve" smooth="yes"/>
      <point x="86" y="545"/>
      <point x="50" y="554"/>
      <point x="50" y="595" type="curve" smooth="yes"/>
      <point x="50" y="625"/>
      <point x="73" y="645"/>
      <point x="117" y="645" type="curve" smooth="yes"/>
      <point x="175" y="645"/>
      <point x="227" y="588"/>
      <point x="227" y="507" type="curve" smooth="yes"/>
      <point x="227" y="497" type="line" smooth="yes"/>
      <point x="227" y="417"/>
      <point x="187" y="385"/>
      <point x="112" y="385" type="curve" smooth="yes"/>
      <point x="60" y="385"/>
      <point x="1" y="407"/>
      <point x="-59" y="480" type="curve"/>
      <point x="-101" y="436" type="line"/>
      <point x="-64" y="375"/>
      <point x="4" y="311"/>
    </contour>
  </outline>
</glyph>
<glyph name="uvowelsignknda" format="2">
  <advance width="364"/>
  <unicode hex="0CC1"/>
  <outline>
    <contour>
      <point x="116" y="-12" type="curve" smooth="yes"/>
      <point x="258" y="-12"/>
      <point x="327" y="84"/>
      <point x="327" y="215" type="curve" smooth="yes"/>
      <point x="327" y="381"/>
      <point x="228" y="499"/>
      <point x="92" y="565" type="curve"/>
      <point x="49" y="488" type="line"/>
      <point x="165" y="437"/>
      <point x="245" y="350"/>
      <point x="245" y="210" type="curve" smooth="yes"/>
      <point x="245" y="123"/>
      <point x="199" y="67"/>
      <point x="119" y="67" type="curve" smooth="yes"/>
      <point x="42" y="67"/>
      <point x="-12" y="106"/>
      <point x="-68" y="177" type="curve"/>
      <point x="-119" y="123" type="line"/>
      <point x="-59" y="46"/>
      <point x="14" y="-12"/>
    </contour>
  </outline>
</glyph>
<glyph name="uuvowelsignknda" format="2">
  <advance width="746"/>
  <unicode hex="0CC2"/>
  <outline>
    <contour>
      <point x="90" y="-12" type="curve" smooth="yes"/>
      <point x="174" y="-12"/>
      <point x="256" y="35"/>
      <point x="256" y="155" type="curve" smooth="yes"/>
      <point x="256" y="221"/>
      <point x="248" y="249"/>
      <point x="248" y="314" type="curve" smooth="yes"/>
      <point x="248" y="423"/>
      <point x="312" y="485"/>
      <point x="419" y="485" type="curve" smooth="yes"/>
      <point x="563" y="485"/>
      <point x="626" y="367"/>
      <point x="626" y="236" type="curve" smooth="yes"/>
      <point x="626" y="124"/>
      <point x="577" y="62"/>
      <point x="497" y="62" type="curve" smooth="yes"/>
      <point x="424" y="62"/>
      <point x="397" y="107"/>
      <point x="397" y="155" type="curve" smooth="yes"/>
      <point x="397" y="176"/>
      <point x="400" y="192"/>
      <point x="409" y="212" type="curve"/>
      <point x="401" y="210" type="line"/>
      <point x="401" y="170"/>
      <point x="421" y="150"/>
      <point x="457" y="150" type="curve" smooth="yes"/>
      <point x="489" y="150"/>
      <point x="512" y="174"/>
      <point x="512" y="212" type="curve" smooth="yes"/>
      <point x="512" y="252"/>
      <point x="485" y="279"/>
      <point x="436" y="279" type="curve" smooth="yes"/>
      <point x="375" y="279"/>
      <point x="325" y="235"/>
      <point x="325" y="148" type="curve" smooth="yes"/>
      <point x="325" y="60"/>
      <point x="385" y="-12"/>
      <point x="497" y="-12" type="curve" smooth="yes"/>
      <point x="630" y="-12"/>
      <point x="708" y="80"/>
      <point x="708" y="238" type="curve" smooth="yes"/>
      <point x="708" y="417"/>
      <point x="614" y="563"/>
      <point x="417" y="563" type="curve" smooth="yes"/>
      <point x="271" y="563"/>
      <point x="166" y="474"/>
      <point x="166" y="324" type="curve" smooth="yes"/>
      <point x="166" y="265"/>
      <point x="174" y="232"/>
      <point x="174" y="156" type="curve" smooth="yes"/>
      <point x="174" y="102"/>
      <point x="150" y="67"/>
      <point x="90" y="67" type="curve" smooth="yes"/>
      <point x="31" y="67"/>
      <point x="-14" y="98"/>
      <point x="-68" y="168" type="curve"/>
      <point x="-119" y="113" type="line"/>
      <point x="-60" y="39"/>
      <point x="3" y="-12"/>
    </contour>
  </outline>
</glyph>
<glyph name="rvocalicvowelsignknda" format="2">
  <advance width="123"/>
  <unicode hex="0CC3"/>
  <outline>
    <contour>
      <point x="-107" y="-415" type="curve" smooth="yes"/>
      <point x="54" y="-415"/>
      <point x="146" y="-326"/>
      <point x="146" y="-155" type="curve" smooth="yes"/>
      <point x="146" y="-68"/>
      <point x="118" y="8"/>
      <point x="83" y="70" type="curve"/>
      <point x="14" y="36" type="line"/>
      <point x="44" y="-12"/>
      <point x="70" y="-90"/>
      <point x="70" y="-154" type="curve" smooth="yes"/>
      <point x="70" y="-299"/>
      <point x="-7" y="-347"/>
      <point x="-108" y="-347" type="curve" smooth="yes"/>
      <point x="-199" y="-347"/>
      <point x="-246" y="-301"/>
      <point x="-246" y="-224" type="curve" smooth="yes"/>
      <point x="-246" y="-220" type="line" smooth="yes"/>
      <point x="-246" y="-160"/>
      <point x="-216" y="-122"/>
      <point x="-167" y="-122" type="curve" smooth="yes"/>
      <point x="-139" y="-122"/>
      <point x="-119" y="-137"/>
      <point x="-119" y="-164" type="curve" smooth="yes"/>
      <point x="-119" y="-194"/>
      <point x="-140" y="-210"/>
      <point x="-189" y="-210" type="curve" smooth="yes"/>
      <point x="-223" y="-210"/>
      <point x="-249" y="-201"/>
      <point x="-277" y="-177" type="curve"/>
      <point x="-265" y="-250" type="line"/>
      <point x="-238" y="-266"/>
      <point x="-211" y="-272"/>
      <point x="-177" y="-272" type="curve" smooth="yes"/>
      <point x="-87" y="-272"/>
      <point x="-48" y="-229"/>
      <point x="-48" y="-166" type="curve" smooth="yes"/>
      <point x="-48" y="-107"/>
      <point x="-83" y="-60"/>
      <point x="-165" y="-60" type="curve" smooth="yes"/>
      <point x="-254" y="-60"/>
      <point x="-316" y="-130"/>
      <point x="-316" y="-222" type="curve" smooth="yes"/>
      <point x="-316" y="-333"/>
      <point x="-239" y="-415"/>
    </contour>
  </outline>
</glyph>
<glyph name="rrvocalicvowelsignknda" format="2">
  <advance width="494"/>
  <unicode hex="0CC4"/>
  <outline>
    <contour>
      <point x="-107" y="-415" type="curve" smooth="yes"/>
      <point x="54" y="-415"/>
      <point x="146" y="-326"/>
      <point x="146" y="-155" type="curve" smooth="yes"/>
      <point x="146" y="-83"/>
      <point x="125" y="-18"/>
      <point x="98" y="38" type="curve"/>
      <point x="59" y="79" type="line"/>
      <point x="18" y="29" type="line"/>
      <point x="47" y="-19"/>
      <point x="70" y="-93"/>
      <point x="70" y="-154" type="curve" smooth="yes"/>
      <point x="70" y="-299"/>
      <point x="-7" y="-347"/>
      <point x="-108" y="-347" type="curve" smooth="yes"/>
      <point x="-199" y="-347"/>
      <point x="-246" y="-301"/>
      <point x="-246" y="-224" type="curve" smooth="yes"/>
      <point x="-246" y="-220" type="line" smooth="yes"/>
      <point x="-246" y="-160"/>
      <point x="-216" y="-122"/>
      <point x="-167" y="-122" type="curve" smooth="yes"/>
      <point x="-139" y="-122"/>
      <point x="-119" y="-137"/>
      <point x="-119" y="-164" type="curve" smooth="yes"/>
      <point x="-119" y="-194"/>
      <point x="-140" y="-210"/>
      <point x="-189" y="-210" type="curve" smooth="yes"/>
      <point x="-223" y="-210"/>
      <point x="-249" y="-201"/>
      <point x="-277" y="-177" type="curve"/>
      <point x="-265" y="-250" type="line"/>
      <point x="-238" y="-266"/>
      <point x="-211" y="-272"/>
      <point x="-177" y="-272" type="curve" smooth="yes"/>
      <point x="-87" y="-272"/>
      <point x="-48" y="-229"/>
      <point x="-48" y="-166" type="curve" smooth="yes"/>
      <point x="-48" y="-107"/>
      <point x="-83" y="-60"/>
      <point x="-165" y="-60" type="curve" smooth="yes"/>
      <point x="-254" y="-60"/>
      <point x="-316" y="-130"/>
      <point x="-316" y="-222" type="curve" smooth="yes"/>
      <point x="-316" y="-333"/>
      <point x="-239" y="-415"/>
    </contour>
    <contour>
      <point x="348" y="-345" type="curve" smooth="yes"/>
      <point x="466" y="-345"/>
      <point x="528" y="-271"/>
      <point x="528" y="-155" type="curve" smooth="yes"/>
      <point x="528" y="-80"/>
      <point x="507" y="-27"/>
      <point x="469" y="11" type="curve" smooth="yes"/>
      <point x="424" y="56"/>
      <point x="370" y="79"/>
      <point x="244" y="79" type="curve" smooth="yes"/>
      <point x="59" y="79" type="line"/>
      <point x="50" y="8" type="line"/>
      <point x="232" y="8" type="line" smooth="yes"/>
      <point x="333" y="8"/>
      <point x="372" y="-6"/>
      <point x="406" y="-36" type="curve" smooth="yes"/>
      <point x="436" y="-63"/>
      <point x="452" y="-101"/>
      <point x="452" y="-153" type="curve" smooth="yes"/>
      <point x="452" y="-241"/>
      <point x="413" y="-277"/>
      <point x="349" y="-277" type="curve" smooth="yes"/>
      <point x="290" y="-277"/>
      <point x="269" y="-247"/>
      <point x="269" y="-208" type="curve" smooth="yes"/>
      <point x="269" y="-196"/>
      <point x="272" y="-185"/>
      <point x="279" y="-172" type="curve"/>
      <point x="272" y="-175" type="line"/>
      <point x="277" y="-205"/>
      <point x="297" y="-217"/>
      <point x="321" y="-217" type="curve" smooth="yes"/>
      <point x="348" y="-217"/>
      <point x="368" y="-197"/>
      <point x="368" y="-168" type="curve" smooth="yes"/>
      <point x="368" y="-131"/>
      <point x="344" y="-109"/>
      <point x="299" y="-109" type="curve" smooth="yes"/>
      <point x="246" y="-109"/>
      <point x="201" y="-145"/>
      <point x="201" y="-216" type="curve" smooth="yes"/>
      <point x="201" y="-287"/>
      <point x="252" y="-345"/>
    </contour>
  </outline>
</glyph>
<glyph name="evowelsignknda" format="2">
  <unicode hex="0CC6"/>
  <outline>
    <contour>
      <point x="-509" y="474" type="line"/>
      <point x="-253" y="474" type="line" smooth="yes"/>
      <point x="-171" y="474"/>
      <point x="-114" y="487"/>
      <point x="-76" y="521" type="curve" smooth="yes"/>
      <point x="-44" y="550"/>
      <point x="-30" y="591"/>
      <point x="-30" y="640" type="curve" smooth="yes"/>
      <point x="-30" y="739"/>
      <point x="-94" y="809"/>
      <point x="-199" y="809" type="curve" smooth="yes"/>
      <point x="-303" y="809"/>
      <point x="-359" y="743"/>
      <point x="-359" y="681" type="curve" smooth="yes"/>
      <point x="-359" y="641"/>
      <point x="-340" y="602"/>
      <point x="-292" y="602" type="curve" smooth="yes"/>
      <point x="-259" y="602"/>
      <point x="-236" y="619"/>
      <point x="-236" y="650" type="curve" smooth="yes"/>
      <point x="-236" y="676"/>
      <point x="-256" y="693"/>
      <point x="-289" y="693" type="curve" smooth="yes"/>
      <point x="-299" y="693"/>
      <point x="-311" y="691"/>
      <point x="-324" y="688" type="curve"/>
      <point x="-295" y="646" type="line"/>
      <point x="-296" y="653"/>
      <point x="-296" y="660"/>
      <point x="-296" y="667" type="curve" smooth="yes"/>
      <point x="-296" y="705"/>
      <point x="-256" y="740"/>
      <point x="-204" y="740" type="curve" smooth="yes"/>
      <point x="-150" y="740"/>
      <point x="-111" y="707"/>
      <point x="-111" y="651" type="curve" smooth="yes"/>
      <point x="-111" y="625"/>
      <point x="-116" y="601"/>
      <point x="-132" y="583" type="curve" smooth="yes"/>
      <point x="-151" y="563"/>
      <point x="-182" y="551"/>
      <point x="-273" y="551" type="curve" smooth="yes"/>
      <point x="-509" y="551" type="line"/>
    </contour>
  </outline>
</glyph>
<glyph name="auvowelsignknda" format="2">
  <advance width="430"/>
  <unicode hex="0CCC"/>
  <outline>
    <contour>
      <point x="29" y="607" type="curve" smooth="yes"/>
      <point x="29" y="653"/>
      <point x="14" y="690"/>
      <point x="-5" y="716" type="curve"/>
      <point x="-89" y="709" type="line"/>
      <point x="-59" y="672"/>
      <point x="-52" y="636"/>
      <point x="-52" y="617" type="curve" smooth="yes"/>
      <point x="-52" y="592"/>
      <point x="-60" y="577"/>
      <point x="-74" y="567" type="curve" smooth="yes"/>
      <point x="-90" y="555"/>
      <point x="-117" y="551"/>
      <point x="-163" y="551" type="curve" smooth="yes"/>
      <point x="-250" y="551" type="line"/>
      <point x="-250" y="474" type="line"/>
      <point x="-140" y="474" type="line" smooth="yes"/>
      <point x="-78" y="474"/>
      <point x="-33" y="487"/>
      <point x="-6" y="512" type="curve" smooth="yes"/>
      <point x="17" y="533"/>
      <point x="29" y="563"/>
    </contour>
    <contour>
      <point x="404" y="471" type="curve" smooth="yes"/>
      <point x="404" y="566"/>
      <point x="378" y="642"/>
      <point x="333" y="692" type="curve" smooth="yes"/>
      <point x="279" y="751"/>
      <point x="205" y="782"/>
      <point x="75" y="782" type="curve" smooth="yes"/>
      <point x="-269" y="782" type="line"/>
      <point x="-269" y="705" type="line"/>
      <point x="55" y="705" type="line" smooth="yes"/>
      <point x="178" y="705"/>
      <point x="226" y="683"/>
      <point x="266" y="640" type="curve" smooth="yes"/>
      <point x="303" y="601"/>
      <point x="322" y="546"/>
      <point x="322" y="471" type="curve" smooth="yes"/>
      <point x="322" y="354"/>
      <point x="273" y="294"/>
      <point x="192" y="294" type="curve" smooth="yes"/>
      <point x="120" y="294"/>
      <point x="93" y="337"/>
      <point x="93" y="386" type="curve" smooth="yes"/>
      <point x="93" y="406"/>
      <point x="96" y="422"/>
      <point x="105" y="442" type="curve"/>
      <point x="97" y="440" type="line"/>
      <point x="97" y="400"/>
      <point x="117" y="380"/>
      <point x="153" y="380" type="curve" smooth="yes"/>
      <point x="185" y="380"/>
      <point x="208" y="404"/>
      <point x="208" y="442" type="curve" smooth="yes"/>
      <point x="208" y="483"/>
      <point x="180" y="509"/>
      <point x="132" y="509" type="curve" smooth="yes"/>
      <point x="71" y="509"/>
      <point x="21" y="466"/>
      <point x="21" y="378" type="curve" smooth="yes"/>
      <point x="21" y="291"/>
      <point x="80" y="219"/>
      <point x="192" y="219" type="curve" smooth="yes"/>
      <point x="321" y="219"/>
      <point x="404" y="314"/>
    </contour>
  </outline>
</glyph>
<glyph name="viramaknda" format="2">
  <advance width="313"/>
  <unicode hex="0CCD"/>
  <outline>
    <contour>
      <point x="153" y="295" type="curve" smooth="yes"/>
      <point x="231" y="295"/>
      <point x="289" y="336"/>
      <point x="289" y="417" type="curve" smooth="yes"/>
      <point x="289" y="457"/>
      <point x="275" y="490"/>
      <point x="250" y="512" type="curve" smooth="yes"/>
      <point x="219" y="541"/>
      <point x="174" y="551"/>
      <point x="111" y="551" type="curve" smooth="yes"/>
      <point x="-164" y="551" type="line"/>
      <point x="-164" y="474" type="line"/>
      <point x="122" y="474" type="line" smooth="yes"/>
      <point x="161" y="474"/>
      <point x="179" y="470"/>
      <point x="195" y="457" type="curve" smooth="yes"/>
      <point x="206" y="448"/>
      <point x="213" y="434"/>
      <point x="213" y="415" type="curve" smooth="yes"/>
      <point x="213" y="376"/>
      <point x="188" y="363"/>
      <point x="155" y="363" type="curve" smooth="yes"/>
      <point x="102" y="363"/>
      <point x="74" y="404"/>
      <point x="74" y="467" type="curve" smooth="yes"/>
      <point x="74" y="478" type="line" smooth="yes"/>
      <point x="74" y="589"/>
      <point x="128" y="625"/>
      <point x="193" y="625" type="curve" smooth="yes"/>
      <point x="224" y="625"/>
      <point x="252" y="618"/>
      <point x="281" y="602" type="curve"/>
      <point x="324" y="665" type="line"/>
      <point x="294" y="682"/>
      <point x="254" y="696"/>
      <point x="202" y="696" type="curve" smooth="yes"/>
      <point x="80" y="696"/>
      <point x="-1" y="618"/>
      <point x="-1" y="479" type="curve" smooth="yes"/>
      <point x="-1" y="471" type="line" smooth="yes"/>
      <point x="-1" y="359"/>
      <point x="60" y="295"/>
    </contour>
  </outline>
</glyph>
<glyph name="lengthmarkknda" format="2">
  <advance width="408"/>
  <unicode hex="0CD5"/>
  <outline>
    <contour>
      <point x="382" y="430" type="curve" smooth="yes"/>
      <point x="382" y="509"/>
      <point x="330" y="563"/>
      <point x="236" y="563" type="curve" smooth="yes"/>
      <point x="120" y="563"/>
      <point x="36" y="470"/>
      <point x="36" y="323" type="curve" smooth="yes"/>
      <point x="36" y="162"/>
      <point x="134" y="54"/>
      <point x="270" y="-12" type="curve"/>
      <point x="313" y="64" type="line"/>
      <point x="197" y="116"/>
      <point x="115" y="192"/>
      <point x="115" y="324" type="curve" smooth="yes"/>
      <point x="115" y="335" type="line" smooth="yes"/>
      <point x="115" y="437"/>
      <point x="172" y="493"/>
      <point x="232" y="493" type="curve" smooth="yes"/>
      <point x="278" y="493"/>
      <point x="301" y="470"/>
      <point x="301" y="427" type="curve" smooth="yes"/>
      <point x="301" y="381"/>
      <point x="270" y="348"/>
      <point x="200" y="348" type="curve" smooth="yes"/>
      <point x="136" y="348"/>
      <point x="99" y="390"/>
      <point x="81" y="415" type="curve"/>
      <point x="56" y="349" type="line"/>
      <point x="83" y="317"/>
      <point x="132" y="278"/>
      <point x="207" y="278" type="curve" smooth="yes"/>
      <point x="321" y="278"/>
      <point x="382" y="344"/>
    </contour>
  </outline>
</glyph>
<glyph name="ailengthmarkknda" format="2">
  <advance width="183"/>
  <unicode hex="0CD6"/>
  <outline>
    <contour>
      <point x="-85" y="-415" type="curve" smooth="yes"/>
      <point x="70" y="-415"/>
      <point x="168" y="-344"/>
      <point x="168" y="-197" type="curve" smooth="yes"/>
      <point x="168" y="-127"/>
      <point x="148" y="-73"/>
      <point x="106" y="-21" type="curve"/>
      <point x="112" y="-50" type="line"/>
      <point x="134" y="-32"/>
      <point x="161" y="-1"/>
      <point x="161" y="55" type="curve" smooth="yes"/>
      <point x="161" y="105"/>
      <point x="142" y="150"/>
      <point x="76" y="203" type="curve"/>
      <point x="23" y="150" type="line"/>
      <point x="63" y="120"/>
      <point x="82" y="88"/>
      <point x="82" y="51" type="curve" smooth="yes"/>
      <point x="82" y="12"/>
      <point x="62" y="-12"/>
      <point x="27" y="-39" type="curve"/>
      <point x="63" y="-78"/>
      <point x="92" y="-130"/>
      <point x="92" y="-195" type="curve" smooth="yes"/>
      <point x="92" y="-309"/>
      <point x="5" y="-347"/>
      <point x="-87" y="-347" type="curve" smooth="yes"/>
      <point x="-188" y="-347"/>
      <point x="-234" y="-301"/>
      <point x="-234" y="-224" type="curve" smooth="yes"/>
      <point x="-234" y="-220" type="line" smooth="yes"/>
      <point x="-234" y="-160"/>
      <point x="-204" y="-122"/>
      <point x="-154" y="-122" type="curve" smooth="yes"/>
      <point x="-126" y="-122"/>
      <point x="-107" y="-137"/>
      <point x="-107" y="-164" type="curve" smooth="yes"/>
      <point x="-107" y="-194"/>
      <point x="-127" y="-210"/>
      <point x="-177" y="-210" type="curve" smooth="yes"/>
      <point x="-211" y="-210"/>
      <point x="-236" y="-201"/>
      <point x="-265" y="-177" type="curve"/>
      <point x="-252" y="-250" type="line"/>
      <point x="-226" y="-266"/>
      <point x="-199" y="-272"/>
      <point x="-165" y="-272" type="curve" smooth="yes"/>
      <point x="-75" y="-272"/>
      <point x="-36" y="-229"/>
      <point x="-36" y="-166" type="curve" smooth="yes"/>
      <point x="-36" y="-107"/>
      <point x="-71" y="-60"/>
      <point x="-152" y="-60" type="curve" smooth="yes"/>
      <point x="-242" y="-60"/>
      <point x="-304" y="-130"/>
      <point x="-304" y="-222" type="curve" smooth="yes"/>
      <point x="-304" y="-333"/>
      <point x="-228" y="-415"/>
    </contour>
  </outline>
</glyph>
<glyph name="faknda" format="2">
  <advance width="869"/>
  <unicode hex="0CDE"/>
  <outline>
    <contour>
      <point x="253" y="-12" type="curve" smooth="yes"/>
      <point x="344" y="-12"/>
      <point x="398" y="15"/>
      <point x="451" y="104" type="curve"/>
      <point x="418" y="104" type="line"/>
      <point x="470" y="15"/>
      <point x="524" y="-12"/>
      <point x="616" y="-12" type="curve" smooth="yes"/>
      <point x="738" y="-12"/>
      <point x="827" y="78"/>
      <point x="827" y="255" type="curve" smooth="yes"/>
      <point x="827" y="453"/>
      <point x="728" y="563"/>
      <point x="605" y="563" type="curve" smooth="yes"/>
      <point x="517" y="563"/>
      <point x="464" y="510"/>
      <point x="464" y="429" type="curve" smooth="yes"/>
      <point x="464" y="343"/>
      <point x="523" y="278"/>
      <point x="636" y="278" type="curve" smooth="yes"/>
      <point x="710" y="278"/>
      <point x="759" y="316"/>
      <point x="786" y="348" type="curve"/>
      <point x="762" y="414" type="line"/>
      <point x="744" y="390"/>
      <point x="706" y="348"/>
      <point x="643" y="348" type="curve" smooth="yes"/>
      <point x="572" y="348"/>
      <point x="542" y="381"/>
      <point x="542" y="426" type="curve" smooth="yes"/>
      <point x="542" y="469"/>
      <point x="568" y="493"/>
      <point x="607" y="493" type="curve" smooth="yes"/>
      <point x="669" y="493"/>
      <point x="745" y="435"/>
      <point x="745" y="252" type="curve" smooth="yes"/>
      <point x="745" y="109"/>
      <point x="682" y="67"/>
      <point x="617" y="67" type="curve" smooth="yes"/>
      <point x="522" y="67"/>
      <point x="480" y="124"/>
      <point x="472" y="195" type="curve"/>
      <point x="396" y="195" type="line"/>
      <point x="387" y="124"/>
      <point x="346" y="67"/>
      <point x="252" y="67" type="curve" smooth="yes"/>
      <point x="187" y="67"/>
      <point x="124" y="109"/>
      <point x="124" y="252" type="curve" smooth="yes"/>
      <point x="124" y="435"/>
      <point x="200" y="493"/>
      <point x="262" y="493" type="curve" smooth="yes"/>
      <point x="300" y="493"/>
      <point x="327" y="469"/>
      <point x="327" y="426" type="curve" smooth="yes"/>
      <point x="327" y="381"/>
      <point x="297" y="348"/>
      <point x="226" y="348" type="curve" smooth="yes"/>
      <point x="163" y="348"/>
      <point x="125" y="390"/>
      <point x="107" y="414" type="curve"/>
      <point x="83" y="348" type="line"/>
      <point x="109" y="316"/>
      <point x="159" y="278"/>
      <point x="232" y="278" type="curve" smooth="yes"/>
      <point x="345" y="278"/>
      <point x="405" y="343"/>
      <point x="405" y="429" type="curve" smooth="yes"/>
      <point x="405" y="512"/>
      <point x="351" y="563"/>
      <point x="264" y="563" type="curve" smooth="yes"/>
      <point x="141" y="563"/>
      <point x="42" y="453"/>
      <point x="42" y="255" type="curve" smooth="yes"/>
      <point x="42" y="78"/>
      <point x="131" y="-12"/>
    </contour>
  </outline>
</glyph>
<glyph name="rrvocalicknda" format="2">
  <advance width="1570"/>
  <unicode hex="0CE0"/>
  <outline>
    <contour>
      <point x="187" y="-12" type="curve" smooth="yes"/>
      <point x="380" y="-12"/>
      <point x="437" y="136"/>
      <point x="437" y="277" type="curve" smooth="yes"/>
      <point x="437" y="393"/>
      <point x="364" y="563"/>
      <point x="183" y="563" type="curve" smooth="yes"/>
      <point x="86" y="563"/>
      <point x="27" y="505"/>
      <point x="27" y="432" type="curve" smooth="yes"/>
      <point x="27" y="349"/>
      <point x="92" y="303"/>
      <point x="164" y="303" type="curve" smooth="yes"/>
      <point x="245" y="303"/>
      <point x="297" y="351"/>
      <point x="297" y="425" type="curve" smooth="yes"/>
      <point x="297" y="462"/>
      <point x="283" y="497"/>
      <point x="265" y="524" type="curve"/>
      <point x="201" y="513" type="line"/>
      <point x="220" y="496"/>
      <point x="234" y="467"/>
      <point x="234" y="435" type="curve" smooth="yes"/>
      <point x="234" y="390"/>
      <point x="206" y="372"/>
      <point x="166" y="372" type="curve" smooth="yes"/>
      <point x="124" y="372"/>
      <point x="103" y="396"/>
      <point x="103" y="433" type="curve" smooth="yes"/>
      <point x="103" y="469"/>
      <point x="130" y="496"/>
      <point x="179" y="496" type="curve" smooth="yes"/>
      <point x="207" y="496"/>
      <point x="231" y="490"/>
      <point x="252" y="479" type="curve"/>
      <point x="258" y="476"/>
      <point x="264" y="478"/>
      <point x="270" y="474" type="curve"/>
      <point x="326" y="435"/>
      <point x="356" y="354"/>
      <point x="356" y="272" type="curve" smooth="yes"/>
      <point x="356" y="181"/>
      <point x="333" y="94"/>
      <point x="264" y="66" type="curve"/>
      <point x="260" y="64"/>
      <point x="255" y="67"/>
      <point x="250" y="65" type="curve"/>
      <point x="231" y="60"/>
      <point x="209" y="56"/>
      <point x="183" y="56" type="curve" smooth="yes"/>
      <point x="134" y="56"/>
      <point x="107" y="83"/>
      <point x="107" y="119" type="curve" smooth="yes"/>
      <point x="107" y="156"/>
      <point x="127" y="180"/>
      <point x="175" y="180" type="curve" smooth="yes"/>
      <point x="209" y="180"/>
      <point x="238" y="162"/>
      <point x="238" y="117" type="curve" smooth="yes"/>
      <point x="238" y="90"/>
      <point x="225" y="64"/>
      <point x="205" y="39" type="curve"/>
      <point x="269" y="28" type="line"/>
      <point x="288" y="56"/>
      <point x="301" y="90"/>
      <point x="301" y="126" type="curve" smooth="yes"/>
      <point x="301" y="201"/>
      <point x="251" y="249"/>
      <point x="174" y="249" type="curve" smooth="yes"/>
      <point x="96" y="249"/>
      <point x="31" y="203"/>
      <point x="31" y="120" type="curve" smooth="yes"/>
      <point x="31" y="47"/>
      <point x="90" y="-12"/>
    </contour>
    <contour>
      <point x="577" y="-12" type="curve" smooth="yes"/>
      <point x="737" y="-12"/>
      <point x="788" y="107"/>
      <point x="788" y="215" type="curve" smooth="yes"/>
      <point x="788" y="337"/>
      <point x="732" y="421"/>
      <point x="638" y="481" type="curve"/>
      <point x="500" y="477" type="line"/>
      <point x="624" y="440"/>
      <point x="706" y="341"/>
      <point x="706" y="210" type="curve" smooth="yes"/>
      <point x="706" y="123"/>
      <point x="660" y="67"/>
      <point x="578" y="67" type="curve" smooth="yes"/>
      <point x="503" y="67"/>
      <point x="449" y="106"/>
      <point x="393" y="177" type="curve"/>
      <point x="341" y="123" type="line"/>
      <point x="402" y="46"/>
      <point x="474" y="-12"/>
    </contour>
    <contour>
      <point x="455" y="474" type="line"/>
      <point x="585" y="474" type="line" smooth="yes"/>
      <point x="662" y="474"/>
      <point x="703" y="486"/>
      <point x="738" y="516" type="curve" smooth="yes"/>
      <point x="771" y="545"/>
      <point x="779" y="586"/>
      <point x="779" y="612" type="curve" smooth="yes"/>
      <point x="779" y="669"/>
      <point x="760" y="720"/>
      <point x="698" y="790" type="curve"/>
      <point x="633" y="747" type="line"/>
      <point x="677" y="703"/>
      <point x="698" y="662"/>
      <point x="698" y="618" type="curve" smooth="yes"/>
      <point x="698" y="599"/>
      <point x="693" y="582"/>
      <point x="676" y="569" type="curve" smooth="yes"/>
      <point x="661" y="558"/>
      <point x="639" y="551"/>
      <point x="567" y="551" type="curve" smooth="yes"/>
      <point x="455" y="551" type="line"/>
    </contour>
    <component base="uuvowelsignknda" xOffset="824"/>
  </outline>
</glyph>
<glyph name="llvocalicknda" format="2">
  <advance width="1286"/>
  <unicode hex="0CE1"/>
  <outline>
    <contour>
      <point x="451" y="-12" type="curve" smooth="yes"/>
      <point x="669" y="-12"/>
      <point x="807" y="99"/>
      <point x="807" y="289" type="curve" smooth="yes"/>
      <point x="807" y="356"/>
      <point x="793" y="424"/>
      <point x="749" y="500" type="curve"/>
      <point x="726" y="474" type="line"/>
      <point x="897" y="474" type="line" smooth="yes"/>
      <point x="1019" y="474"/>
      <point x="1066" y="453"/>
      <point x="1106" y="410" type="curve" smooth="yes"/>
      <point x="1143" y="371"/>
      <point x="1162" y="316"/>
      <point x="1162" y="241" type="curve" smooth="yes"/>
      <point x="1162" y="120"/>
      <point x="1112" y="62"/>
      <point x="1033" y="62" type="curve" smooth="yes"/>
      <point x="960" y="62"/>
      <point x="933" y="107"/>
      <point x="933" y="155" type="curve" smooth="yes"/>
      <point x="933" y="176"/>
      <point x="936" y="192"/>
      <point x="945" y="212" type="curve"/>
      <point x="937" y="210" type="line"/>
      <point x="937" y="170"/>
      <point x="957" y="150"/>
      <point x="993" y="150" type="curve" smooth="yes"/>
      <point x="1025" y="150"/>
      <point x="1048" y="174"/>
      <point x="1048" y="212" type="curve" smooth="yes"/>
      <point x="1048" y="252"/>
      <point x="1021" y="279"/>
      <point x="972" y="279" type="curve" smooth="yes"/>
      <point x="911" y="279"/>
      <point x="861" y="235"/>
      <point x="861" y="148" type="curve" smooth="yes"/>
      <point x="861" y="60"/>
      <point x="921" y="-12"/>
      <point x="1032" y="-12" type="curve" smooth="yes"/>
      <point x="1167" y="-12"/>
      <point x="1244" y="80"/>
      <point x="1244" y="241" type="curve" smooth="yes"/>
      <point x="1244" y="335"/>
      <point x="1219" y="410"/>
      <point x="1174" y="460" type="curve" smooth="yes"/>
      <point x="1122" y="520"/>
      <point x="1049" y="551"/>
      <point x="916" y="551" type="curve" smooth="yes"/>
      <point x="696" y="551" type="line"/>
      <point x="653" y="499" type="line"/>
      <point x="701" y="434"/>
      <point x="725" y="373"/>
      <point x="725" y="287" type="curve" smooth="yes"/>
      <point x="725" y="144"/>
      <point x="621" y="67"/>
      <point x="456" y="67" type="curve" smooth="yes"/>
      <point x="341" y="67"/>
      <point x="299" y="102"/>
      <point x="299" y="156" type="curve" smooth="yes"/>
      <point x="299" y="204"/>
      <point x="343" y="220"/>
      <point x="426" y="242" type="curve" smooth="yes"/>
      <point x="539" y="271"/>
      <point x="604" y="312"/>
      <point x="604" y="414" type="curve" smooth="yes"/>
      <point x="604" y="500"/>
      <point x="554" y="563"/>
      <point x="459" y="563" type="curve" smooth="yes"/>
      <point x="389" y="563"/>
      <point x="335" y="528"/>
      <point x="298" y="448" type="curve"/>
      <point x="326" y="448" type="line"/>
      <point x="293" y="526"/>
      <point x="239" y="563"/>
      <point x="173" y="563" type="curve" smooth="yes"/>
      <point x="89" y="563"/>
      <point x="26" y="506"/>
      <point x="26" y="423" type="curve" smooth="yes"/>
      <point x="26" y="380"/>
      <point x="37" y="349"/>
      <point x="49" y="324" type="curve"/>
      <point x="125" y="349" type="line"/>
      <point x="117" y="364"/>
      <point x="108" y="391"/>
      <point x="108" y="416" type="curve" smooth="yes"/>
      <point x="108" y="454"/>
      <point x="130" y="485"/>
      <point x="178" y="485" type="curve" smooth="yes"/>
      <point x="224" y="485"/>
      <point x="258" y="444"/>
      <point x="274" y="377" type="curve"/>
      <point x="353" y="377" type="line"/>
      <point x="366" y="439"/>
      <point x="398" y="484"/>
      <point x="453" y="484" type="curve" smooth="yes"/>
      <point x="494" y="484"/>
      <point x="522" y="461"/>
      <point x="522" y="414" type="curve" smooth="yes"/>
      <point x="522" y="347"/>
      <point x="475" y="329"/>
      <point x="384" y="306" type="curve" smooth="yes"/>
      <point x="285" y="281"/>
      <point x="218" y="244"/>
      <point x="218" y="154" type="curve" smooth="yes"/>
      <point x="218" y="43"/>
      <point x="310" y="-12"/>
    </contour>
  </outline>
</glyph>
<glyph name="lvocalicvowelsignknda" format="2">
  <advance width="73"/>
  <unicode hex="0CE2"/>
  <outline>
    <contour>
      <point x="125" y="-180" type="curve" smooth="yes"/>
      <point x="125" y="-97"/>
      <point x="64" y="-55"/>
      <point x="-7" y="-55" type="curve" smooth="yes"/>
      <point x="-59" y="-55"/>
      <point x="-103" y="-73"/>
      <point x="-138" y="-133" type="curve"/>
      <point x="-104" y="-128" type="line"/>
      <point x="-136" y="-83"/>
      <point x="-171" y="-55"/>
      <point x="-231" y="-55" type="curve" smooth="yes"/>
      <point x="-308" y="-55"/>
      <point x="-348" y="-94"/>
      <point x="-348" y="-155" type="curve" smooth="yes"/>
      <point x="-348" y="-187"/>
      <point x="-339" y="-220"/>
      <point x="-329" y="-243" type="curve"/>
      <point x="-258" y="-225" type="line"/>
      <point x="-266" y="-208"/>
      <point x="-271" y="-189"/>
      <point x="-271" y="-174" type="curve" smooth="yes"/>
      <point x="-271" y="-140"/>
      <point x="-252" y="-122"/>
      <point x="-220" y="-122" type="curve" smooth="yes"/>
      <point x="-187" y="-122"/>
      <point x="-163" y="-147"/>
      <point x="-156" y="-189" type="curve"/>
      <point x="-84" y="-189" type="line"/>
      <point x="-76" y="-149"/>
      <point x="-54" y="-121"/>
      <point x="-9" y="-121" type="curve" smooth="yes"/>
      <point x="24" y="-121"/>
      <point x="50" y="-144"/>
      <point x="50" y="-179" type="curve" smooth="yes"/>
      <point x="50" y="-196"/>
      <point x="47" y="-215"/>
      <point x="34" y="-231" type="curve"/>
      <point x="89" y="-285" type="line"/>
      <point x="108" y="-261"/>
      <point x="125" y="-217"/>
    </contour>
    <contour>
      <point x="42" y="-458" type="curve" smooth="yes"/>
      <point x="86" y="-458"/>
      <point x="122" y="-446"/>
      <point x="149" y="-433" type="curve"/>
      <point x="127" y="-372" type="line"/>
      <point x="98" y="-387"/>
      <point x="77" y="-394"/>
      <point x="45" y="-394" type="curve" smooth="yes"/>
      <point x="14" y="-394"/>
      <point x="-15" y="-380"/>
      <point x="-15" y="-348" type="curve" smooth="yes"/>
      <point x="-15" y="-314"/>
      <point x="14" y="-293"/>
      <point x="89" y="-285" type="curve"/>
      <point x="51" y="-224" type="line"/>
      <point x="-54" y="-242"/>
      <point x="-87" y="-291"/>
      <point x="-87" y="-345" type="curve" smooth="yes"/>
      <point x="-87" y="-412"/>
      <point x="-38" y="-458"/>
    </contour>
  </outline>
</glyph>
<glyph name="llvocalicvowelsignknda" format="2">
  <advance width="73"/>
  <unicode hex="0CE3"/>
  <outline>
    <contour>
      <point x="125" y="-180" type="curve" smooth="yes"/>
      <point x="125" y="-97"/>
      <point x="64" y="-55"/>
      <point x="-7" y="-55" type="curve" smooth="yes"/>
      <point x="-59" y="-55"/>
      <point x="-103" y="-73"/>
      <point x="-138" y="-133" type="curve"/>
      <point x="-104" y="-128" type="line"/>
      <point x="-136" y="-83"/>
      <point x="-171" y="-55"/>
      <point x="-231" y="-55" type="curve" smooth="yes"/>
      <point x="-308" y="-55"/>
      <point x="-348" y="-94"/>
      <point x="-348" y="-155" type="curve" smooth="yes"/>
      <point x="-348" y="-187"/>
      <point x="-339" y="-220"/>
      <point x="-329" y="-243" type="curve"/>
      <point x="-258" y="-225" type="line"/>
      <point x="-266" y="-208"/>
      <point x="-271" y="-189"/>
      <point x="-271" y="-174" type="curve" smooth="yes"/>
      <point x="-271" y="-140"/>
      <point x="-252" y="-122"/>
      <point x="-220" y="-122" type="curve" smooth="yes"/>
      <point x="-187" y="-122"/>
      <point x="-163" y="-147"/>
      <point x="-156" y="-189" type="curve"/>
      <point x="-84" y="-189" type="line"/>
      <point x="-77" y="-150"/>
      <point x="-54" y="-121"/>
      <point x="-9" y="-121" type="curve" smooth="yes"/>
      <point x="24" y="-121"/>
      <point x="50" y="-144"/>
      <point x="50" y="-179" type="curve" smooth="yes"/>
      <point x="50" y="-196"/>
      <point x="47" y="-215"/>
      <point x="34" y="-231" type="curve"/>
      <point x="45" y="-248" type="line"/>
      <point x="107" y="-253" type="line"/>
      <point x="118" y="-230"/>
      <point x="125" y="-205"/>
    </contour>
    <contour>
      <point x="42" y="-407" type="curve" smooth="yes"/>
      <point x="86" y="-407"/>
      <point x="122" y="-395"/>
      <point x="149" y="-382" type="curve"/>
      <point x="127" y="-321" type="line"/>
      <point x="98" y="-336"/>
      <point x="77" y="-343"/>
      <point x="45" y="-343" type="curve" smooth="yes"/>
      <point x="16" y="-343"/>
      <point x="-11" y="-332"/>
      <point x="-11" y="-307" type="curve" smooth="yes"/>
      <point x="-11" y="-278"/>
      <point x="19" y="-259"/>
      <point x="107" y="-253" type="curve"/>
      <point x="58" y="-198" type="line"/>
      <point x="-50" y="-208"/>
      <point x="-83" y="-258"/>
      <point x="-83" y="-306" type="curve" smooth="yes"/>
      <point x="-83" y="-366"/>
      <point x="-32" y="-407"/>
    </contour>
    <contour>
      <point x="64" y="-525" type="curve" smooth="yes"/>
      <point x="101" y="-525"/>
      <point x="140" y="-515"/>
      <point x="169" y="-500" type="curve"/>
      <point x="147" y="-439" type="line"/>
      <point x="118" y="-455"/>
      <point x="96" y="-461"/>
      <point x="67" y="-461" type="curve" smooth="yes"/>
      <point x="32" y="-461"/>
      <point x="7" y="-450"/>
      <point x="7" y="-424" type="curve" smooth="yes"/>
      <point x="7" y="-411"/>
      <point x="14" y="-399"/>
      <point x="30" y="-391" type="curve"/>
      <point x="-27" y="-348" type="line"/>
      <point x="-56" y="-369"/>
      <point x="-65" y="-396"/>
      <point x="-65" y="-424" type="curve" smooth="yes"/>
      <point x="-65" y="-483"/>
      <point x="-16" y="-525"/>
    </contour>
  </outline>
</glyph>
<glyph name="zeroknda" format="2">
  <advance width="688"/>
  <unicode hex="0CE6"/>
  <outline>
    <contour>
      <point x="54" y="343" type="curve" smooth="yes"/>
      <point x="54" y="155"/>
      <point x="145" y="-12"/>
      <point x="343" y="-12" type="curve" smooth="yes"/>
      <point x="554" y="-12"/>
      <point x="634" y="164"/>
      <point x="634" y="347" type="curve" smooth="yes"/>
      <point x="634" y="529"/>
      <point x="546" y="702"/>
      <point x="343" y="702" type="curve" smooth="yes"/>
      <point x="142" y="702"/>
      <point x="54" y="534"/>
    </contour>
    <contour>
      <point x="142" y="343" type="curve" smooth="yes"/>
      <point x="142" y="524"/>
      <point x="224" y="621"/>
      <point x="340" y="621" type="curve" smooth="yes"/>
      <point x="464" y="621"/>
      <point x="546" y="525"/>
      <point x="546" y="347" type="curve" smooth="yes"/>
      <point x="546" y="167"/>
      <point x="468" y="69"/>
      <point x="343" y="69" type="curve" smooth="yes"/>
      <point x="229" y="69"/>
      <point x="142" y="161"/>
    </contour>
  </outline>
</glyph>
<glyph name="oneknda" format="2">
  <advance width="688"/>
  <unicode hex="0CE7"/>
  <outline>
    <contour>
      <point x="344" y="702" type="curve" smooth="yes"/>
      <point x="153" y="702"/>
      <point x="54" y="546"/>
      <point x="54" y="356" type="curve" smooth="yes"/>
      <point x="54" y="203"/>
      <point x="107" y="87"/>
      <point x="185" y="-13" type="curve"/>
      <point x="256" y="37" type="line"/>
      <point x="178" y="134"/>
      <point x="142" y="241"/>
      <point x="142" y="359" type="curve" smooth="yes"/>
      <point x="142" y="506"/>
      <point x="207" y="621"/>
      <point x="344" y="621" type="curve" smooth="yes"/>
      <point x="482" y="621"/>
      <point x="546" y="506"/>
      <point x="546" y="359" type="curve" smooth="yes"/>
      <point x="546" y="237"/>
      <point x="500" y="124"/>
      <point x="431" y="37" type="curve"/>
      <point x="503" y="-13" type="line"/>
      <point x="584" y="90"/>
      <point x="634" y="212"/>
      <point x="634" y="355" type="curve" smooth="yes"/>
      <point x="634" y="543"/>
      <point x="542" y="702"/>
    </contour>
  </outline>
</glyph>
